M48
; DRILL file {KiCad 8.0.6} date 2025-01-14T13:14:11-0700
; FORMAT={-:-/ absolute / inch / decimal}
; #@! TF.CreationDate,2025-01-14T13:14:11-07:00
; #@! TF.GenerationSoftware,Kicad,Pcbnew,8.0.6
; #@! TF.FileFunction,Plated,1,2,PTH
FMAT,2
INCH
; #@! TA.AperFunction,Plated,PTH,ComponentDrill
T1C0.0300
; #@! TA.AperFunction,Plated,PTH,ComponentDrill
T2C0.0420
; #@! TA.AperFunction,Plated,PTH,ComponentDrill
T3C0.0800
; #@! TA.AperFunction,Plated,PTH,ComponentDrill
T4C0.0850
; #@! TA.AperFunction,Plated,PTH,ComponentDrill
T5C0.0900
; #@! TA.AperFunction,Plated,PTH,ComponentDrill
T6C0.1150
; #@! TA.AperFunction,Plated,PTH,ComponentDrill
T7C0.2600
%
G90
G05
T1
X2.3237Y-3.1839
X2.3237Y-3.2839
X2.3237Y-3.3839
X2.3237Y-3.4839
X2.3237Y-3.5839
X2.3237Y-3.6839
X2.3337Y-4.6106
X2.3337Y-4.7439
X2.4337Y-4.6106
X2.4337Y-4.7439
X2.46Y-3.89
X2.46Y-4.04
X2.5037Y-3.1839
X2.5037Y-3.2839
X2.5037Y-3.4039
X2.5037Y-3.5039
X2.5037Y-3.6039
X2.5037Y-3.7039
X2.51Y-3.965
X2.57Y-2.61
X2.5985Y-3.18
X2.666Y-3.3139
X2.666Y-3.4089
X2.666Y-3.7089
X2.67Y-2.61
X2.6737Y-2.7089
X2.6737Y-2.7889
X2.6737Y-3.0889
X2.6985Y-3.18
X2.766Y-3.3139
X2.766Y-3.4089
X2.766Y-3.7089
X2.7737Y-2.7089
X2.7737Y-2.7889
X2.7737Y-3.0889
X2.866Y-3.3139
X2.866Y-3.4089
X2.866Y-3.7089
X2.8735Y-3.18
X2.8737Y-2.7089
X2.8737Y-2.7889
X2.8737Y-3.0889
X2.8885Y-2.599
X2.966Y-3.3139
X2.966Y-3.4089
X2.966Y-3.7089
X2.9735Y-3.18
X2.9737Y-2.7139
X2.9737Y-2.7889
X2.9737Y-3.0889
X2.9885Y-2.599
X3.066Y-3.3139
X3.066Y-3.4089
X3.066Y-3.7089
X3.0737Y-2.7139
X3.0737Y-2.7889
X3.0737Y-3.0889
X3.166Y-3.3139
X3.166Y-3.4089
X3.166Y-3.7089
X3.1737Y-2.7139
X3.1737Y-2.7889
X3.1737Y-3.0889
X3.1737Y-3.8439
X3.1737Y-3.9439
X3.1837Y-3.1839
X3.225Y-4.28
X3.225Y-4.38
X3.225Y-4.48
X3.225Y-4.58
X3.28Y-2.7
X3.28Y-2.8
X3.2837Y-3.1839
X3.3537Y-3.8439
X3.3537Y-3.9439
X3.36Y-4.05
X3.36Y-4.15
X3.46Y-4.05
X3.46Y-4.15
X3.525Y-4.28
X3.525Y-4.38
X3.525Y-4.48
X3.525Y-4.58
T2
X2.32Y-3.85
X2.32Y-4.0944
T3
X2.3737Y-2.3139
X2.3737Y-2.5139
X2.3737Y-2.7389
X2.3737Y-2.9389
T4
X2.804Y-3.97
X2.804Y-5.495
T5
X4.87Y-4.61
X5.0925Y-4.755
T6
X2.3637Y-4.9639
X2.3637Y-5.2639
X2.6737Y-2.0502
X2.6737Y-2.4
X2.9237Y-2.0502
X2.9237Y-2.4
X3.1398Y-5.57
X3.1737Y-2.0502
X3.1737Y-2.4
X3.4398Y-5.57
X3.54Y-4.85
X3.54Y-5.15
X3.855Y-4.85
X3.855Y-5.15
T7
X4.43Y-5.05
X5.5325Y-5.199
M30
