%TF.GenerationSoftware,KiCad,Pcbnew,8.0.6*%
%TF.CreationDate,2025-01-14T13:14:06-07:00*%
%TF.ProjectId,Shutter current limit,53687574-7465-4722-9063-757272656e74,rev?*%
%TF.SameCoordinates,Original*%
%TF.FileFunction,Legend,Bot*%
%TF.FilePolarity,Positive*%
%FSLAX46Y46*%
G04 Gerber Fmt 4.6, Leading zero omitted, Abs format (unit mm)*
G04 Created by KiCad (PCBNEW 8.0.6) date 2025-01-14 13:14:06*
%MOMM*%
%LPD*%
G01*
G04 APERTURE LIST*
%ADD10C,0.100000*%
G04 APERTURE END LIST*
D10*
X94488000Y-138176000D02*
X91440000Y-134874000D01*
X66405580Y-127426401D02*
X65691295Y-127426401D01*
X65691295Y-127426401D02*
X65548438Y-127474020D01*
X65548438Y-127474020D02*
X65453200Y-127569258D01*
X65453200Y-127569258D02*
X65405580Y-127712115D01*
X65405580Y-127712115D02*
X65405580Y-127807353D01*
X65405580Y-126426401D02*
X65405580Y-126997829D01*
X65405580Y-126712115D02*
X66405580Y-126712115D01*
X66405580Y-126712115D02*
X66262723Y-126807353D01*
X66262723Y-126807353D02*
X66167485Y-126902591D01*
X66167485Y-126902591D02*
X66119866Y-126997829D01*
X65929390Y-124902591D02*
X65881771Y-124759734D01*
X65881771Y-124759734D02*
X65834152Y-124712115D01*
X65834152Y-124712115D02*
X65738914Y-124664496D01*
X65738914Y-124664496D02*
X65596057Y-124664496D01*
X65596057Y-124664496D02*
X65500819Y-124712115D01*
X65500819Y-124712115D02*
X65453200Y-124759734D01*
X65453200Y-124759734D02*
X65405580Y-124854972D01*
X65405580Y-124854972D02*
X65405580Y-125235924D01*
X65405580Y-125235924D02*
X66405580Y-125235924D01*
X66405580Y-125235924D02*
X66405580Y-124902591D01*
X66405580Y-124902591D02*
X66357961Y-124807353D01*
X66357961Y-124807353D02*
X66310342Y-124759734D01*
X66310342Y-124759734D02*
X66215104Y-124712115D01*
X66215104Y-124712115D02*
X66119866Y-124712115D01*
X66119866Y-124712115D02*
X66024628Y-124759734D01*
X66024628Y-124759734D02*
X65977009Y-124807353D01*
X65977009Y-124807353D02*
X65929390Y-124902591D01*
X65929390Y-124902591D02*
X65929390Y-125235924D01*
X65405580Y-123807353D02*
X65929390Y-123807353D01*
X65929390Y-123807353D02*
X66024628Y-123854972D01*
X66024628Y-123854972D02*
X66072247Y-123950210D01*
X66072247Y-123950210D02*
X66072247Y-124140686D01*
X66072247Y-124140686D02*
X66024628Y-124235924D01*
X65453200Y-123807353D02*
X65405580Y-123902591D01*
X65405580Y-123902591D02*
X65405580Y-124140686D01*
X65405580Y-124140686D02*
X65453200Y-124235924D01*
X65453200Y-124235924D02*
X65548438Y-124283543D01*
X65548438Y-124283543D02*
X65643676Y-124283543D01*
X65643676Y-124283543D02*
X65738914Y-124235924D01*
X65738914Y-124235924D02*
X65786533Y-124140686D01*
X65786533Y-124140686D02*
X65786533Y-123902591D01*
X65786533Y-123902591D02*
X65834152Y-123807353D01*
X66072247Y-123474019D02*
X66072247Y-123093067D01*
X66405580Y-123331162D02*
X65548438Y-123331162D01*
X65548438Y-123331162D02*
X65453200Y-123283543D01*
X65453200Y-123283543D02*
X65405580Y-123188305D01*
X65405580Y-123188305D02*
X65405580Y-123093067D01*
X66072247Y-122902590D02*
X66072247Y-122521638D01*
X66405580Y-122759733D02*
X65548438Y-122759733D01*
X65548438Y-122759733D02*
X65453200Y-122712114D01*
X65453200Y-122712114D02*
X65405580Y-122616876D01*
X65405580Y-122616876D02*
X65405580Y-122521638D01*
X65453200Y-121807352D02*
X65405580Y-121902590D01*
X65405580Y-121902590D02*
X65405580Y-122093066D01*
X65405580Y-122093066D02*
X65453200Y-122188304D01*
X65453200Y-122188304D02*
X65548438Y-122235923D01*
X65548438Y-122235923D02*
X65929390Y-122235923D01*
X65929390Y-122235923D02*
X66024628Y-122188304D01*
X66024628Y-122188304D02*
X66072247Y-122093066D01*
X66072247Y-122093066D02*
X66072247Y-121902590D01*
X66072247Y-121902590D02*
X66024628Y-121807352D01*
X66024628Y-121807352D02*
X65929390Y-121759733D01*
X65929390Y-121759733D02*
X65834152Y-121759733D01*
X65834152Y-121759733D02*
X65738914Y-122235923D01*
X65405580Y-121331161D02*
X66072247Y-121331161D01*
X65881771Y-121331161D02*
X65977009Y-121283542D01*
X65977009Y-121283542D02*
X66024628Y-121235923D01*
X66024628Y-121235923D02*
X66072247Y-121140685D01*
X66072247Y-121140685D02*
X66072247Y-121045447D01*
X66072247Y-120807351D02*
X65405580Y-120569256D01*
X66072247Y-120331161D02*
X65405580Y-120569256D01*
X65405580Y-120569256D02*
X65167485Y-120664494D01*
X65167485Y-120664494D02*
X65119866Y-120712113D01*
X65119866Y-120712113D02*
X65072247Y-120807351D01*
X102534401Y-135270419D02*
X102534401Y-135984704D01*
X102534401Y-135984704D02*
X102582020Y-136127561D01*
X102582020Y-136127561D02*
X102677258Y-136222800D01*
X102677258Y-136222800D02*
X102820115Y-136270419D01*
X102820115Y-136270419D02*
X102915353Y-136270419D01*
X102153448Y-135270419D02*
X101534401Y-135270419D01*
X101534401Y-135270419D02*
X101867734Y-135651371D01*
X101867734Y-135651371D02*
X101724877Y-135651371D01*
X101724877Y-135651371D02*
X101629639Y-135698990D01*
X101629639Y-135698990D02*
X101582020Y-135746609D01*
X101582020Y-135746609D02*
X101534401Y-135841847D01*
X101534401Y-135841847D02*
X101534401Y-136079942D01*
X101534401Y-136079942D02*
X101582020Y-136175180D01*
X101582020Y-136175180D02*
X101629639Y-136222800D01*
X101629639Y-136222800D02*
X101724877Y-136270419D01*
X101724877Y-136270419D02*
X102010591Y-136270419D01*
X102010591Y-136270419D02*
X102105829Y-136222800D01*
X102105829Y-136222800D02*
X102153448Y-136175180D01*
X100343924Y-136270419D02*
X100343924Y-135270419D01*
X100343924Y-135270419D02*
X100010591Y-135984704D01*
X100010591Y-135984704D02*
X99677258Y-135270419D01*
X99677258Y-135270419D02*
X99677258Y-136270419D01*
X99058210Y-136270419D02*
X99153448Y-136222800D01*
X99153448Y-136222800D02*
X99201067Y-136175180D01*
X99201067Y-136175180D02*
X99248686Y-136079942D01*
X99248686Y-136079942D02*
X99248686Y-135794228D01*
X99248686Y-135794228D02*
X99201067Y-135698990D01*
X99201067Y-135698990D02*
X99153448Y-135651371D01*
X99153448Y-135651371D02*
X99058210Y-135603752D01*
X99058210Y-135603752D02*
X98915353Y-135603752D01*
X98915353Y-135603752D02*
X98820115Y-135651371D01*
X98820115Y-135651371D02*
X98772496Y-135698990D01*
X98772496Y-135698990D02*
X98724877Y-135794228D01*
X98724877Y-135794228D02*
X98724877Y-136079942D01*
X98724877Y-136079942D02*
X98772496Y-136175180D01*
X98772496Y-136175180D02*
X98820115Y-136222800D01*
X98820115Y-136222800D02*
X98915353Y-136270419D01*
X98915353Y-136270419D02*
X99058210Y-136270419D01*
X98439162Y-135603752D02*
X98058210Y-135603752D01*
X98296305Y-135270419D02*
X98296305Y-136127561D01*
X98296305Y-136127561D02*
X98248686Y-136222800D01*
X98248686Y-136222800D02*
X98153448Y-136270419D01*
X98153448Y-136270419D02*
X98058210Y-136270419D01*
X97582019Y-136270419D02*
X97677257Y-136222800D01*
X97677257Y-136222800D02*
X97724876Y-136175180D01*
X97724876Y-136175180D02*
X97772495Y-136079942D01*
X97772495Y-136079942D02*
X97772495Y-135794228D01*
X97772495Y-135794228D02*
X97724876Y-135698990D01*
X97724876Y-135698990D02*
X97677257Y-135651371D01*
X97677257Y-135651371D02*
X97582019Y-135603752D01*
X97582019Y-135603752D02*
X97439162Y-135603752D01*
X97439162Y-135603752D02*
X97343924Y-135651371D01*
X97343924Y-135651371D02*
X97296305Y-135698990D01*
X97296305Y-135698990D02*
X97248686Y-135794228D01*
X97248686Y-135794228D02*
X97248686Y-136079942D01*
X97248686Y-136079942D02*
X97296305Y-136175180D01*
X97296305Y-136175180D02*
X97343924Y-136222800D01*
X97343924Y-136222800D02*
X97439162Y-136270419D01*
X97439162Y-136270419D02*
X97582019Y-136270419D01*
X96820114Y-136270419D02*
X96820114Y-135603752D01*
X96820114Y-135794228D02*
X96772495Y-135698990D01*
X96772495Y-135698990D02*
X96724876Y-135651371D01*
X96724876Y-135651371D02*
X96629638Y-135603752D01*
X96629638Y-135603752D02*
X96534400Y-135603752D01*
X88310401Y-134508419D02*
X88310401Y-135222704D01*
X88310401Y-135222704D02*
X88358020Y-135365561D01*
X88358020Y-135365561D02*
X88453258Y-135460800D01*
X88453258Y-135460800D02*
X88596115Y-135508419D01*
X88596115Y-135508419D02*
X88691353Y-135508419D01*
X87881829Y-134603657D02*
X87834210Y-134556038D01*
X87834210Y-134556038D02*
X87738972Y-134508419D01*
X87738972Y-134508419D02*
X87500877Y-134508419D01*
X87500877Y-134508419D02*
X87405639Y-134556038D01*
X87405639Y-134556038D02*
X87358020Y-134603657D01*
X87358020Y-134603657D02*
X87310401Y-134698895D01*
X87310401Y-134698895D02*
X87310401Y-134794133D01*
X87310401Y-134794133D02*
X87358020Y-134936990D01*
X87358020Y-134936990D02*
X87929448Y-135508419D01*
X87929448Y-135508419D02*
X87310401Y-135508419D01*
X86215162Y-134508419D02*
X85977067Y-135508419D01*
X85977067Y-135508419D02*
X85786591Y-134794133D01*
X85786591Y-134794133D02*
X85596115Y-135508419D01*
X85596115Y-135508419D02*
X85358020Y-134508419D01*
X84977067Y-135508419D02*
X84977067Y-134841752D01*
X84977067Y-134508419D02*
X85024686Y-134556038D01*
X85024686Y-134556038D02*
X84977067Y-134603657D01*
X84977067Y-134603657D02*
X84929448Y-134556038D01*
X84929448Y-134556038D02*
X84977067Y-134508419D01*
X84977067Y-134508419D02*
X84977067Y-134603657D01*
X84500877Y-134841752D02*
X84500877Y-135508419D01*
X84500877Y-134936990D02*
X84453258Y-134889371D01*
X84453258Y-134889371D02*
X84358020Y-134841752D01*
X84358020Y-134841752D02*
X84215163Y-134841752D01*
X84215163Y-134841752D02*
X84119925Y-134889371D01*
X84119925Y-134889371D02*
X84072306Y-134984609D01*
X84072306Y-134984609D02*
X84072306Y-135508419D01*
X83167544Y-135460800D02*
X83262782Y-135508419D01*
X83262782Y-135508419D02*
X83453258Y-135508419D01*
X83453258Y-135508419D02*
X83548496Y-135460800D01*
X83548496Y-135460800D02*
X83596115Y-135413180D01*
X83596115Y-135413180D02*
X83643734Y-135317942D01*
X83643734Y-135317942D02*
X83643734Y-135032228D01*
X83643734Y-135032228D02*
X83596115Y-134936990D01*
X83596115Y-134936990D02*
X83548496Y-134889371D01*
X83548496Y-134889371D02*
X83453258Y-134841752D01*
X83453258Y-134841752D02*
X83262782Y-134841752D01*
X83262782Y-134841752D02*
X83167544Y-134889371D01*
X82738972Y-135508419D02*
X82738972Y-134508419D01*
X82310401Y-135508419D02*
X82310401Y-134984609D01*
X82310401Y-134984609D02*
X82358020Y-134889371D01*
X82358020Y-134889371D02*
X82453258Y-134841752D01*
X82453258Y-134841752D02*
X82596115Y-134841752D01*
X82596115Y-134841752D02*
X82691353Y-134889371D01*
X82691353Y-134889371D02*
X82738972Y-134936990D01*
X81072305Y-135508419D02*
X81072305Y-134508419D01*
X81072305Y-134508419D02*
X80691353Y-134508419D01*
X80691353Y-134508419D02*
X80596115Y-134556038D01*
X80596115Y-134556038D02*
X80548496Y-134603657D01*
X80548496Y-134603657D02*
X80500877Y-134698895D01*
X80500877Y-134698895D02*
X80500877Y-134841752D01*
X80500877Y-134841752D02*
X80548496Y-134936990D01*
X80548496Y-134936990D02*
X80596115Y-134984609D01*
X80596115Y-134984609D02*
X80691353Y-135032228D01*
X80691353Y-135032228D02*
X81072305Y-135032228D01*
X79929448Y-135508419D02*
X80024686Y-135460800D01*
X80024686Y-135460800D02*
X80072305Y-135413180D01*
X80072305Y-135413180D02*
X80119924Y-135317942D01*
X80119924Y-135317942D02*
X80119924Y-135032228D01*
X80119924Y-135032228D02*
X80072305Y-134936990D01*
X80072305Y-134936990D02*
X80024686Y-134889371D01*
X80024686Y-134889371D02*
X79929448Y-134841752D01*
X79929448Y-134841752D02*
X79786591Y-134841752D01*
X79786591Y-134841752D02*
X79691353Y-134889371D01*
X79691353Y-134889371D02*
X79643734Y-134936990D01*
X79643734Y-134936990D02*
X79596115Y-135032228D01*
X79596115Y-135032228D02*
X79596115Y-135317942D01*
X79596115Y-135317942D02*
X79643734Y-135413180D01*
X79643734Y-135413180D02*
X79691353Y-135460800D01*
X79691353Y-135460800D02*
X79786591Y-135508419D01*
X79786591Y-135508419D02*
X79929448Y-135508419D01*
X79262781Y-134841752D02*
X79072305Y-135508419D01*
X79072305Y-135508419D02*
X78881829Y-135032228D01*
X78881829Y-135032228D02*
X78691353Y-135508419D01*
X78691353Y-135508419D02*
X78500877Y-134841752D01*
X77738972Y-135460800D02*
X77834210Y-135508419D01*
X77834210Y-135508419D02*
X78024686Y-135508419D01*
X78024686Y-135508419D02*
X78119924Y-135460800D01*
X78119924Y-135460800D02*
X78167543Y-135365561D01*
X78167543Y-135365561D02*
X78167543Y-134984609D01*
X78167543Y-134984609D02*
X78119924Y-134889371D01*
X78119924Y-134889371D02*
X78024686Y-134841752D01*
X78024686Y-134841752D02*
X77834210Y-134841752D01*
X77834210Y-134841752D02*
X77738972Y-134889371D01*
X77738972Y-134889371D02*
X77691353Y-134984609D01*
X77691353Y-134984609D02*
X77691353Y-135079847D01*
X77691353Y-135079847D02*
X78167543Y-135175085D01*
X77262781Y-135508419D02*
X77262781Y-134841752D01*
X77262781Y-135032228D02*
X77215162Y-134936990D01*
X77215162Y-134936990D02*
X77167543Y-134889371D01*
X77167543Y-134889371D02*
X77072305Y-134841752D01*
X77072305Y-134841752D02*
X76977067Y-134841752D01*
X90637524Y-55322115D02*
X91637524Y-55322115D01*
X90637524Y-54750687D02*
X91208953Y-55179258D01*
X91637524Y-54750687D02*
X91066096Y-55322115D01*
X90637524Y-53798306D02*
X90637524Y-54369734D01*
X90637524Y-54084020D02*
X91637524Y-54084020D01*
X91637524Y-54084020D02*
X91494667Y-54179258D01*
X91494667Y-54179258D02*
X91399429Y-54274496D01*
X91399429Y-54274496D02*
X91351810Y-54369734D01*
X90685144Y-52179258D02*
X90637524Y-52274496D01*
X90637524Y-52274496D02*
X90637524Y-52464972D01*
X90637524Y-52464972D02*
X90685144Y-52560210D01*
X90685144Y-52560210D02*
X90732763Y-52607829D01*
X90732763Y-52607829D02*
X90828001Y-52655448D01*
X90828001Y-52655448D02*
X91113715Y-52655448D01*
X91113715Y-52655448D02*
X91208953Y-52607829D01*
X91208953Y-52607829D02*
X91256572Y-52560210D01*
X91256572Y-52560210D02*
X91304191Y-52464972D01*
X91304191Y-52464972D02*
X91304191Y-52274496D01*
X91304191Y-52274496D02*
X91256572Y-52179258D01*
X90637524Y-51607829D02*
X90685144Y-51703067D01*
X90685144Y-51703067D02*
X90732763Y-51750686D01*
X90732763Y-51750686D02*
X90828001Y-51798305D01*
X90828001Y-51798305D02*
X91113715Y-51798305D01*
X91113715Y-51798305D02*
X91208953Y-51750686D01*
X91208953Y-51750686D02*
X91256572Y-51703067D01*
X91256572Y-51703067D02*
X91304191Y-51607829D01*
X91304191Y-51607829D02*
X91304191Y-51464972D01*
X91304191Y-51464972D02*
X91256572Y-51369734D01*
X91256572Y-51369734D02*
X91208953Y-51322115D01*
X91208953Y-51322115D02*
X91113715Y-51274496D01*
X91113715Y-51274496D02*
X90828001Y-51274496D01*
X90828001Y-51274496D02*
X90732763Y-51322115D01*
X90732763Y-51322115D02*
X90685144Y-51369734D01*
X90685144Y-51369734D02*
X90637524Y-51464972D01*
X90637524Y-51464972D02*
X90637524Y-51607829D01*
X90637524Y-50845924D02*
X91304191Y-50845924D01*
X91208953Y-50845924D02*
X91256572Y-50798305D01*
X91256572Y-50798305D02*
X91304191Y-50703067D01*
X91304191Y-50703067D02*
X91304191Y-50560210D01*
X91304191Y-50560210D02*
X91256572Y-50464972D01*
X91256572Y-50464972D02*
X91161334Y-50417353D01*
X91161334Y-50417353D02*
X90637524Y-50417353D01*
X91161334Y-50417353D02*
X91256572Y-50369734D01*
X91256572Y-50369734D02*
X91304191Y-50274496D01*
X91304191Y-50274496D02*
X91304191Y-50131639D01*
X91304191Y-50131639D02*
X91256572Y-50036400D01*
X91256572Y-50036400D02*
X91161334Y-49988781D01*
X91161334Y-49988781D02*
X90637524Y-49988781D01*
X89694247Y-55322115D02*
X88694247Y-55322115D01*
X89646628Y-55322115D02*
X89694247Y-55226877D01*
X89694247Y-55226877D02*
X89694247Y-55036401D01*
X89694247Y-55036401D02*
X89646628Y-54941163D01*
X89646628Y-54941163D02*
X89599009Y-54893544D01*
X89599009Y-54893544D02*
X89503771Y-54845925D01*
X89503771Y-54845925D02*
X89218057Y-54845925D01*
X89218057Y-54845925D02*
X89122819Y-54893544D01*
X89122819Y-54893544D02*
X89075200Y-54941163D01*
X89075200Y-54941163D02*
X89027580Y-55036401D01*
X89027580Y-55036401D02*
X89027580Y-55226877D01*
X89027580Y-55226877D02*
X89075200Y-55322115D01*
X89027580Y-54417353D02*
X89694247Y-54417353D01*
X90027580Y-54417353D02*
X89979961Y-54464972D01*
X89979961Y-54464972D02*
X89932342Y-54417353D01*
X89932342Y-54417353D02*
X89979961Y-54369734D01*
X89979961Y-54369734D02*
X90027580Y-54417353D01*
X90027580Y-54417353D02*
X89932342Y-54417353D01*
X89694247Y-53941163D02*
X89027580Y-53941163D01*
X89599009Y-53941163D02*
X89646628Y-53893544D01*
X89646628Y-53893544D02*
X89694247Y-53798306D01*
X89694247Y-53798306D02*
X89694247Y-53655449D01*
X89694247Y-53655449D02*
X89646628Y-53560211D01*
X89646628Y-53560211D02*
X89551390Y-53512592D01*
X89551390Y-53512592D02*
X89027580Y-53512592D01*
X90027580Y-52369734D02*
X90027580Y-51750687D01*
X90027580Y-51750687D02*
X89646628Y-52084020D01*
X89646628Y-52084020D02*
X89646628Y-51941163D01*
X89646628Y-51941163D02*
X89599009Y-51845925D01*
X89599009Y-51845925D02*
X89551390Y-51798306D01*
X89551390Y-51798306D02*
X89456152Y-51750687D01*
X89456152Y-51750687D02*
X89218057Y-51750687D01*
X89218057Y-51750687D02*
X89122819Y-51798306D01*
X89122819Y-51798306D02*
X89075200Y-51845925D01*
X89075200Y-51845925D02*
X89027580Y-51941163D01*
X89027580Y-51941163D02*
X89027580Y-52226877D01*
X89027580Y-52226877D02*
X89075200Y-52322115D01*
X89075200Y-52322115D02*
X89122819Y-52369734D01*
X90027580Y-51131639D02*
X90027580Y-51036401D01*
X90027580Y-51036401D02*
X89979961Y-50941163D01*
X89979961Y-50941163D02*
X89932342Y-50893544D01*
X89932342Y-50893544D02*
X89837104Y-50845925D01*
X89837104Y-50845925D02*
X89646628Y-50798306D01*
X89646628Y-50798306D02*
X89408533Y-50798306D01*
X89408533Y-50798306D02*
X89218057Y-50845925D01*
X89218057Y-50845925D02*
X89122819Y-50893544D01*
X89122819Y-50893544D02*
X89075200Y-50941163D01*
X89075200Y-50941163D02*
X89027580Y-51036401D01*
X89027580Y-51036401D02*
X89027580Y-51131639D01*
X89027580Y-51131639D02*
X89075200Y-51226877D01*
X89075200Y-51226877D02*
X89122819Y-51274496D01*
X89122819Y-51274496D02*
X89218057Y-51322115D01*
X89218057Y-51322115D02*
X89408533Y-51369734D01*
X89408533Y-51369734D02*
X89646628Y-51369734D01*
X89646628Y-51369734D02*
X89837104Y-51322115D01*
X89837104Y-51322115D02*
X89932342Y-51274496D01*
X89932342Y-51274496D02*
X89979961Y-51226877D01*
X89979961Y-51226877D02*
X90027580Y-51131639D01*
X108884401Y-138572419D02*
X108884401Y-139286704D01*
X108884401Y-139286704D02*
X108932020Y-139429561D01*
X108932020Y-139429561D02*
X109027258Y-139524800D01*
X109027258Y-139524800D02*
X109170115Y-139572419D01*
X109170115Y-139572419D02*
X109265353Y-139572419D01*
X107979639Y-138905752D02*
X107979639Y-139572419D01*
X108217734Y-138524800D02*
X108455829Y-139239085D01*
X108455829Y-139239085D02*
X107836782Y-139239085D01*
X106122496Y-139477180D02*
X106170115Y-139524800D01*
X106170115Y-139524800D02*
X106312972Y-139572419D01*
X106312972Y-139572419D02*
X106408210Y-139572419D01*
X106408210Y-139572419D02*
X106551067Y-139524800D01*
X106551067Y-139524800D02*
X106646305Y-139429561D01*
X106646305Y-139429561D02*
X106693924Y-139334323D01*
X106693924Y-139334323D02*
X106741543Y-139143847D01*
X106741543Y-139143847D02*
X106741543Y-139000990D01*
X106741543Y-139000990D02*
X106693924Y-138810514D01*
X106693924Y-138810514D02*
X106646305Y-138715276D01*
X106646305Y-138715276D02*
X106551067Y-138620038D01*
X106551067Y-138620038D02*
X106408210Y-138572419D01*
X106408210Y-138572419D02*
X106312972Y-138572419D01*
X106312972Y-138572419D02*
X106170115Y-138620038D01*
X106170115Y-138620038D02*
X106122496Y-138667657D01*
X105551067Y-139572419D02*
X105646305Y-139524800D01*
X105646305Y-139524800D02*
X105693924Y-139477180D01*
X105693924Y-139477180D02*
X105741543Y-139381942D01*
X105741543Y-139381942D02*
X105741543Y-139096228D01*
X105741543Y-139096228D02*
X105693924Y-139000990D01*
X105693924Y-139000990D02*
X105646305Y-138953371D01*
X105646305Y-138953371D02*
X105551067Y-138905752D01*
X105551067Y-138905752D02*
X105408210Y-138905752D01*
X105408210Y-138905752D02*
X105312972Y-138953371D01*
X105312972Y-138953371D02*
X105265353Y-139000990D01*
X105265353Y-139000990D02*
X105217734Y-139096228D01*
X105217734Y-139096228D02*
X105217734Y-139381942D01*
X105217734Y-139381942D02*
X105265353Y-139477180D01*
X105265353Y-139477180D02*
X105312972Y-139524800D01*
X105312972Y-139524800D02*
X105408210Y-139572419D01*
X105408210Y-139572419D02*
X105551067Y-139572419D01*
X104789162Y-138905752D02*
X104789162Y-139572419D01*
X104789162Y-139000990D02*
X104741543Y-138953371D01*
X104741543Y-138953371D02*
X104646305Y-138905752D01*
X104646305Y-138905752D02*
X104503448Y-138905752D01*
X104503448Y-138905752D02*
X104408210Y-138953371D01*
X104408210Y-138953371D02*
X104360591Y-139048609D01*
X104360591Y-139048609D02*
X104360591Y-139572419D01*
X104027257Y-138905752D02*
X103646305Y-138905752D01*
X103884400Y-138572419D02*
X103884400Y-139429561D01*
X103884400Y-139429561D02*
X103836781Y-139524800D01*
X103836781Y-139524800D02*
X103741543Y-139572419D01*
X103741543Y-139572419D02*
X103646305Y-139572419D01*
X103312971Y-139572419D02*
X103312971Y-138905752D01*
X103312971Y-139096228D02*
X103265352Y-139000990D01*
X103265352Y-139000990D02*
X103217733Y-138953371D01*
X103217733Y-138953371D02*
X103122495Y-138905752D01*
X103122495Y-138905752D02*
X103027257Y-138905752D01*
X102551066Y-139572419D02*
X102646304Y-139524800D01*
X102646304Y-139524800D02*
X102693923Y-139477180D01*
X102693923Y-139477180D02*
X102741542Y-139381942D01*
X102741542Y-139381942D02*
X102741542Y-139096228D01*
X102741542Y-139096228D02*
X102693923Y-139000990D01*
X102693923Y-139000990D02*
X102646304Y-138953371D01*
X102646304Y-138953371D02*
X102551066Y-138905752D01*
X102551066Y-138905752D02*
X102408209Y-138905752D01*
X102408209Y-138905752D02*
X102312971Y-138953371D01*
X102312971Y-138953371D02*
X102265352Y-139000990D01*
X102265352Y-139000990D02*
X102217733Y-139096228D01*
X102217733Y-139096228D02*
X102217733Y-139381942D01*
X102217733Y-139381942D02*
X102265352Y-139477180D01*
X102265352Y-139477180D02*
X102312971Y-139524800D01*
X102312971Y-139524800D02*
X102408209Y-139572419D01*
X102408209Y-139572419D02*
X102551066Y-139572419D01*
X101646304Y-139572419D02*
X101741542Y-139524800D01*
X101741542Y-139524800D02*
X101789161Y-139429561D01*
X101789161Y-139429561D02*
X101789161Y-138572419D01*
X101122494Y-139572419D02*
X101217732Y-139524800D01*
X101217732Y-139524800D02*
X101265351Y-139429561D01*
X101265351Y-139429561D02*
X101265351Y-138572419D01*
X100360589Y-139524800D02*
X100455827Y-139572419D01*
X100455827Y-139572419D02*
X100646303Y-139572419D01*
X100646303Y-139572419D02*
X100741541Y-139524800D01*
X100741541Y-139524800D02*
X100789160Y-139429561D01*
X100789160Y-139429561D02*
X100789160Y-139048609D01*
X100789160Y-139048609D02*
X100741541Y-138953371D01*
X100741541Y-138953371D02*
X100646303Y-138905752D01*
X100646303Y-138905752D02*
X100455827Y-138905752D01*
X100455827Y-138905752D02*
X100360589Y-138953371D01*
X100360589Y-138953371D02*
X100312970Y-139048609D01*
X100312970Y-139048609D02*
X100312970Y-139143847D01*
X100312970Y-139143847D02*
X100789160Y-139239085D01*
X99884398Y-139572419D02*
X99884398Y-138905752D01*
X99884398Y-139096228D02*
X99836779Y-139000990D01*
X99836779Y-139000990D02*
X99789160Y-138953371D01*
X99789160Y-138953371D02*
X99693922Y-138905752D01*
X99693922Y-138905752D02*
X99598684Y-138905752D01*
X98312969Y-138572419D02*
X98122493Y-138572419D01*
X98122493Y-138572419D02*
X98027255Y-138620038D01*
X98027255Y-138620038D02*
X97932017Y-138715276D01*
X97932017Y-138715276D02*
X97884398Y-138905752D01*
X97884398Y-138905752D02*
X97884398Y-139239085D01*
X97884398Y-139239085D02*
X97932017Y-139429561D01*
X97932017Y-139429561D02*
X98027255Y-139524800D01*
X98027255Y-139524800D02*
X98122493Y-139572419D01*
X98122493Y-139572419D02*
X98312969Y-139572419D01*
X98312969Y-139572419D02*
X98408207Y-139524800D01*
X98408207Y-139524800D02*
X98503445Y-139429561D01*
X98503445Y-139429561D02*
X98551064Y-139239085D01*
X98551064Y-139239085D02*
X98551064Y-138905752D01*
X98551064Y-138905752D02*
X98503445Y-138715276D01*
X98503445Y-138715276D02*
X98408207Y-138620038D01*
X98408207Y-138620038D02*
X98312969Y-138572419D01*
X97027255Y-138905752D02*
X97027255Y-139572419D01*
X97455826Y-138905752D02*
X97455826Y-139429561D01*
X97455826Y-139429561D02*
X97408207Y-139524800D01*
X97408207Y-139524800D02*
X97312969Y-139572419D01*
X97312969Y-139572419D02*
X97170112Y-139572419D01*
X97170112Y-139572419D02*
X97074874Y-139524800D01*
X97074874Y-139524800D02*
X97027255Y-139477180D01*
X96693921Y-138905752D02*
X96312969Y-138905752D01*
X96551064Y-138572419D02*
X96551064Y-139429561D01*
X96551064Y-139429561D02*
X96503445Y-139524800D01*
X96503445Y-139524800D02*
X96408207Y-139572419D01*
X96408207Y-139572419D02*
X96312969Y-139572419D01*
X95979635Y-138905752D02*
X95979635Y-139905752D01*
X95979635Y-138953371D02*
X95884397Y-138905752D01*
X95884397Y-138905752D02*
X95693921Y-138905752D01*
X95693921Y-138905752D02*
X95598683Y-138953371D01*
X95598683Y-138953371D02*
X95551064Y-139000990D01*
X95551064Y-139000990D02*
X95503445Y-139096228D01*
X95503445Y-139096228D02*
X95503445Y-139381942D01*
X95503445Y-139381942D02*
X95551064Y-139477180D01*
X95551064Y-139477180D02*
X95598683Y-139524800D01*
X95598683Y-139524800D02*
X95693921Y-139572419D01*
X95693921Y-139572419D02*
X95884397Y-139572419D01*
X95884397Y-139572419D02*
X95979635Y-139524800D01*
X94646302Y-138905752D02*
X94646302Y-139572419D01*
X95074873Y-138905752D02*
X95074873Y-139429561D01*
X95074873Y-139429561D02*
X95027254Y-139524800D01*
X95027254Y-139524800D02*
X94932016Y-139572419D01*
X94932016Y-139572419D02*
X94789159Y-139572419D01*
X94789159Y-139572419D02*
X94693921Y-139524800D01*
X94693921Y-139524800D02*
X94646302Y-139477180D01*
X94312968Y-138905752D02*
X93932016Y-138905752D01*
X94170111Y-138572419D02*
X94170111Y-139429561D01*
X94170111Y-139429561D02*
X94122492Y-139524800D01*
X94122492Y-139524800D02*
X94027254Y-139572419D01*
X94027254Y-139572419D02*
X93932016Y-139572419D01*
X88605524Y-64720115D02*
X89605524Y-64720115D01*
X88605524Y-64148687D02*
X89176953Y-64577258D01*
X89605524Y-64148687D02*
X89034096Y-64720115D01*
X89510286Y-63767734D02*
X89557905Y-63720115D01*
X89557905Y-63720115D02*
X89605524Y-63624877D01*
X89605524Y-63624877D02*
X89605524Y-63386782D01*
X89605524Y-63386782D02*
X89557905Y-63291544D01*
X89557905Y-63291544D02*
X89510286Y-63243925D01*
X89510286Y-63243925D02*
X89415048Y-63196306D01*
X89415048Y-63196306D02*
X89319810Y-63196306D01*
X89319810Y-63196306D02*
X89176953Y-63243925D01*
X89176953Y-63243925D02*
X88605524Y-63815353D01*
X88605524Y-63815353D02*
X88605524Y-63196306D01*
X88605524Y-62005829D02*
X89605524Y-62005829D01*
X89605524Y-62005829D02*
X88605524Y-61434401D01*
X88605524Y-61434401D02*
X89605524Y-61434401D01*
X88700763Y-60386782D02*
X88653144Y-60434401D01*
X88653144Y-60434401D02*
X88605524Y-60577258D01*
X88605524Y-60577258D02*
X88605524Y-60672496D01*
X88605524Y-60672496D02*
X88653144Y-60815353D01*
X88653144Y-60815353D02*
X88748382Y-60910591D01*
X88748382Y-60910591D02*
X88843620Y-60958210D01*
X88843620Y-60958210D02*
X89034096Y-61005829D01*
X89034096Y-61005829D02*
X89176953Y-61005829D01*
X89176953Y-61005829D02*
X89367429Y-60958210D01*
X89367429Y-60958210D02*
X89462667Y-60910591D01*
X89462667Y-60910591D02*
X89557905Y-60815353D01*
X89557905Y-60815353D02*
X89605524Y-60672496D01*
X89605524Y-60672496D02*
X89605524Y-60577258D01*
X89605524Y-60577258D02*
X89557905Y-60434401D01*
X89557905Y-60434401D02*
X89510286Y-60386782D01*
X87662247Y-64720115D02*
X86662247Y-64720115D01*
X87614628Y-64720115D02*
X87662247Y-64624877D01*
X87662247Y-64624877D02*
X87662247Y-64434401D01*
X87662247Y-64434401D02*
X87614628Y-64339163D01*
X87614628Y-64339163D02*
X87567009Y-64291544D01*
X87567009Y-64291544D02*
X87471771Y-64243925D01*
X87471771Y-64243925D02*
X87186057Y-64243925D01*
X87186057Y-64243925D02*
X87090819Y-64291544D01*
X87090819Y-64291544D02*
X87043200Y-64339163D01*
X87043200Y-64339163D02*
X86995580Y-64434401D01*
X86995580Y-64434401D02*
X86995580Y-64624877D01*
X86995580Y-64624877D02*
X87043200Y-64720115D01*
X86995580Y-63815353D02*
X87662247Y-63815353D01*
X87995580Y-63815353D02*
X87947961Y-63862972D01*
X87947961Y-63862972D02*
X87900342Y-63815353D01*
X87900342Y-63815353D02*
X87947961Y-63767734D01*
X87947961Y-63767734D02*
X87995580Y-63815353D01*
X87995580Y-63815353D02*
X87900342Y-63815353D01*
X87662247Y-63339163D02*
X86995580Y-63339163D01*
X87567009Y-63339163D02*
X87614628Y-63291544D01*
X87614628Y-63291544D02*
X87662247Y-63196306D01*
X87662247Y-63196306D02*
X87662247Y-63053449D01*
X87662247Y-63053449D02*
X87614628Y-62958211D01*
X87614628Y-62958211D02*
X87519390Y-62910592D01*
X87519390Y-62910592D02*
X86995580Y-62910592D01*
X87567009Y-61529639D02*
X87614628Y-61624877D01*
X87614628Y-61624877D02*
X87662247Y-61672496D01*
X87662247Y-61672496D02*
X87757485Y-61720115D01*
X87757485Y-61720115D02*
X87805104Y-61720115D01*
X87805104Y-61720115D02*
X87900342Y-61672496D01*
X87900342Y-61672496D02*
X87947961Y-61624877D01*
X87947961Y-61624877D02*
X87995580Y-61529639D01*
X87995580Y-61529639D02*
X87995580Y-61339163D01*
X87995580Y-61339163D02*
X87947961Y-61243925D01*
X87947961Y-61243925D02*
X87900342Y-61196306D01*
X87900342Y-61196306D02*
X87805104Y-61148687D01*
X87805104Y-61148687D02*
X87757485Y-61148687D01*
X87757485Y-61148687D02*
X87662247Y-61196306D01*
X87662247Y-61196306D02*
X87614628Y-61243925D01*
X87614628Y-61243925D02*
X87567009Y-61339163D01*
X87567009Y-61339163D02*
X87567009Y-61529639D01*
X87567009Y-61529639D02*
X87519390Y-61624877D01*
X87519390Y-61624877D02*
X87471771Y-61672496D01*
X87471771Y-61672496D02*
X87376533Y-61720115D01*
X87376533Y-61720115D02*
X87186057Y-61720115D01*
X87186057Y-61720115D02*
X87090819Y-61672496D01*
X87090819Y-61672496D02*
X87043200Y-61624877D01*
X87043200Y-61624877D02*
X86995580Y-61529639D01*
X86995580Y-61529639D02*
X86995580Y-61339163D01*
X86995580Y-61339163D02*
X87043200Y-61243925D01*
X87043200Y-61243925D02*
X87090819Y-61196306D01*
X87090819Y-61196306D02*
X87186057Y-61148687D01*
X87186057Y-61148687D02*
X87376533Y-61148687D01*
X87376533Y-61148687D02*
X87471771Y-61196306D01*
X87471771Y-61196306D02*
X87519390Y-61243925D01*
X87519390Y-61243925D02*
X87567009Y-61339163D01*
X87995580Y-60815353D02*
X87995580Y-60148687D01*
X87995580Y-60148687D02*
X86995580Y-60577258D01*
X87281295Y-59815353D02*
X87281295Y-59339163D01*
X86995580Y-59910591D02*
X87995580Y-59577258D01*
X87995580Y-59577258D02*
X86995580Y-59243925D01*
X85008401Y-120960475D02*
X85008401Y-121674760D01*
X85008401Y-121674760D02*
X85056020Y-121817617D01*
X85056020Y-121817617D02*
X85151258Y-121912856D01*
X85151258Y-121912856D02*
X85294115Y-121960475D01*
X85294115Y-121960475D02*
X85389353Y-121960475D01*
X84103639Y-121293808D02*
X84103639Y-121960475D01*
X84341734Y-120912856D02*
X84579829Y-121627141D01*
X84579829Y-121627141D02*
X83960782Y-121627141D01*
X82246496Y-121865236D02*
X82294115Y-121912856D01*
X82294115Y-121912856D02*
X82436972Y-121960475D01*
X82436972Y-121960475D02*
X82532210Y-121960475D01*
X82532210Y-121960475D02*
X82675067Y-121912856D01*
X82675067Y-121912856D02*
X82770305Y-121817617D01*
X82770305Y-121817617D02*
X82817924Y-121722379D01*
X82817924Y-121722379D02*
X82865543Y-121531903D01*
X82865543Y-121531903D02*
X82865543Y-121389046D01*
X82865543Y-121389046D02*
X82817924Y-121198570D01*
X82817924Y-121198570D02*
X82770305Y-121103332D01*
X82770305Y-121103332D02*
X82675067Y-121008094D01*
X82675067Y-121008094D02*
X82532210Y-120960475D01*
X82532210Y-120960475D02*
X82436972Y-120960475D01*
X82436972Y-120960475D02*
X82294115Y-121008094D01*
X82294115Y-121008094D02*
X82246496Y-121055713D01*
X81675067Y-121960475D02*
X81770305Y-121912856D01*
X81770305Y-121912856D02*
X81817924Y-121865236D01*
X81817924Y-121865236D02*
X81865543Y-121769998D01*
X81865543Y-121769998D02*
X81865543Y-121484284D01*
X81865543Y-121484284D02*
X81817924Y-121389046D01*
X81817924Y-121389046D02*
X81770305Y-121341427D01*
X81770305Y-121341427D02*
X81675067Y-121293808D01*
X81675067Y-121293808D02*
X81532210Y-121293808D01*
X81532210Y-121293808D02*
X81436972Y-121341427D01*
X81436972Y-121341427D02*
X81389353Y-121389046D01*
X81389353Y-121389046D02*
X81341734Y-121484284D01*
X81341734Y-121484284D02*
X81341734Y-121769998D01*
X81341734Y-121769998D02*
X81389353Y-121865236D01*
X81389353Y-121865236D02*
X81436972Y-121912856D01*
X81436972Y-121912856D02*
X81532210Y-121960475D01*
X81532210Y-121960475D02*
X81675067Y-121960475D01*
X80913162Y-121293808D02*
X80913162Y-121960475D01*
X80913162Y-121389046D02*
X80865543Y-121341427D01*
X80865543Y-121341427D02*
X80770305Y-121293808D01*
X80770305Y-121293808D02*
X80627448Y-121293808D01*
X80627448Y-121293808D02*
X80532210Y-121341427D01*
X80532210Y-121341427D02*
X80484591Y-121436665D01*
X80484591Y-121436665D02*
X80484591Y-121960475D01*
X80151257Y-121293808D02*
X79770305Y-121293808D01*
X80008400Y-120960475D02*
X80008400Y-121817617D01*
X80008400Y-121817617D02*
X79960781Y-121912856D01*
X79960781Y-121912856D02*
X79865543Y-121960475D01*
X79865543Y-121960475D02*
X79770305Y-121960475D01*
X79436971Y-121960475D02*
X79436971Y-121293808D01*
X79436971Y-121484284D02*
X79389352Y-121389046D01*
X79389352Y-121389046D02*
X79341733Y-121341427D01*
X79341733Y-121341427D02*
X79246495Y-121293808D01*
X79246495Y-121293808D02*
X79151257Y-121293808D01*
X78675066Y-121960475D02*
X78770304Y-121912856D01*
X78770304Y-121912856D02*
X78817923Y-121865236D01*
X78817923Y-121865236D02*
X78865542Y-121769998D01*
X78865542Y-121769998D02*
X78865542Y-121484284D01*
X78865542Y-121484284D02*
X78817923Y-121389046D01*
X78817923Y-121389046D02*
X78770304Y-121341427D01*
X78770304Y-121341427D02*
X78675066Y-121293808D01*
X78675066Y-121293808D02*
X78532209Y-121293808D01*
X78532209Y-121293808D02*
X78436971Y-121341427D01*
X78436971Y-121341427D02*
X78389352Y-121389046D01*
X78389352Y-121389046D02*
X78341733Y-121484284D01*
X78341733Y-121484284D02*
X78341733Y-121769998D01*
X78341733Y-121769998D02*
X78389352Y-121865236D01*
X78389352Y-121865236D02*
X78436971Y-121912856D01*
X78436971Y-121912856D02*
X78532209Y-121960475D01*
X78532209Y-121960475D02*
X78675066Y-121960475D01*
X77770304Y-121960475D02*
X77865542Y-121912856D01*
X77865542Y-121912856D02*
X77913161Y-121817617D01*
X77913161Y-121817617D02*
X77913161Y-120960475D01*
X77246494Y-121960475D02*
X77341732Y-121912856D01*
X77341732Y-121912856D02*
X77389351Y-121817617D01*
X77389351Y-121817617D02*
X77389351Y-120960475D01*
X76484589Y-121912856D02*
X76579827Y-121960475D01*
X76579827Y-121960475D02*
X76770303Y-121960475D01*
X76770303Y-121960475D02*
X76865541Y-121912856D01*
X76865541Y-121912856D02*
X76913160Y-121817617D01*
X76913160Y-121817617D02*
X76913160Y-121436665D01*
X76913160Y-121436665D02*
X76865541Y-121341427D01*
X76865541Y-121341427D02*
X76770303Y-121293808D01*
X76770303Y-121293808D02*
X76579827Y-121293808D01*
X76579827Y-121293808D02*
X76484589Y-121341427D01*
X76484589Y-121341427D02*
X76436970Y-121436665D01*
X76436970Y-121436665D02*
X76436970Y-121531903D01*
X76436970Y-121531903D02*
X76913160Y-121627141D01*
X76008398Y-121960475D02*
X76008398Y-121293808D01*
X76008398Y-121484284D02*
X75960779Y-121389046D01*
X75960779Y-121389046D02*
X75913160Y-121341427D01*
X75913160Y-121341427D02*
X75817922Y-121293808D01*
X75817922Y-121293808D02*
X75722684Y-121293808D01*
X85103639Y-122570419D02*
X84913163Y-122570419D01*
X84913163Y-122570419D02*
X84817925Y-122618038D01*
X84817925Y-122618038D02*
X84722687Y-122713276D01*
X84722687Y-122713276D02*
X84675068Y-122903752D01*
X84675068Y-122903752D02*
X84675068Y-123237085D01*
X84675068Y-123237085D02*
X84722687Y-123427561D01*
X84722687Y-123427561D02*
X84817925Y-123522800D01*
X84817925Y-123522800D02*
X84913163Y-123570419D01*
X84913163Y-123570419D02*
X85103639Y-123570419D01*
X85103639Y-123570419D02*
X85198877Y-123522800D01*
X85198877Y-123522800D02*
X85294115Y-123427561D01*
X85294115Y-123427561D02*
X85341734Y-123237085D01*
X85341734Y-123237085D02*
X85341734Y-122903752D01*
X85341734Y-122903752D02*
X85294115Y-122713276D01*
X85294115Y-122713276D02*
X85198877Y-122618038D01*
X85198877Y-122618038D02*
X85103639Y-122570419D01*
X83817925Y-122903752D02*
X83817925Y-123570419D01*
X84246496Y-122903752D02*
X84246496Y-123427561D01*
X84246496Y-123427561D02*
X84198877Y-123522800D01*
X84198877Y-123522800D02*
X84103639Y-123570419D01*
X84103639Y-123570419D02*
X83960782Y-123570419D01*
X83960782Y-123570419D02*
X83865544Y-123522800D01*
X83865544Y-123522800D02*
X83817925Y-123475180D01*
X83484591Y-122903752D02*
X83103639Y-122903752D01*
X83341734Y-122570419D02*
X83341734Y-123427561D01*
X83341734Y-123427561D02*
X83294115Y-123522800D01*
X83294115Y-123522800D02*
X83198877Y-123570419D01*
X83198877Y-123570419D02*
X83103639Y-123570419D01*
X82770305Y-122903752D02*
X82770305Y-123903752D01*
X82770305Y-122951371D02*
X82675067Y-122903752D01*
X82675067Y-122903752D02*
X82484591Y-122903752D01*
X82484591Y-122903752D02*
X82389353Y-122951371D01*
X82389353Y-122951371D02*
X82341734Y-122998990D01*
X82341734Y-122998990D02*
X82294115Y-123094228D01*
X82294115Y-123094228D02*
X82294115Y-123379942D01*
X82294115Y-123379942D02*
X82341734Y-123475180D01*
X82341734Y-123475180D02*
X82389353Y-123522800D01*
X82389353Y-123522800D02*
X82484591Y-123570419D01*
X82484591Y-123570419D02*
X82675067Y-123570419D01*
X82675067Y-123570419D02*
X82770305Y-123522800D01*
X81436972Y-122903752D02*
X81436972Y-123570419D01*
X81865543Y-122903752D02*
X81865543Y-123427561D01*
X81865543Y-123427561D02*
X81817924Y-123522800D01*
X81817924Y-123522800D02*
X81722686Y-123570419D01*
X81722686Y-123570419D02*
X81579829Y-123570419D01*
X81579829Y-123570419D02*
X81484591Y-123522800D01*
X81484591Y-123522800D02*
X81436972Y-123475180D01*
X81103638Y-122903752D02*
X80722686Y-122903752D01*
X80960781Y-122570419D02*
X80960781Y-123427561D01*
X80960781Y-123427561D02*
X80913162Y-123522800D01*
X80913162Y-123522800D02*
X80817924Y-123570419D01*
X80817924Y-123570419D02*
X80722686Y-123570419D01*
X101010401Y-117744419D02*
X101010401Y-118458704D01*
X101010401Y-118458704D02*
X101058020Y-118601561D01*
X101058020Y-118601561D02*
X101153258Y-118696800D01*
X101153258Y-118696800D02*
X101296115Y-118744419D01*
X101296115Y-118744419D02*
X101391353Y-118744419D01*
X100629448Y-117744419D02*
X100010401Y-117744419D01*
X100010401Y-117744419D02*
X100343734Y-118125371D01*
X100343734Y-118125371D02*
X100200877Y-118125371D01*
X100200877Y-118125371D02*
X100105639Y-118172990D01*
X100105639Y-118172990D02*
X100058020Y-118220609D01*
X100058020Y-118220609D02*
X100010401Y-118315847D01*
X100010401Y-118315847D02*
X100010401Y-118553942D01*
X100010401Y-118553942D02*
X100058020Y-118649180D01*
X100058020Y-118649180D02*
X100105639Y-118696800D01*
X100105639Y-118696800D02*
X100200877Y-118744419D01*
X100200877Y-118744419D02*
X100486591Y-118744419D01*
X100486591Y-118744419D02*
X100581829Y-118696800D01*
X100581829Y-118696800D02*
X100629448Y-118649180D01*
X98819924Y-118744419D02*
X98819924Y-117744419D01*
X98819924Y-117744419D02*
X98486591Y-118458704D01*
X98486591Y-118458704D02*
X98153258Y-117744419D01*
X98153258Y-117744419D02*
X98153258Y-118744419D01*
X97534210Y-118744419D02*
X97629448Y-118696800D01*
X97629448Y-118696800D02*
X97677067Y-118649180D01*
X97677067Y-118649180D02*
X97724686Y-118553942D01*
X97724686Y-118553942D02*
X97724686Y-118268228D01*
X97724686Y-118268228D02*
X97677067Y-118172990D01*
X97677067Y-118172990D02*
X97629448Y-118125371D01*
X97629448Y-118125371D02*
X97534210Y-118077752D01*
X97534210Y-118077752D02*
X97391353Y-118077752D01*
X97391353Y-118077752D02*
X97296115Y-118125371D01*
X97296115Y-118125371D02*
X97248496Y-118172990D01*
X97248496Y-118172990D02*
X97200877Y-118268228D01*
X97200877Y-118268228D02*
X97200877Y-118553942D01*
X97200877Y-118553942D02*
X97248496Y-118649180D01*
X97248496Y-118649180D02*
X97296115Y-118696800D01*
X97296115Y-118696800D02*
X97391353Y-118744419D01*
X97391353Y-118744419D02*
X97534210Y-118744419D01*
X96915162Y-118077752D02*
X96534210Y-118077752D01*
X96772305Y-117744419D02*
X96772305Y-118601561D01*
X96772305Y-118601561D02*
X96724686Y-118696800D01*
X96724686Y-118696800D02*
X96629448Y-118744419D01*
X96629448Y-118744419D02*
X96534210Y-118744419D01*
X96058019Y-118744419D02*
X96153257Y-118696800D01*
X96153257Y-118696800D02*
X96200876Y-118649180D01*
X96200876Y-118649180D02*
X96248495Y-118553942D01*
X96248495Y-118553942D02*
X96248495Y-118268228D01*
X96248495Y-118268228D02*
X96200876Y-118172990D01*
X96200876Y-118172990D02*
X96153257Y-118125371D01*
X96153257Y-118125371D02*
X96058019Y-118077752D01*
X96058019Y-118077752D02*
X95915162Y-118077752D01*
X95915162Y-118077752D02*
X95819924Y-118125371D01*
X95819924Y-118125371D02*
X95772305Y-118172990D01*
X95772305Y-118172990D02*
X95724686Y-118268228D01*
X95724686Y-118268228D02*
X95724686Y-118553942D01*
X95724686Y-118553942D02*
X95772305Y-118649180D01*
X95772305Y-118649180D02*
X95819924Y-118696800D01*
X95819924Y-118696800D02*
X95915162Y-118744419D01*
X95915162Y-118744419D02*
X96058019Y-118744419D01*
X95296114Y-118744419D02*
X95296114Y-118077752D01*
X95296114Y-118268228D02*
X95248495Y-118172990D01*
X95248495Y-118172990D02*
X95200876Y-118125371D01*
X95200876Y-118125371D02*
X95105638Y-118077752D01*
X95105638Y-118077752D02*
X95010400Y-118077752D01*
X99385333Y-57877419D02*
X99385333Y-58591704D01*
X99385333Y-58591704D02*
X99432952Y-58734561D01*
X99432952Y-58734561D02*
X99528190Y-58829800D01*
X99528190Y-58829800D02*
X99671047Y-58877419D01*
X99671047Y-58877419D02*
X99766285Y-58877419D01*
X98909142Y-58877419D02*
X98909142Y-57877419D01*
X98909142Y-57877419D02*
X98528190Y-57877419D01*
X98528190Y-57877419D02*
X98432952Y-57925038D01*
X98432952Y-57925038D02*
X98385333Y-57972657D01*
X98385333Y-57972657D02*
X98337714Y-58067895D01*
X98337714Y-58067895D02*
X98337714Y-58210752D01*
X98337714Y-58210752D02*
X98385333Y-58305990D01*
X98385333Y-58305990D02*
X98432952Y-58353609D01*
X98432952Y-58353609D02*
X98528190Y-58401228D01*
X98528190Y-58401228D02*
X98909142Y-58401228D01*
X98004380Y-57877419D02*
X97385333Y-57877419D01*
X97385333Y-57877419D02*
X97718666Y-58258371D01*
X97718666Y-58258371D02*
X97575809Y-58258371D01*
X97575809Y-58258371D02*
X97480571Y-58305990D01*
X97480571Y-58305990D02*
X97432952Y-58353609D01*
X97432952Y-58353609D02*
X97385333Y-58448847D01*
X97385333Y-58448847D02*
X97385333Y-58686942D01*
X97385333Y-58686942D02*
X97432952Y-58782180D01*
X97432952Y-58782180D02*
X97480571Y-58829800D01*
X97480571Y-58829800D02*
X97575809Y-58877419D01*
X97575809Y-58877419D02*
X97861523Y-58877419D01*
X97861523Y-58877419D02*
X97956761Y-58829800D01*
X97956761Y-58829800D02*
X98004380Y-58782180D01*
X96337333Y-73625419D02*
X96337333Y-74339704D01*
X96337333Y-74339704D02*
X96384952Y-74482561D01*
X96384952Y-74482561D02*
X96480190Y-74577800D01*
X96480190Y-74577800D02*
X96623047Y-74625419D01*
X96623047Y-74625419D02*
X96718285Y-74625419D01*
X95861142Y-74625419D02*
X95861142Y-73625419D01*
X95861142Y-73625419D02*
X95480190Y-73625419D01*
X95480190Y-73625419D02*
X95384952Y-73673038D01*
X95384952Y-73673038D02*
X95337333Y-73720657D01*
X95337333Y-73720657D02*
X95289714Y-73815895D01*
X95289714Y-73815895D02*
X95289714Y-73958752D01*
X95289714Y-73958752D02*
X95337333Y-74053990D01*
X95337333Y-74053990D02*
X95384952Y-74101609D01*
X95384952Y-74101609D02*
X95480190Y-74149228D01*
X95480190Y-74149228D02*
X95861142Y-74149228D01*
X94337333Y-74625419D02*
X94908761Y-74625419D01*
X94623047Y-74625419D02*
X94623047Y-73625419D01*
X94623047Y-73625419D02*
X94718285Y-73768276D01*
X94718285Y-73768276D02*
X94813523Y-73863514D01*
X94813523Y-73863514D02*
X94908761Y-73911133D01*
M02*
