%TF.GenerationSoftware,KiCad,Pcbnew,8.0.6*%
%TF.CreationDate,2025-01-03T13:59:32-07:00*%
%TF.ProjectId,Shutter current limit,53687574-7465-4722-9063-757272656e74,rev?*%
%TF.SameCoordinates,Original*%
%TF.FileFunction,Legend,Bot*%
%TF.FilePolarity,Positive*%
%FSLAX46Y46*%
G04 Gerber Fmt 4.6, Leading zero omitted, Abs format (unit mm)*
G04 Created by KiCad (PCBNEW 8.0.6) date 2025-01-03 13:59:32*
%MOMM*%
%LPD*%
G01*
G04 APERTURE LIST*
%ADD10C,0.100000*%
G04 APERTURE END LIST*
D10*
X94488000Y-138176000D02*
X91440000Y-134874000D01*
X66405580Y-127426401D02*
X65691295Y-127426401D01*
X65691295Y-127426401D02*
X65548438Y-127474020D01*
X65548438Y-127474020D02*
X65453200Y-127569258D01*
X65453200Y-127569258D02*
X65405580Y-127712115D01*
X65405580Y-127712115D02*
X65405580Y-127807353D01*
X65405580Y-126426401D02*
X65405580Y-126997829D01*
X65405580Y-126712115D02*
X66405580Y-126712115D01*
X66405580Y-126712115D02*
X66262723Y-126807353D01*
X66262723Y-126807353D02*
X66167485Y-126902591D01*
X66167485Y-126902591D02*
X66119866Y-126997829D01*
X65929390Y-124902591D02*
X65881771Y-124759734D01*
X65881771Y-124759734D02*
X65834152Y-124712115D01*
X65834152Y-124712115D02*
X65738914Y-124664496D01*
X65738914Y-124664496D02*
X65596057Y-124664496D01*
X65596057Y-124664496D02*
X65500819Y-124712115D01*
X65500819Y-124712115D02*
X65453200Y-124759734D01*
X65453200Y-124759734D02*
X65405580Y-124854972D01*
X65405580Y-124854972D02*
X65405580Y-125235924D01*
X65405580Y-125235924D02*
X66405580Y-125235924D01*
X66405580Y-125235924D02*
X66405580Y-124902591D01*
X66405580Y-124902591D02*
X66357961Y-124807353D01*
X66357961Y-124807353D02*
X66310342Y-124759734D01*
X66310342Y-124759734D02*
X66215104Y-124712115D01*
X66215104Y-124712115D02*
X66119866Y-124712115D01*
X66119866Y-124712115D02*
X66024628Y-124759734D01*
X66024628Y-124759734D02*
X65977009Y-124807353D01*
X65977009Y-124807353D02*
X65929390Y-124902591D01*
X65929390Y-124902591D02*
X65929390Y-125235924D01*
X65405580Y-123807353D02*
X65929390Y-123807353D01*
X65929390Y-123807353D02*
X66024628Y-123854972D01*
X66024628Y-123854972D02*
X66072247Y-123950210D01*
X66072247Y-123950210D02*
X66072247Y-124140686D01*
X66072247Y-124140686D02*
X66024628Y-124235924D01*
X65453200Y-123807353D02*
X65405580Y-123902591D01*
X65405580Y-123902591D02*
X65405580Y-124140686D01*
X65405580Y-124140686D02*
X65453200Y-124235924D01*
X65453200Y-124235924D02*
X65548438Y-124283543D01*
X65548438Y-124283543D02*
X65643676Y-124283543D01*
X65643676Y-124283543D02*
X65738914Y-124235924D01*
X65738914Y-124235924D02*
X65786533Y-124140686D01*
X65786533Y-124140686D02*
X65786533Y-123902591D01*
X65786533Y-123902591D02*
X65834152Y-123807353D01*
X66072247Y-123474019D02*
X66072247Y-123093067D01*
X66405580Y-123331162D02*
X65548438Y-123331162D01*
X65548438Y-123331162D02*
X65453200Y-123283543D01*
X65453200Y-123283543D02*
X65405580Y-123188305D01*
X65405580Y-123188305D02*
X65405580Y-123093067D01*
X66072247Y-122902590D02*
X66072247Y-122521638D01*
X66405580Y-122759733D02*
X65548438Y-122759733D01*
X65548438Y-122759733D02*
X65453200Y-122712114D01*
X65453200Y-122712114D02*
X65405580Y-122616876D01*
X65405580Y-122616876D02*
X65405580Y-122521638D01*
X65453200Y-121807352D02*
X65405580Y-121902590D01*
X65405580Y-121902590D02*
X65405580Y-122093066D01*
X65405580Y-122093066D02*
X65453200Y-122188304D01*
X65453200Y-122188304D02*
X65548438Y-122235923D01*
X65548438Y-122235923D02*
X65929390Y-122235923D01*
X65929390Y-122235923D02*
X66024628Y-122188304D01*
X66024628Y-122188304D02*
X66072247Y-122093066D01*
X66072247Y-122093066D02*
X66072247Y-121902590D01*
X66072247Y-121902590D02*
X66024628Y-121807352D01*
X66024628Y-121807352D02*
X65929390Y-121759733D01*
X65929390Y-121759733D02*
X65834152Y-121759733D01*
X65834152Y-121759733D02*
X65738914Y-122235923D01*
X65405580Y-121331161D02*
X66072247Y-121331161D01*
X65881771Y-121331161D02*
X65977009Y-121283542D01*
X65977009Y-121283542D02*
X66024628Y-121235923D01*
X66024628Y-121235923D02*
X66072247Y-121140685D01*
X66072247Y-121140685D02*
X66072247Y-121045447D01*
X66072247Y-120807351D02*
X65405580Y-120569256D01*
X66072247Y-120331161D02*
X65405580Y-120569256D01*
X65405580Y-120569256D02*
X65167485Y-120664494D01*
X65167485Y-120664494D02*
X65119866Y-120712113D01*
X65119866Y-120712113D02*
X65072247Y-120807351D01*
X102534401Y-135270419D02*
X102534401Y-135984704D01*
X102534401Y-135984704D02*
X102582020Y-136127561D01*
X102582020Y-136127561D02*
X102677258Y-136222800D01*
X102677258Y-136222800D02*
X102820115Y-136270419D01*
X102820115Y-136270419D02*
X102915353Y-136270419D01*
X102153448Y-135270419D02*
X101534401Y-135270419D01*
X101534401Y-135270419D02*
X101867734Y-135651371D01*
X101867734Y-135651371D02*
X101724877Y-135651371D01*
X101724877Y-135651371D02*
X101629639Y-135698990D01*
X101629639Y-135698990D02*
X101582020Y-135746609D01*
X101582020Y-135746609D02*
X101534401Y-135841847D01*
X101534401Y-135841847D02*
X101534401Y-136079942D01*
X101534401Y-136079942D02*
X101582020Y-136175180D01*
X101582020Y-136175180D02*
X101629639Y-136222800D01*
X101629639Y-136222800D02*
X101724877Y-136270419D01*
X101724877Y-136270419D02*
X102010591Y-136270419D01*
X102010591Y-136270419D02*
X102105829Y-136222800D01*
X102105829Y-136222800D02*
X102153448Y-136175180D01*
X100343924Y-136270419D02*
X100343924Y-135270419D01*
X100343924Y-135270419D02*
X100010591Y-135984704D01*
X100010591Y-135984704D02*
X99677258Y-135270419D01*
X99677258Y-135270419D02*
X99677258Y-136270419D01*
X99058210Y-136270419D02*
X99153448Y-136222800D01*
X99153448Y-136222800D02*
X99201067Y-136175180D01*
X99201067Y-136175180D02*
X99248686Y-136079942D01*
X99248686Y-136079942D02*
X99248686Y-135794228D01*
X99248686Y-135794228D02*
X99201067Y-135698990D01*
X99201067Y-135698990D02*
X99153448Y-135651371D01*
X99153448Y-135651371D02*
X99058210Y-135603752D01*
X99058210Y-135603752D02*
X98915353Y-135603752D01*
X98915353Y-135603752D02*
X98820115Y-135651371D01*
X98820115Y-135651371D02*
X98772496Y-135698990D01*
X98772496Y-135698990D02*
X98724877Y-135794228D01*
X98724877Y-135794228D02*
X98724877Y-136079942D01*
X98724877Y-136079942D02*
X98772496Y-136175180D01*
X98772496Y-136175180D02*
X98820115Y-136222800D01*
X98820115Y-136222800D02*
X98915353Y-136270419D01*
X98915353Y-136270419D02*
X99058210Y-136270419D01*
X98439162Y-135603752D02*
X98058210Y-135603752D01*
X98296305Y-135270419D02*
X98296305Y-136127561D01*
X98296305Y-136127561D02*
X98248686Y-136222800D01*
X98248686Y-136222800D02*
X98153448Y-136270419D01*
X98153448Y-136270419D02*
X98058210Y-136270419D01*
X97582019Y-136270419D02*
X97677257Y-136222800D01*
X97677257Y-136222800D02*
X97724876Y-136175180D01*
X97724876Y-136175180D02*
X97772495Y-136079942D01*
X97772495Y-136079942D02*
X97772495Y-135794228D01*
X97772495Y-135794228D02*
X97724876Y-135698990D01*
X97724876Y-135698990D02*
X97677257Y-135651371D01*
X97677257Y-135651371D02*
X97582019Y-135603752D01*
X97582019Y-135603752D02*
X97439162Y-135603752D01*
X97439162Y-135603752D02*
X97343924Y-135651371D01*
X97343924Y-135651371D02*
X97296305Y-135698990D01*
X97296305Y-135698990D02*
X97248686Y-135794228D01*
X97248686Y-135794228D02*
X97248686Y-136079942D01*
X97248686Y-136079942D02*
X97296305Y-136175180D01*
X97296305Y-136175180D02*
X97343924Y-136222800D01*
X97343924Y-136222800D02*
X97439162Y-136270419D01*
X97439162Y-136270419D02*
X97582019Y-136270419D01*
X96820114Y-136270419D02*
X96820114Y-135603752D01*
X96820114Y-135794228D02*
X96772495Y-135698990D01*
X96772495Y-135698990D02*
X96724876Y-135651371D01*
X96724876Y-135651371D02*
X96629638Y-135603752D01*
X96629638Y-135603752D02*
X96534400Y-135603752D01*
X88564401Y-136032419D02*
X88564401Y-136746704D01*
X88564401Y-136746704D02*
X88612020Y-136889561D01*
X88612020Y-136889561D02*
X88707258Y-136984800D01*
X88707258Y-136984800D02*
X88850115Y-137032419D01*
X88850115Y-137032419D02*
X88945353Y-137032419D01*
X88135829Y-136127657D02*
X88088210Y-136080038D01*
X88088210Y-136080038D02*
X87992972Y-136032419D01*
X87992972Y-136032419D02*
X87754877Y-136032419D01*
X87754877Y-136032419D02*
X87659639Y-136080038D01*
X87659639Y-136080038D02*
X87612020Y-136127657D01*
X87612020Y-136127657D02*
X87564401Y-136222895D01*
X87564401Y-136222895D02*
X87564401Y-136318133D01*
X87564401Y-136318133D02*
X87612020Y-136460990D01*
X87612020Y-136460990D02*
X88183448Y-137032419D01*
X88183448Y-137032419D02*
X87564401Y-137032419D01*
X86469162Y-136032419D02*
X86231067Y-137032419D01*
X86231067Y-137032419D02*
X86040591Y-136318133D01*
X86040591Y-136318133D02*
X85850115Y-137032419D01*
X85850115Y-137032419D02*
X85612020Y-136032419D01*
X85231067Y-137032419D02*
X85231067Y-136365752D01*
X85231067Y-136032419D02*
X85278686Y-136080038D01*
X85278686Y-136080038D02*
X85231067Y-136127657D01*
X85231067Y-136127657D02*
X85183448Y-136080038D01*
X85183448Y-136080038D02*
X85231067Y-136032419D01*
X85231067Y-136032419D02*
X85231067Y-136127657D01*
X84754877Y-136365752D02*
X84754877Y-137032419D01*
X84754877Y-136460990D02*
X84707258Y-136413371D01*
X84707258Y-136413371D02*
X84612020Y-136365752D01*
X84612020Y-136365752D02*
X84469163Y-136365752D01*
X84469163Y-136365752D02*
X84373925Y-136413371D01*
X84373925Y-136413371D02*
X84326306Y-136508609D01*
X84326306Y-136508609D02*
X84326306Y-137032419D01*
X83421544Y-136984800D02*
X83516782Y-137032419D01*
X83516782Y-137032419D02*
X83707258Y-137032419D01*
X83707258Y-137032419D02*
X83802496Y-136984800D01*
X83802496Y-136984800D02*
X83850115Y-136937180D01*
X83850115Y-136937180D02*
X83897734Y-136841942D01*
X83897734Y-136841942D02*
X83897734Y-136556228D01*
X83897734Y-136556228D02*
X83850115Y-136460990D01*
X83850115Y-136460990D02*
X83802496Y-136413371D01*
X83802496Y-136413371D02*
X83707258Y-136365752D01*
X83707258Y-136365752D02*
X83516782Y-136365752D01*
X83516782Y-136365752D02*
X83421544Y-136413371D01*
X82992972Y-137032419D02*
X82992972Y-136032419D01*
X82564401Y-137032419D02*
X82564401Y-136508609D01*
X82564401Y-136508609D02*
X82612020Y-136413371D01*
X82612020Y-136413371D02*
X82707258Y-136365752D01*
X82707258Y-136365752D02*
X82850115Y-136365752D01*
X82850115Y-136365752D02*
X82945353Y-136413371D01*
X82945353Y-136413371D02*
X82992972Y-136460990D01*
X81326305Y-137032419D02*
X81326305Y-136032419D01*
X81326305Y-136032419D02*
X80945353Y-136032419D01*
X80945353Y-136032419D02*
X80850115Y-136080038D01*
X80850115Y-136080038D02*
X80802496Y-136127657D01*
X80802496Y-136127657D02*
X80754877Y-136222895D01*
X80754877Y-136222895D02*
X80754877Y-136365752D01*
X80754877Y-136365752D02*
X80802496Y-136460990D01*
X80802496Y-136460990D02*
X80850115Y-136508609D01*
X80850115Y-136508609D02*
X80945353Y-136556228D01*
X80945353Y-136556228D02*
X81326305Y-136556228D01*
X80183448Y-137032419D02*
X80278686Y-136984800D01*
X80278686Y-136984800D02*
X80326305Y-136937180D01*
X80326305Y-136937180D02*
X80373924Y-136841942D01*
X80373924Y-136841942D02*
X80373924Y-136556228D01*
X80373924Y-136556228D02*
X80326305Y-136460990D01*
X80326305Y-136460990D02*
X80278686Y-136413371D01*
X80278686Y-136413371D02*
X80183448Y-136365752D01*
X80183448Y-136365752D02*
X80040591Y-136365752D01*
X80040591Y-136365752D02*
X79945353Y-136413371D01*
X79945353Y-136413371D02*
X79897734Y-136460990D01*
X79897734Y-136460990D02*
X79850115Y-136556228D01*
X79850115Y-136556228D02*
X79850115Y-136841942D01*
X79850115Y-136841942D02*
X79897734Y-136937180D01*
X79897734Y-136937180D02*
X79945353Y-136984800D01*
X79945353Y-136984800D02*
X80040591Y-137032419D01*
X80040591Y-137032419D02*
X80183448Y-137032419D01*
X79516781Y-136365752D02*
X79326305Y-137032419D01*
X79326305Y-137032419D02*
X79135829Y-136556228D01*
X79135829Y-136556228D02*
X78945353Y-137032419D01*
X78945353Y-137032419D02*
X78754877Y-136365752D01*
X77992972Y-136984800D02*
X78088210Y-137032419D01*
X78088210Y-137032419D02*
X78278686Y-137032419D01*
X78278686Y-137032419D02*
X78373924Y-136984800D01*
X78373924Y-136984800D02*
X78421543Y-136889561D01*
X78421543Y-136889561D02*
X78421543Y-136508609D01*
X78421543Y-136508609D02*
X78373924Y-136413371D01*
X78373924Y-136413371D02*
X78278686Y-136365752D01*
X78278686Y-136365752D02*
X78088210Y-136365752D01*
X78088210Y-136365752D02*
X77992972Y-136413371D01*
X77992972Y-136413371D02*
X77945353Y-136508609D01*
X77945353Y-136508609D02*
X77945353Y-136603847D01*
X77945353Y-136603847D02*
X78421543Y-136699085D01*
X77516781Y-137032419D02*
X77516781Y-136365752D01*
X77516781Y-136556228D02*
X77469162Y-136460990D01*
X77469162Y-136460990D02*
X77421543Y-136413371D01*
X77421543Y-136413371D02*
X77326305Y-136365752D01*
X77326305Y-136365752D02*
X77231067Y-136365752D01*
X108884401Y-138572419D02*
X108884401Y-139286704D01*
X108884401Y-139286704D02*
X108932020Y-139429561D01*
X108932020Y-139429561D02*
X109027258Y-139524800D01*
X109027258Y-139524800D02*
X109170115Y-139572419D01*
X109170115Y-139572419D02*
X109265353Y-139572419D01*
X107979639Y-138905752D02*
X107979639Y-139572419D01*
X108217734Y-138524800D02*
X108455829Y-139239085D01*
X108455829Y-139239085D02*
X107836782Y-139239085D01*
X106122496Y-139477180D02*
X106170115Y-139524800D01*
X106170115Y-139524800D02*
X106312972Y-139572419D01*
X106312972Y-139572419D02*
X106408210Y-139572419D01*
X106408210Y-139572419D02*
X106551067Y-139524800D01*
X106551067Y-139524800D02*
X106646305Y-139429561D01*
X106646305Y-139429561D02*
X106693924Y-139334323D01*
X106693924Y-139334323D02*
X106741543Y-139143847D01*
X106741543Y-139143847D02*
X106741543Y-139000990D01*
X106741543Y-139000990D02*
X106693924Y-138810514D01*
X106693924Y-138810514D02*
X106646305Y-138715276D01*
X106646305Y-138715276D02*
X106551067Y-138620038D01*
X106551067Y-138620038D02*
X106408210Y-138572419D01*
X106408210Y-138572419D02*
X106312972Y-138572419D01*
X106312972Y-138572419D02*
X106170115Y-138620038D01*
X106170115Y-138620038D02*
X106122496Y-138667657D01*
X105551067Y-139572419D02*
X105646305Y-139524800D01*
X105646305Y-139524800D02*
X105693924Y-139477180D01*
X105693924Y-139477180D02*
X105741543Y-139381942D01*
X105741543Y-139381942D02*
X105741543Y-139096228D01*
X105741543Y-139096228D02*
X105693924Y-139000990D01*
X105693924Y-139000990D02*
X105646305Y-138953371D01*
X105646305Y-138953371D02*
X105551067Y-138905752D01*
X105551067Y-138905752D02*
X105408210Y-138905752D01*
X105408210Y-138905752D02*
X105312972Y-138953371D01*
X105312972Y-138953371D02*
X105265353Y-139000990D01*
X105265353Y-139000990D02*
X105217734Y-139096228D01*
X105217734Y-139096228D02*
X105217734Y-139381942D01*
X105217734Y-139381942D02*
X105265353Y-139477180D01*
X105265353Y-139477180D02*
X105312972Y-139524800D01*
X105312972Y-139524800D02*
X105408210Y-139572419D01*
X105408210Y-139572419D02*
X105551067Y-139572419D01*
X104789162Y-138905752D02*
X104789162Y-139572419D01*
X104789162Y-139000990D02*
X104741543Y-138953371D01*
X104741543Y-138953371D02*
X104646305Y-138905752D01*
X104646305Y-138905752D02*
X104503448Y-138905752D01*
X104503448Y-138905752D02*
X104408210Y-138953371D01*
X104408210Y-138953371D02*
X104360591Y-139048609D01*
X104360591Y-139048609D02*
X104360591Y-139572419D01*
X104027257Y-138905752D02*
X103646305Y-138905752D01*
X103884400Y-138572419D02*
X103884400Y-139429561D01*
X103884400Y-139429561D02*
X103836781Y-139524800D01*
X103836781Y-139524800D02*
X103741543Y-139572419D01*
X103741543Y-139572419D02*
X103646305Y-139572419D01*
X103312971Y-139572419D02*
X103312971Y-138905752D01*
X103312971Y-139096228D02*
X103265352Y-139000990D01*
X103265352Y-139000990D02*
X103217733Y-138953371D01*
X103217733Y-138953371D02*
X103122495Y-138905752D01*
X103122495Y-138905752D02*
X103027257Y-138905752D01*
X102551066Y-139572419D02*
X102646304Y-139524800D01*
X102646304Y-139524800D02*
X102693923Y-139477180D01*
X102693923Y-139477180D02*
X102741542Y-139381942D01*
X102741542Y-139381942D02*
X102741542Y-139096228D01*
X102741542Y-139096228D02*
X102693923Y-139000990D01*
X102693923Y-139000990D02*
X102646304Y-138953371D01*
X102646304Y-138953371D02*
X102551066Y-138905752D01*
X102551066Y-138905752D02*
X102408209Y-138905752D01*
X102408209Y-138905752D02*
X102312971Y-138953371D01*
X102312971Y-138953371D02*
X102265352Y-139000990D01*
X102265352Y-139000990D02*
X102217733Y-139096228D01*
X102217733Y-139096228D02*
X102217733Y-139381942D01*
X102217733Y-139381942D02*
X102265352Y-139477180D01*
X102265352Y-139477180D02*
X102312971Y-139524800D01*
X102312971Y-139524800D02*
X102408209Y-139572419D01*
X102408209Y-139572419D02*
X102551066Y-139572419D01*
X101646304Y-139572419D02*
X101741542Y-139524800D01*
X101741542Y-139524800D02*
X101789161Y-139429561D01*
X101789161Y-139429561D02*
X101789161Y-138572419D01*
X101122494Y-139572419D02*
X101217732Y-139524800D01*
X101217732Y-139524800D02*
X101265351Y-139429561D01*
X101265351Y-139429561D02*
X101265351Y-138572419D01*
X100360589Y-139524800D02*
X100455827Y-139572419D01*
X100455827Y-139572419D02*
X100646303Y-139572419D01*
X100646303Y-139572419D02*
X100741541Y-139524800D01*
X100741541Y-139524800D02*
X100789160Y-139429561D01*
X100789160Y-139429561D02*
X100789160Y-139048609D01*
X100789160Y-139048609D02*
X100741541Y-138953371D01*
X100741541Y-138953371D02*
X100646303Y-138905752D01*
X100646303Y-138905752D02*
X100455827Y-138905752D01*
X100455827Y-138905752D02*
X100360589Y-138953371D01*
X100360589Y-138953371D02*
X100312970Y-139048609D01*
X100312970Y-139048609D02*
X100312970Y-139143847D01*
X100312970Y-139143847D02*
X100789160Y-139239085D01*
X99884398Y-139572419D02*
X99884398Y-138905752D01*
X99884398Y-139096228D02*
X99836779Y-139000990D01*
X99836779Y-139000990D02*
X99789160Y-138953371D01*
X99789160Y-138953371D02*
X99693922Y-138905752D01*
X99693922Y-138905752D02*
X99598684Y-138905752D01*
X98312969Y-138572419D02*
X98122493Y-138572419D01*
X98122493Y-138572419D02*
X98027255Y-138620038D01*
X98027255Y-138620038D02*
X97932017Y-138715276D01*
X97932017Y-138715276D02*
X97884398Y-138905752D01*
X97884398Y-138905752D02*
X97884398Y-139239085D01*
X97884398Y-139239085D02*
X97932017Y-139429561D01*
X97932017Y-139429561D02*
X98027255Y-139524800D01*
X98027255Y-139524800D02*
X98122493Y-139572419D01*
X98122493Y-139572419D02*
X98312969Y-139572419D01*
X98312969Y-139572419D02*
X98408207Y-139524800D01*
X98408207Y-139524800D02*
X98503445Y-139429561D01*
X98503445Y-139429561D02*
X98551064Y-139239085D01*
X98551064Y-139239085D02*
X98551064Y-138905752D01*
X98551064Y-138905752D02*
X98503445Y-138715276D01*
X98503445Y-138715276D02*
X98408207Y-138620038D01*
X98408207Y-138620038D02*
X98312969Y-138572419D01*
X97027255Y-138905752D02*
X97027255Y-139572419D01*
X97455826Y-138905752D02*
X97455826Y-139429561D01*
X97455826Y-139429561D02*
X97408207Y-139524800D01*
X97408207Y-139524800D02*
X97312969Y-139572419D01*
X97312969Y-139572419D02*
X97170112Y-139572419D01*
X97170112Y-139572419D02*
X97074874Y-139524800D01*
X97074874Y-139524800D02*
X97027255Y-139477180D01*
X96693921Y-138905752D02*
X96312969Y-138905752D01*
X96551064Y-138572419D02*
X96551064Y-139429561D01*
X96551064Y-139429561D02*
X96503445Y-139524800D01*
X96503445Y-139524800D02*
X96408207Y-139572419D01*
X96408207Y-139572419D02*
X96312969Y-139572419D01*
X95979635Y-138905752D02*
X95979635Y-139905752D01*
X95979635Y-138953371D02*
X95884397Y-138905752D01*
X95884397Y-138905752D02*
X95693921Y-138905752D01*
X95693921Y-138905752D02*
X95598683Y-138953371D01*
X95598683Y-138953371D02*
X95551064Y-139000990D01*
X95551064Y-139000990D02*
X95503445Y-139096228D01*
X95503445Y-139096228D02*
X95503445Y-139381942D01*
X95503445Y-139381942D02*
X95551064Y-139477180D01*
X95551064Y-139477180D02*
X95598683Y-139524800D01*
X95598683Y-139524800D02*
X95693921Y-139572419D01*
X95693921Y-139572419D02*
X95884397Y-139572419D01*
X95884397Y-139572419D02*
X95979635Y-139524800D01*
X94646302Y-138905752D02*
X94646302Y-139572419D01*
X95074873Y-138905752D02*
X95074873Y-139429561D01*
X95074873Y-139429561D02*
X95027254Y-139524800D01*
X95027254Y-139524800D02*
X94932016Y-139572419D01*
X94932016Y-139572419D02*
X94789159Y-139572419D01*
X94789159Y-139572419D02*
X94693921Y-139524800D01*
X94693921Y-139524800D02*
X94646302Y-139477180D01*
X94312968Y-138905752D02*
X93932016Y-138905752D01*
X94170111Y-138572419D02*
X94170111Y-139429561D01*
X94170111Y-139429561D02*
X94122492Y-139524800D01*
X94122492Y-139524800D02*
X94027254Y-139572419D01*
X94027254Y-139572419D02*
X93932016Y-139572419D01*
M02*
