%TF.GenerationSoftware,KiCad,Pcbnew,8.0.6*%
%TF.CreationDate,2024-12-23T13:04:00-07:00*%
%TF.ProjectId,Shutter current limit,53687574-7465-4722-9063-757272656e74,rev?*%
%TF.SameCoordinates,Original*%
%TF.FileFunction,Copper,L2,Bot*%
%TF.FilePolarity,Positive*%
%FSLAX46Y46*%
G04 Gerber Fmt 4.6, Leading zero omitted, Abs format (unit mm)*
G04 Created by KiCad (PCBNEW 8.0.6) date 2024-12-23 13:04:00*
%MOMM*%
%LPD*%
G01*
G04 APERTURE LIST*
%TA.AperFunction,ComponentPad*%
%ADD10R,6.350000X6.350000*%
%TD*%
%TA.AperFunction,ComponentPad*%
%ADD11C,1.524000*%
%TD*%
%TA.AperFunction,ComponentPad*%
%ADD12C,5.842000*%
%TD*%
%TA.AperFunction,ComponentPad*%
%ADD13C,3.810000*%
%TD*%
%TA.AperFunction,ComponentPad*%
%ADD14C,5.080000*%
%TD*%
%TA.AperFunction,ComponentPad*%
%ADD15C,19.050000*%
%TD*%
%TA.AperFunction,Conductor*%
%ADD16C,2.032000*%
%TD*%
%TA.AperFunction,Conductor*%
%ADD17C,0.254000*%
%TD*%
%TA.AperFunction,Conductor*%
%ADD18C,0.200000*%
%TD*%
%TA.AperFunction,Conductor*%
%ADD19C,2.540000*%
%TD*%
G04 APERTURE END LIST*
D10*
%TO.P,R7,2*%
%TO.N,Earth*%
X71272400Y-100812600D03*
%TO.P,R7,1*%
%TO.N,Net-(J2-Neg)*%
X71272400Y-139547600D03*
%TD*%
D11*
%TO.P,D1,1,K*%
%TO.N,Net-(D1-K)*%
X77876400Y-86586200D03*
%TO.P,D1,2,A*%
%TO.N,Net-(D1-A)*%
X77876400Y-94206200D03*
%TD*%
%TO.P,R6,1*%
%TO.N,POR*%
X85184800Y-97635200D03*
%TO.P,R6,2*%
%TO.N,Earth*%
X85184800Y-100175200D03*
%TD*%
%TO.P,Q3,1,D*%
%TO.N,Net-(D3-K)*%
X75336400Y-84173200D03*
%TO.P,Q3,2,G*%
%TO.N,Net-(D1-K)*%
X77876400Y-84173200D03*
%TO.P,Q3,3,S*%
%TO.N,Earth*%
X80416400Y-84173200D03*
%TD*%
%TO.P,U1,1*%
%TO.N,Net-(R8-Pad2)*%
X81915000Y-108712000D03*
%TO.P,U1,2,-*%
%TO.N,Net-(J2-Neg)*%
X81915000Y-111252000D03*
%TO.P,U1,3,+*%
%TO.N,Net-(U1-+)*%
X81915000Y-113792000D03*
%TO.P,U1,4*%
%TO.N,Earth*%
X81915000Y-116332000D03*
%TO.P,U1,5*%
%TO.N,N/C*%
X89535000Y-116332000D03*
%TO.P,U1,6*%
X89535000Y-113792000D03*
%TO.P,U1,7*%
X89535000Y-111252000D03*
%TO.P,U1,8*%
%TO.N,+12*%
X89535000Y-108712000D03*
%TD*%
%TO.P,R4,1*%
%TO.N,+12*%
X59276800Y-117109200D03*
%TO.P,R4,2*%
%TO.N,Net-(R4-Pad2)*%
X61816800Y-117109200D03*
%TD*%
%TO.P,D8,1,K*%
%TO.N,Net-(D11-A)*%
X78072800Y-70838200D03*
%TO.P,D8,2,A*%
%TO.N,Net-(D4-K)*%
X78072800Y-78458200D03*
%TD*%
%TO.P,R12,1*%
%TO.N,+12*%
X72986500Y-80772000D03*
%TO.P,R12,2*%
%TO.N,Net-(D3-K)*%
X75526500Y-80772000D03*
%TD*%
D12*
%TO.P,J4,1,Pos*%
%TO.N,K2 com*%
X89916000Y-123190000D03*
%TO.P,J4,2,Neg*%
%TO.N,Net-(D14-K)*%
X89916000Y-130810000D03*
%TD*%
%TO.P,K_cont2,30,Com*%
%TO.N,K1 com*%
X80612800Y-52074400D03*
%TO.P,K_cont2,87,NO*%
%TO.N,unconnected-(K_cont2-NO-Pad87)*%
X67912800Y-52074400D03*
%TO.P,K_cont2,87A,NC*%
%TO.N,Net-(D14-K)*%
X74262800Y-52074400D03*
%TD*%
D11*
%TO.P,D3,1,K*%
%TO.N,Net-(D3-K)*%
X70256400Y-94206200D03*
%TO.P,D3,2,A*%
%TO.N,Net-(D3-A)*%
X70256400Y-86586200D03*
%TD*%
%TO.P,R9,1*%
%TO.N,Net-(R8-Pad2)*%
X85344000Y-102870000D03*
%TO.P,R9,2*%
%TO.N,Net-(D2-A)*%
X85344000Y-105410000D03*
%TD*%
%TO.P,RV1,1,1*%
%TO.N,Net-(R5-Pad1)*%
X62832800Y-98143200D03*
%TO.P,RV1,2,2*%
%TO.N,Net-(U1-+)*%
X65372800Y-100048200D03*
%TO.P,RV1,3,3*%
%TO.N,Net-(R4-Pad2)*%
X62832800Y-101953200D03*
%TD*%
%TO.P,R13,1*%
%TO.N,Net-(D11-A)*%
X81280000Y-66294000D03*
%TO.P,R13,2*%
%TO.N,Earth*%
X83820000Y-66294000D03*
%TD*%
%TO.P,D6,1,K*%
%TO.N,POR*%
X67716400Y-94206200D03*
%TO.P,D6,2,A*%
%TO.N,Net-(D3-A)*%
X67716400Y-86586200D03*
%TD*%
%TO.P,D9,1,K*%
%TO.N,Net-(D9-K)*%
X70452800Y-78458200D03*
%TO.P,D9,2,A*%
%TO.N,Net-(D10-A)*%
X70452800Y-70838200D03*
%TD*%
%TO.P,D7,1,K*%
%TO.N,Net-(D11-A)*%
X80612800Y-70838200D03*
%TO.P,D7,2,A*%
%TO.N,Net-(D2-A)*%
X80612800Y-78458200D03*
%TD*%
%TO.P,R8,1*%
%TO.N,Net-(U1-+)*%
X87884000Y-105410000D03*
%TO.P,R8,2*%
%TO.N,Net-(R8-Pad2)*%
X87884000Y-102870000D03*
%TD*%
%TO.P,Q2,1,D*%
%TO.N,Net-(D1-A)*%
X59022800Y-88491200D03*
%TO.P,Q2,2,G*%
%TO.N,K1 com*%
X59022800Y-91031200D03*
%TO.P,Q2,3,S*%
%TO.N,Earth*%
X59022800Y-93571200D03*
%TD*%
%TO.P,R1,1*%
%TO.N,+12*%
X63594800Y-83411200D03*
%TO.P,R1,2*%
%TO.N,Net-(D4-K)*%
X63594800Y-80871200D03*
%TD*%
D13*
%TO.P,K_coil2,85,Coil_A*%
%TO.N,+12*%
X60292800Y-69568200D03*
%TO.P,K_coil2,86,Coil_B*%
%TO.N,Net-(D5-K)*%
X60292800Y-74648200D03*
%TD*%
D11*
%TO.P,R3,1*%
%TO.N,+12*%
X63594800Y-91539200D03*
%TO.P,R3,2*%
%TO.N,POR*%
X63594800Y-94079200D03*
%TD*%
%TO.P,D12,1,K*%
%TO.N,POR*%
X67912800Y-78458200D03*
%TO.P,D12,2,A*%
%TO.N,Net-(D10-A)*%
X67912800Y-70838200D03*
%TD*%
%TO.P,D10,1,K*%
%TO.N,Net-(D1-A)*%
X72992800Y-78458200D03*
%TO.P,D10,2,A*%
%TO.N,Net-(D10-A)*%
X72992800Y-70838200D03*
%TD*%
D14*
%TO.P,D14,2,A*%
%TO.N,K1 com*%
X129349500Y-120777000D03*
D15*
%TO.P,D14,1,K*%
%TO.N,Net-(D14-K)*%
X140525500Y-132054600D03*
%TD*%
D11*
%TO.P,D4,1,K*%
%TO.N,Net-(D4-K)*%
X72796400Y-94206200D03*
%TO.P,D4,2,A*%
%TO.N,Net-(D3-A)*%
X72796400Y-86586200D03*
%TD*%
%TO.P,D2,1,K*%
%TO.N,Net-(D1-K)*%
X80416400Y-86586200D03*
%TO.P,D2,2,A*%
%TO.N,Net-(D2-A)*%
X80416400Y-94206200D03*
%TD*%
D13*
%TO.P,K_coil1,85,Coil_A*%
%TO.N,+12*%
X60292800Y-58773200D03*
%TO.P,K_coil1,86,Coil_B*%
%TO.N,Net-(D11-K)*%
X60292800Y-63853200D03*
%TD*%
D11*
%TO.P,C1,1*%
%TO.N,POR*%
X80612800Y-97635200D03*
%TO.P,C1,2*%
%TO.N,Earth*%
X80612800Y-100175200D03*
%TD*%
%TO.P,R11,1*%
%TO.N,+12*%
X66001500Y-80772000D03*
%TO.P,R11,2*%
%TO.N,Net-(D3-A)*%
X68541500Y-80772000D03*
%TD*%
%TO.P,R14,1*%
%TO.N,+12*%
X65278000Y-66294000D03*
%TO.P,R14,2*%
%TO.N,Net-(D10-A)*%
X67818000Y-66294000D03*
%TD*%
%TO.P,R15,1*%
%TO.N,+12*%
X73367500Y-66014600D03*
%TO.P,R15,2*%
%TO.N,Net-(D9-K)*%
X75907500Y-66014600D03*
%TD*%
%TO.P,Q4,1,D*%
%TO.N,Net-(D5-K)*%
X67716400Y-84173200D03*
%TO.P,Q4,2,G*%
%TO.N,Net-(D3-A)*%
X70256400Y-84173200D03*
%TO.P,Q4,3,S*%
%TO.N,Earth*%
X72796400Y-84173200D03*
%TD*%
%TO.P,R10,1*%
%TO.N,Net-(D1-K)*%
X80866800Y-80871200D03*
%TO.P,R10,2*%
%TO.N,Earth*%
X83406800Y-80871200D03*
%TD*%
D12*
%TO.P,J1,1,Pos*%
%TO.N,+12*%
X60038800Y-133703200D03*
%TO.P,J1,2,Neg*%
%TO.N,Earth*%
X60038800Y-126083200D03*
%TD*%
%TO.P,J2,1,Pos*%
%TO.N,+12*%
X87370000Y-142000000D03*
%TO.P,J2,2,Neg*%
%TO.N,Net-(J2-Neg)*%
X79750000Y-142000000D03*
%TD*%
D11*
%TO.P,Q5,1,D*%
%TO.N,Net-(D9-K)*%
X75532800Y-68933200D03*
%TO.P,Q5,2,G*%
%TO.N,Net-(D11-A)*%
X78072800Y-68933200D03*
%TO.P,Q5,3,S*%
%TO.N,Earth*%
X80612800Y-68933200D03*
%TD*%
%TO.P,D11,1,K*%
%TO.N,Net-(D11-K)*%
X75532800Y-78458200D03*
%TO.P,D11,2,A*%
%TO.N,Net-(D11-A)*%
X75532800Y-70838200D03*
%TD*%
%TO.P,R2,1*%
%TO.N,+12*%
X63594800Y-86459200D03*
%TO.P,R2,2*%
%TO.N,Net-(D1-A)*%
X63594800Y-88999200D03*
%TD*%
%TO.P,Q1,1,D*%
%TO.N,Net-(D4-K)*%
X59022800Y-80871200D03*
%TO.P,Q1,2,G*%
%TO.N,K2 com*%
X59022800Y-83411200D03*
%TO.P,Q1,3,S*%
%TO.N,Earth*%
X59022800Y-85951200D03*
%TD*%
D12*
%TO.P,J3,1,Pos*%
%TO.N,Net-(D13-K)*%
X98044000Y-130810000D03*
%TO.P,J3,2,Neg*%
%TO.N,K1 com*%
X98044000Y-123190000D03*
%TD*%
D11*
%TO.P,Q6,1,D*%
%TO.N,Net-(D11-K)*%
X67912800Y-68805334D03*
%TO.P,Q6,2,G*%
%TO.N,Net-(D10-A)*%
X70452800Y-68805334D03*
%TO.P,Q6,3,S*%
%TO.N,Earth*%
X72992800Y-68805334D03*
%TD*%
%TO.P,D5,1,K*%
%TO.N,Net-(D5-K)*%
X75336400Y-94206200D03*
%TO.P,D5,2,A*%
%TO.N,Net-(D1-K)*%
X75336400Y-86586200D03*
%TD*%
D12*
%TO.P,K_cont1,30,Com*%
%TO.N,Net-(D13-K)*%
X80612800Y-60960000D03*
%TO.P,K_cont1,87,NO*%
%TO.N,unconnected-(K_cont1-NO-Pad87)*%
X67912800Y-60960000D03*
%TO.P,K_cont1,87A,NC*%
%TO.N,K2 com*%
X74262800Y-60960000D03*
%TD*%
D11*
%TO.P,R5,1*%
%TO.N,Net-(R5-Pad1)*%
X59276800Y-120495200D03*
%TO.P,R5,2*%
%TO.N,Earth*%
X61816800Y-120495200D03*
%TD*%
D15*
%TO.P,D13,1,K*%
%TO.N,Net-(D13-K)*%
X111760000Y-128333500D03*
D14*
%TO.P,D13,2,A*%
%TO.N,K2 com*%
X122936000Y-117157500D03*
%TD*%
D16*
%TO.N,Net-(J2-Neg)*%
X71374000Y-139636500D02*
X71374000Y-143256000D01*
X71374000Y-139636500D02*
X74968100Y-139636500D01*
X71374000Y-139636500D02*
X67678300Y-139636500D01*
X71374000Y-136023800D02*
X71341800Y-135991600D01*
X71374000Y-139636500D02*
X71374000Y-136023800D01*
X79742000Y-142000000D02*
X77419200Y-144322800D01*
X79750000Y-142000000D02*
X79742000Y-142000000D01*
X79820800Y-142000000D02*
X82245200Y-144424400D01*
X79750000Y-142000000D02*
X79820800Y-142000000D01*
X79750000Y-141992000D02*
X82092800Y-139649200D01*
X79750000Y-142000000D02*
X79750000Y-141992000D01*
X79668400Y-142000000D02*
X77368400Y-139700000D01*
X79750000Y-142000000D02*
X79668400Y-142000000D01*
X71374000Y-143256000D02*
X71475600Y-143357600D01*
D17*
X71341800Y-135991600D02*
X71341800Y-121793000D01*
X71341800Y-139418200D02*
X71341800Y-135991600D01*
D16*
%TO.N,K1 com*%
X80612800Y-52037800D02*
X78232000Y-49657000D01*
X80612800Y-52074400D02*
X80612800Y-52037800D01*
X80640600Y-52074400D02*
X83058000Y-49657000D01*
X80612800Y-52074400D02*
X80640600Y-52074400D01*
X83021400Y-54483000D02*
X83058000Y-54483000D01*
X80612800Y-52074400D02*
X83021400Y-54483000D01*
X80612800Y-52102200D02*
X78232000Y-54483000D01*
X80612800Y-52074400D02*
X80612800Y-52102200D01*
%TO.N,K2 com*%
X76675800Y-63373000D02*
X76708000Y-63373000D01*
X74262800Y-60960000D02*
X76675800Y-63373000D01*
X74262800Y-60865200D02*
X76581000Y-58547000D01*
X74262800Y-60960000D02*
X74262800Y-60865200D01*
X72009000Y-58706200D02*
X72009000Y-58674000D01*
X74262800Y-60960000D02*
X72009000Y-58706200D01*
%TO.N,K1 com*%
X129921000Y-120777000D02*
X132080000Y-118618000D01*
X129921000Y-120777000D02*
X132080000Y-122936000D01*
X129921000Y-120777000D02*
X127762000Y-122936000D01*
%TO.N,K2 com*%
X123126500Y-117157500D02*
X125095000Y-119126000D01*
X123126500Y-117157500D02*
X121031000Y-119253000D01*
X123126500Y-117157500D02*
X121031000Y-115062000D01*
X123126500Y-117157500D02*
X125222000Y-115062000D01*
%TO.N,K1 com*%
X98044000Y-123190000D02*
X96139000Y-121285000D01*
X98044000Y-123190000D02*
X95631000Y-125603000D01*
X98044000Y-123444000D02*
X100330000Y-125730000D01*
X98044000Y-123190000D02*
X98044000Y-123444000D01*
X98044000Y-123190000D02*
X100457000Y-120777000D01*
%TO.N,K2 com*%
X89916000Y-123190000D02*
X87376000Y-125730000D01*
X89916000Y-123190000D02*
X92456000Y-120650000D01*
X89916000Y-123190000D02*
X92456000Y-125730000D01*
X89916000Y-123190000D02*
X87503000Y-120777000D01*
%TO.N,Earth*%
X60038800Y-126078800D02*
X57658000Y-123698000D01*
X60038800Y-126083200D02*
X60038800Y-126078800D01*
X59971800Y-126083200D02*
X57531000Y-128524000D01*
X60038800Y-126083200D02*
X59971800Y-126083200D01*
X60038800Y-126083200D02*
X62606600Y-128651000D01*
X62611000Y-123511000D02*
X62611000Y-123444000D01*
X60038800Y-126083200D02*
X62611000Y-123511000D01*
X71374000Y-100901500D02*
X67627500Y-100901500D01*
X71374000Y-100901500D02*
X71374000Y-104521000D01*
X75247500Y-100901500D02*
X75311000Y-100838000D01*
X71374000Y-100901500D02*
X75247500Y-100901500D01*
X71374000Y-100901500D02*
X71374000Y-97536000D01*
D18*
X79121000Y-96012000D02*
X78105000Y-97028000D01*
X79121000Y-93218000D02*
X79121000Y-96012000D01*
X81788000Y-90551000D02*
X79121000Y-93218000D01*
X79243600Y-98806000D02*
X80612800Y-100175200D01*
X82423000Y-90551000D02*
X81788000Y-90551000D01*
X82423000Y-86179800D02*
X82423000Y-90551000D01*
X78105000Y-97028000D02*
X78105000Y-98806000D01*
X78105000Y-98806000D02*
X79243600Y-98806000D01*
X80416400Y-84173200D02*
X82423000Y-86179800D01*
D17*
%TO.N,Net-(D1-A)*%
X77876400Y-94206200D02*
X71374000Y-87703800D01*
X70459600Y-80991400D02*
X72992800Y-78458200D01*
X70358000Y-82550000D02*
X70459600Y-82448400D01*
X63594800Y-88999200D02*
X63985000Y-88999200D01*
X65760600Y-82550000D02*
X70358000Y-82550000D01*
X58928000Y-88519000D02*
X59408200Y-88999200D01*
X70459600Y-82448400D02*
X70459600Y-80991400D01*
X71374000Y-87703800D02*
X71374000Y-82550000D01*
X71272400Y-82448400D02*
X70459600Y-82448400D01*
X59408200Y-88999200D02*
X63594800Y-88999200D01*
X65532000Y-82778600D02*
X65760600Y-82550000D01*
X58955800Y-88491200D02*
X58928000Y-88519000D01*
X65532000Y-87452200D02*
X65532000Y-82778600D01*
X63985000Y-88999200D02*
X65532000Y-87452200D01*
X71374000Y-82550000D02*
X71272400Y-82448400D01*
X59022800Y-88491200D02*
X58955800Y-88491200D01*
%TO.N,Net-(D2-A)*%
X85344000Y-94234000D02*
X85344000Y-80010000D01*
X82804000Y-94234000D02*
X85344000Y-94234000D01*
X83792200Y-78458200D02*
X80612800Y-78458200D01*
X80416400Y-94206200D02*
X82776200Y-94206200D01*
X85344000Y-80010000D02*
X83792200Y-78458200D01*
X82804000Y-105410000D02*
X85344000Y-105410000D01*
X82776200Y-94206200D02*
X82804000Y-94234000D01*
X82804000Y-94234000D02*
X82804000Y-105410000D01*
%TO.N,Net-(D4-K)*%
X78072800Y-76802800D02*
X77470000Y-76200000D01*
X60960000Y-84277200D02*
X60579000Y-84658200D01*
X60579000Y-84658200D02*
X57785000Y-84658200D01*
X57556400Y-81661000D02*
X58233000Y-81661000D01*
X58233000Y-81661000D02*
X59022800Y-80871200D01*
X67310000Y-76200000D02*
X63500000Y-80010000D01*
X57454800Y-81762600D02*
X57556400Y-81661000D01*
X70358000Y-90170000D02*
X72796400Y-92608400D01*
X78072800Y-78458200D02*
X78072800Y-76802800D01*
X63594800Y-80104800D02*
X63594800Y-80871200D01*
X60375800Y-90170000D02*
X70358000Y-90170000D01*
X57531000Y-84404200D02*
X57480200Y-84353400D01*
X57531000Y-89306400D02*
X57531000Y-84404200D01*
X59969400Y-89763600D02*
X57988200Y-89763600D01*
X77470000Y-76200000D02*
X67310000Y-76200000D01*
X59969400Y-89763600D02*
X60375800Y-90170000D01*
X57785000Y-84658200D02*
X57480200Y-84353400D01*
X63594800Y-80871200D02*
X60960000Y-83506000D01*
X72796400Y-92608400D02*
X72796400Y-94206200D01*
X57480200Y-81788000D02*
X57454800Y-81762600D01*
X57988200Y-89763600D02*
X57531000Y-89306400D01*
X60960000Y-83506000D02*
X60960000Y-84277200D01*
X57480200Y-84353400D02*
X57480200Y-81788000D01*
X63500000Y-80010000D02*
X63594800Y-80104800D01*
%TO.N,Net-(D5-K)*%
X66799600Y-85090000D02*
X67716400Y-84173200D01*
X75336400Y-94206200D02*
X75336400Y-95758000D01*
X75336400Y-94206200D02*
X75336400Y-92354400D01*
X56642000Y-95758000D02*
X56642000Y-78299000D01*
X66040000Y-85344000D02*
X66294000Y-85090000D01*
X75336400Y-95758000D02*
X56642000Y-95758000D01*
X56642000Y-78299000D02*
X60292800Y-74648200D01*
X72136000Y-89154000D02*
X66040000Y-89154000D01*
X75336400Y-92354400D02*
X72136000Y-89154000D01*
X66040000Y-89154000D02*
X66040000Y-85344000D01*
X66294000Y-85090000D02*
X66799600Y-85090000D01*
%TO.N,Net-(D11-K)*%
X76962000Y-79887400D02*
X76962000Y-80010000D01*
X75532800Y-78458200D02*
X76962000Y-79887400D01*
X79248000Y-75692000D02*
X78486000Y-74930000D01*
X78740000Y-80010000D02*
X79248000Y-79502000D01*
X76962000Y-80010000D02*
X78740000Y-80010000D01*
X67564000Y-74930000D02*
X66040000Y-73406000D01*
X66040000Y-73406000D02*
X66040000Y-69342000D01*
X66576666Y-68805334D02*
X67912800Y-68805334D01*
X78486000Y-74930000D02*
X67564000Y-74930000D01*
X79248000Y-79502000D02*
X79248000Y-75692000D01*
X66040000Y-69342000D02*
X66576666Y-68805334D01*
%TO.N,K2 com*%
X74262800Y-60960000D02*
X70960800Y-64262000D01*
X63246000Y-78486000D02*
X61976000Y-79756000D01*
X61976000Y-80458000D02*
X59022800Y-83411200D01*
X70960800Y-64262000D02*
X64770000Y-64262000D01*
X63246000Y-65786000D02*
X63246000Y-78486000D01*
D19*
X74262800Y-60960000D02*
X74262800Y-59487200D01*
D17*
X61976000Y-79756000D02*
X61976000Y-80458000D01*
X64770000Y-64262000D02*
X63246000Y-65786000D01*
D18*
%TO.N,K1 com*%
X80612800Y-52074400D02*
X80645000Y-52042200D01*
D17*
%TO.N,+12*%
X73367500Y-66014600D02*
X72122900Y-64770000D01*
X66802000Y-64770000D02*
X65278000Y-66294000D01*
X72122900Y-64770000D02*
X66802000Y-64770000D01*
%TO.N,Net-(J2-Neg)*%
X71341800Y-121793000D02*
X81882800Y-111252000D01*
%TD*%
%TA.AperFunction,Conductor*%
%TO.N,Earth*%
G36*
X79215359Y-94681623D02*
G01*
X79260595Y-94733827D01*
X79311911Y-94843875D01*
X79311912Y-94843877D01*
X79439416Y-95025972D01*
X79439420Y-95025977D01*
X79439423Y-95025981D01*
X79596619Y-95183177D01*
X79596622Y-95183179D01*
X79596627Y-95183183D01*
X79700524Y-95255932D01*
X79778723Y-95310688D01*
X79980204Y-95404640D01*
X80194937Y-95462178D01*
X80416400Y-95481553D01*
X80637863Y-95462178D01*
X80852596Y-95404640D01*
X81054077Y-95310688D01*
X81236181Y-95183177D01*
X81393377Y-95025981D01*
X81484791Y-94895429D01*
X81540248Y-94851101D01*
X81588004Y-94841700D01*
X82042500Y-94841700D01*
X82110621Y-94861702D01*
X82157114Y-94915358D01*
X82168500Y-94967700D01*
X82168500Y-105472591D01*
X82192922Y-105595369D01*
X82240827Y-105711022D01*
X82310375Y-105815108D01*
X82398892Y-105903625D01*
X82502978Y-105973173D01*
X82618631Y-106021078D01*
X82741409Y-106045500D01*
X82866591Y-106045500D01*
X84172396Y-106045500D01*
X84240517Y-106065502D01*
X84275609Y-106099229D01*
X84367020Y-106229777D01*
X84367023Y-106229781D01*
X84524219Y-106386977D01*
X84524223Y-106386980D01*
X84524227Y-106386983D01*
X84628124Y-106459732D01*
X84706323Y-106514488D01*
X84907804Y-106608440D01*
X85122537Y-106665978D01*
X85344000Y-106685353D01*
X85344000Y-107315000D01*
X89027000Y-107315000D01*
X90164500Y-107315000D01*
X90164500Y-107405918D01*
X90144498Y-107474039D01*
X90090842Y-107520532D01*
X90020568Y-107530636D01*
X89985253Y-107520114D01*
X89971204Y-107513563D01*
X89971193Y-107513559D01*
X89929074Y-107502273D01*
X89756463Y-107456022D01*
X89535000Y-107436647D01*
X89313537Y-107456022D01*
X89198463Y-107486856D01*
X89098806Y-107513559D01*
X89098801Y-107513561D01*
X88897323Y-107607512D01*
X88715222Y-107735020D01*
X88715216Y-107735025D01*
X88558025Y-107892216D01*
X88558020Y-107892222D01*
X88430512Y-108074323D01*
X88368305Y-108207727D01*
X88336560Y-108275804D01*
X88279022Y-108490537D01*
X88259647Y-108712000D01*
X88279022Y-108933463D01*
X88325273Y-109106074D01*
X88336559Y-109148193D01*
X88336561Y-109148199D01*
X88430511Y-109349675D01*
X88430512Y-109349677D01*
X88558016Y-109531772D01*
X88558020Y-109531777D01*
X88558023Y-109531781D01*
X88715219Y-109688977D01*
X88715223Y-109688980D01*
X88715227Y-109688983D01*
X88799896Y-109748269D01*
X88897323Y-109816488D01*
X88987787Y-109858672D01*
X89007373Y-109867805D01*
X89060658Y-109914722D01*
X89080119Y-109982999D01*
X89059577Y-110050959D01*
X89007373Y-110096195D01*
X88897323Y-110147512D01*
X88715222Y-110275020D01*
X88715216Y-110275025D01*
X88558025Y-110432216D01*
X88558020Y-110432222D01*
X88430512Y-110614323D01*
X88336561Y-110815801D01*
X88336560Y-110815804D01*
X88279022Y-111030537D01*
X88259647Y-111252000D01*
X88279022Y-111473463D01*
X88306293Y-111575239D01*
X88336559Y-111688193D01*
X88336561Y-111688199D01*
X88430511Y-111889675D01*
X88430512Y-111889677D01*
X88558016Y-112071772D01*
X88558020Y-112071777D01*
X88558023Y-112071781D01*
X88715219Y-112228977D01*
X88715223Y-112228980D01*
X88715227Y-112228983D01*
X88779407Y-112273922D01*
X88897323Y-112356488D01*
X89007373Y-112407805D01*
X89060658Y-112454722D01*
X89080119Y-112522999D01*
X89059577Y-112590959D01*
X89007373Y-112636195D01*
X88897323Y-112687512D01*
X88715222Y-112815020D01*
X88715216Y-112815025D01*
X88558025Y-112972216D01*
X88558020Y-112972222D01*
X88430512Y-113154323D01*
X88336561Y-113355801D01*
X88336560Y-113355804D01*
X88279022Y-113570537D01*
X88259647Y-113792000D01*
X88279022Y-114013463D01*
X88297869Y-114083800D01*
X88336559Y-114228193D01*
X88336561Y-114228199D01*
X88430511Y-114429675D01*
X88430512Y-114429677D01*
X88558016Y-114611772D01*
X88558020Y-114611777D01*
X88558023Y-114611781D01*
X88715219Y-114768977D01*
X88715223Y-114768980D01*
X88715227Y-114768983D01*
X88819124Y-114841732D01*
X88897323Y-114896488D01*
X88934861Y-114913992D01*
X89007373Y-114947805D01*
X89060658Y-114994722D01*
X89080119Y-115062999D01*
X89059577Y-115130959D01*
X89007373Y-115176195D01*
X88897323Y-115227512D01*
X88715222Y-115355020D01*
X88715216Y-115355025D01*
X88558025Y-115512216D01*
X88558020Y-115512222D01*
X88430512Y-115694323D01*
X88336561Y-115895801D01*
X88336559Y-115895806D01*
X88332552Y-115910761D01*
X88279022Y-116110537D01*
X88259647Y-116332000D01*
X88279022Y-116553463D01*
X88312217Y-116677347D01*
X88336559Y-116768193D01*
X88336561Y-116768199D01*
X88402334Y-116909250D01*
X88412995Y-116979442D01*
X88384015Y-117044255D01*
X88324595Y-117083111D01*
X88288139Y-117088500D01*
X83152482Y-117088500D01*
X83084361Y-117068498D01*
X83037868Y-117014842D01*
X83027764Y-116944568D01*
X83038287Y-116909250D01*
X83105420Y-116765281D01*
X83105422Y-116765276D01*
X83162574Y-116551979D01*
X83181820Y-116332000D01*
X83162574Y-116112020D01*
X83105422Y-115898723D01*
X83105420Y-115898718D01*
X83012099Y-115698590D01*
X82966740Y-115633810D01*
X82296000Y-116304550D01*
X82296000Y-116281840D01*
X82270036Y-116184939D01*
X82219876Y-116098060D01*
X82148940Y-116027124D01*
X82062061Y-115976964D01*
X81965160Y-115951000D01*
X81942447Y-115951000D01*
X82613187Y-115280257D01*
X82613187Y-115280256D01*
X82548417Y-115234904D01*
X82548416Y-115234903D01*
X82432570Y-115180884D01*
X82379285Y-115133967D01*
X82359824Y-115065689D01*
X82380366Y-114997730D01*
X82432570Y-114952494D01*
X82515137Y-114913993D01*
X82552671Y-114896491D01*
X82552672Y-114896490D01*
X82552677Y-114896488D01*
X82734781Y-114768977D01*
X82891977Y-114611781D01*
X83019488Y-114429677D01*
X83113440Y-114228196D01*
X83170978Y-114013463D01*
X83190353Y-113792000D01*
X83170978Y-113570537D01*
X83113440Y-113355804D01*
X83019488Y-113154324D01*
X82891977Y-112972219D01*
X82734781Y-112815023D01*
X82734777Y-112815020D01*
X82734772Y-112815016D01*
X82552677Y-112687512D01*
X82552675Y-112687511D01*
X82442627Y-112636195D01*
X82389342Y-112589278D01*
X82369881Y-112521001D01*
X82390423Y-112453041D01*
X82442627Y-112407805D01*
X82552677Y-112356488D01*
X82734781Y-112228977D01*
X82891977Y-112071781D01*
X83019488Y-111889677D01*
X83113440Y-111688196D01*
X83170978Y-111473463D01*
X83190353Y-111252000D01*
X83170978Y-111030537D01*
X83113440Y-110815804D01*
X83019488Y-110614324D01*
X82891977Y-110432219D01*
X82734781Y-110275023D01*
X82734777Y-110275020D01*
X82734772Y-110275016D01*
X82552677Y-110147512D01*
X82552675Y-110147511D01*
X82442627Y-110096195D01*
X82389342Y-110049278D01*
X82369881Y-109981001D01*
X82390423Y-109913041D01*
X82442627Y-109867805D01*
X82552677Y-109816488D01*
X82734781Y-109688977D01*
X82891977Y-109531781D01*
X83019488Y-109349677D01*
X83113440Y-109148196D01*
X83170978Y-108933463D01*
X83190353Y-108712000D01*
X83170978Y-108490537D01*
X83113440Y-108275804D01*
X83019488Y-108074324D01*
X82891977Y-107892219D01*
X82734781Y-107735023D01*
X82734777Y-107735020D01*
X82734772Y-107735016D01*
X82552677Y-107607512D01*
X82552675Y-107607511D01*
X82351199Y-107513561D01*
X82351193Y-107513559D01*
X82309074Y-107502273D01*
X82136463Y-107456022D01*
X81915000Y-107436647D01*
X81693537Y-107456022D01*
X81578463Y-107486856D01*
X81478806Y-107513559D01*
X81478801Y-107513561D01*
X81277323Y-107607512D01*
X81095222Y-107735020D01*
X81095216Y-107735025D01*
X80938025Y-107892216D01*
X80938020Y-107892222D01*
X80810512Y-108074323D01*
X80748305Y-108207727D01*
X80716560Y-108275804D01*
X80659022Y-108490537D01*
X80639647Y-108712000D01*
X80659022Y-108933463D01*
X80705273Y-109106074D01*
X80716559Y-109148193D01*
X80716561Y-109148199D01*
X80810511Y-109349675D01*
X80810512Y-109349677D01*
X80938016Y-109531772D01*
X80938020Y-109531777D01*
X80938023Y-109531781D01*
X81095219Y-109688977D01*
X81095223Y-109688980D01*
X81095227Y-109688983D01*
X81179896Y-109748269D01*
X81277323Y-109816488D01*
X81367787Y-109858672D01*
X81387373Y-109867805D01*
X81440658Y-109914722D01*
X81460119Y-109982999D01*
X81439577Y-110050959D01*
X81387373Y-110096195D01*
X81277323Y-110147512D01*
X81095222Y-110275020D01*
X81095216Y-110275025D01*
X80938025Y-110432216D01*
X80938020Y-110432222D01*
X80810512Y-110614323D01*
X80716561Y-110815801D01*
X80716560Y-110815804D01*
X80659022Y-111030537D01*
X80659022Y-111030539D01*
X80639647Y-111252000D01*
X80659022Y-111473468D01*
X80662083Y-111484889D01*
X80660393Y-111555866D01*
X80629471Y-111606594D01*
X70936692Y-121299375D01*
X70848177Y-121387889D01*
X70848172Y-121387896D01*
X70778627Y-121491977D01*
X70730724Y-121607625D01*
X70730722Y-121607630D01*
X70706300Y-121730406D01*
X70706300Y-129922000D01*
X70686298Y-129990121D01*
X70632642Y-130036614D01*
X70580300Y-130048000D01*
X56698307Y-130048000D01*
X56687325Y-130047521D01*
X56483246Y-130029666D01*
X56461617Y-130025852D01*
X56269082Y-129974263D01*
X56248443Y-129966751D01*
X56067790Y-129882510D01*
X56048768Y-129871527D01*
X55977028Y-129821293D01*
X55932700Y-129765836D01*
X55923300Y-129718081D01*
X55923300Y-126083197D01*
X56612775Y-126083197D01*
X56612775Y-126083202D01*
X56632859Y-126453618D01*
X56692872Y-126819689D01*
X56792116Y-127177132D01*
X56929419Y-127521740D01*
X56929423Y-127521748D01*
X57103183Y-127849495D01*
X57103185Y-127849499D01*
X57311363Y-128156539D01*
X57449397Y-128319047D01*
X58844419Y-126924026D01*
X58924793Y-127034652D01*
X59087348Y-127197207D01*
X59197971Y-127277579D01*
X57800464Y-128675087D01*
X57820833Y-128694381D01*
X57820838Y-128694386D01*
X58116154Y-128918879D01*
X58116160Y-128918883D01*
X58434019Y-129110132D01*
X58434026Y-129110136D01*
X58770685Y-129265892D01*
X58770697Y-129265897D01*
X59122231Y-129384342D01*
X59122248Y-129384347D01*
X59484514Y-129464088D01*
X59484542Y-129464093D01*
X59853311Y-129504199D01*
X59853327Y-129504200D01*
X60224273Y-129504200D01*
X60224288Y-129504199D01*
X60593057Y-129464093D01*
X60593085Y-129464088D01*
X60955351Y-129384347D01*
X60955368Y-129384342D01*
X61306902Y-129265897D01*
X61306914Y-129265892D01*
X61643573Y-129110136D01*
X61643580Y-129110132D01*
X61961439Y-128918883D01*
X61961445Y-128918879D01*
X62256762Y-128694386D01*
X62256766Y-128694382D01*
X62277134Y-128675088D01*
X62277134Y-128675087D01*
X60879627Y-127277579D01*
X60990252Y-127197207D01*
X61152807Y-127034652D01*
X61233180Y-126924027D01*
X62628201Y-128319047D01*
X62766235Y-128156540D01*
X62974414Y-127849499D01*
X62974416Y-127849495D01*
X63148176Y-127521748D01*
X63148180Y-127521740D01*
X63285483Y-127177132D01*
X63384727Y-126819689D01*
X63444740Y-126453618D01*
X63464825Y-126083202D01*
X63464825Y-126083197D01*
X63444740Y-125712781D01*
X63384727Y-125346710D01*
X63285483Y-124989267D01*
X63148180Y-124644659D01*
X63148176Y-124644651D01*
X62974416Y-124316904D01*
X62974414Y-124316900D01*
X62766239Y-124009865D01*
X62628200Y-123847352D01*
X61233179Y-125242372D01*
X61152807Y-125131748D01*
X60990252Y-124969193D01*
X60879626Y-124888819D01*
X62277133Y-123491312D01*
X62256758Y-123472012D01*
X61961445Y-123247520D01*
X61961439Y-123247516D01*
X61643580Y-123056267D01*
X61643573Y-123056263D01*
X61306914Y-122900507D01*
X61306902Y-122900502D01*
X60955368Y-122782057D01*
X60955351Y-122782052D01*
X60593085Y-122702311D01*
X60593057Y-122702306D01*
X60224288Y-122662200D01*
X59853311Y-122662200D01*
X59484542Y-122702306D01*
X59484514Y-122702311D01*
X59122248Y-122782052D01*
X59122231Y-122782057D01*
X58770697Y-122900502D01*
X58770685Y-122900507D01*
X58434026Y-123056263D01*
X58434019Y-123056267D01*
X58116160Y-123247516D01*
X58116154Y-123247520D01*
X57820831Y-123472019D01*
X57800464Y-123491310D01*
X57800464Y-123491311D01*
X59197972Y-124888819D01*
X59087348Y-124969193D01*
X58924793Y-125131748D01*
X58844419Y-125242372D01*
X57449398Y-123847351D01*
X57311367Y-124009854D01*
X57311365Y-124009857D01*
X57103185Y-124316900D01*
X57103183Y-124316904D01*
X56929423Y-124644651D01*
X56929419Y-124644659D01*
X56792116Y-124989267D01*
X56692872Y-125346710D01*
X56632859Y-125712781D01*
X56612775Y-126083197D01*
X55923300Y-126083197D01*
X55923300Y-120495200D01*
X58001447Y-120495200D01*
X58020822Y-120716663D01*
X58043173Y-120800076D01*
X58078359Y-120931393D01*
X58078361Y-120931399D01*
X58172311Y-121132875D01*
X58172312Y-121132877D01*
X58299816Y-121314972D01*
X58299820Y-121314977D01*
X58299823Y-121314981D01*
X58457019Y-121472177D01*
X58457023Y-121472180D01*
X58457027Y-121472183D01*
X58560924Y-121544932D01*
X58639123Y-121599688D01*
X58840604Y-121693640D01*
X59055337Y-121751178D01*
X59276800Y-121770553D01*
X59498263Y-121751178D01*
X59712996Y-121693640D01*
X59914477Y-121599688D01*
X60096581Y-121472177D01*
X60253777Y-121314981D01*
X60381288Y-121132877D01*
X60383275Y-121128617D01*
X60437294Y-121012771D01*
X60484211Y-120959485D01*
X60552488Y-120940024D01*
X60620448Y-120960565D01*
X60665684Y-121012770D01*
X60719703Y-121128616D01*
X60719704Y-121128617D01*
X60765057Y-121193387D01*
X61435800Y-120522645D01*
X61435800Y-120545360D01*
X61461764Y-120642261D01*
X61511924Y-120729140D01*
X61582860Y-120800076D01*
X61669739Y-120850236D01*
X61766640Y-120876200D01*
X61789353Y-120876200D01*
X61118611Y-121546940D01*
X61118611Y-121546941D01*
X61183388Y-121592298D01*
X61383518Y-121685620D01*
X61383523Y-121685622D01*
X61596820Y-121742774D01*
X61816800Y-121762020D01*
X62036779Y-121742774D01*
X62250076Y-121685622D01*
X62250081Y-121685620D01*
X62450210Y-121592299D01*
X62514987Y-121546941D01*
X62514987Y-121546939D01*
X61844248Y-120876200D01*
X61866960Y-120876200D01*
X61963861Y-120850236D01*
X62050740Y-120800076D01*
X62121676Y-120729140D01*
X62171836Y-120642261D01*
X62197800Y-120545360D01*
X62197800Y-120522648D01*
X62868539Y-121193387D01*
X62868541Y-121193387D01*
X62913899Y-121128610D01*
X63007220Y-120928481D01*
X63007222Y-120928476D01*
X63064374Y-120715179D01*
X63083620Y-120495200D01*
X63064374Y-120275220D01*
X63007222Y-120061923D01*
X63007220Y-120061918D01*
X62913899Y-119861790D01*
X62868540Y-119797011D01*
X62197800Y-120467751D01*
X62197800Y-120445040D01*
X62171836Y-120348139D01*
X62121676Y-120261260D01*
X62050740Y-120190324D01*
X61963861Y-120140164D01*
X61866960Y-120114200D01*
X61844247Y-120114200D01*
X62514987Y-119443457D01*
X62514987Y-119443456D01*
X62450217Y-119398104D01*
X62450216Y-119398103D01*
X62250081Y-119304779D01*
X62250076Y-119304777D01*
X62036779Y-119247625D01*
X61816800Y-119228379D01*
X61596820Y-119247625D01*
X61383523Y-119304777D01*
X61383519Y-119304779D01*
X61183389Y-119398101D01*
X61118610Y-119443458D01*
X61789352Y-120114200D01*
X61766640Y-120114200D01*
X61669739Y-120140164D01*
X61582860Y-120190324D01*
X61511924Y-120261260D01*
X61461764Y-120348139D01*
X61435800Y-120445040D01*
X61435800Y-120467752D01*
X60765058Y-119797010D01*
X60719700Y-119861791D01*
X60665683Y-119977630D01*
X60618766Y-120030914D01*
X60550489Y-120050375D01*
X60482529Y-120029833D01*
X60437294Y-119977629D01*
X60381288Y-119857524D01*
X60253777Y-119675419D01*
X60096581Y-119518223D01*
X60096577Y-119518220D01*
X60096572Y-119518216D01*
X59914477Y-119390712D01*
X59914475Y-119390711D01*
X59712999Y-119296761D01*
X59712993Y-119296759D01*
X59670874Y-119285473D01*
X59498263Y-119239222D01*
X59276800Y-119219847D01*
X59055337Y-119239222D01*
X58940263Y-119270056D01*
X58840606Y-119296759D01*
X58840601Y-119296761D01*
X58639123Y-119390712D01*
X58457022Y-119518220D01*
X58457016Y-119518225D01*
X58299825Y-119675416D01*
X58299820Y-119675422D01*
X58172312Y-119857523D01*
X58078361Y-120059001D01*
X58078359Y-120059006D01*
X58063570Y-120114200D01*
X58020822Y-120273737D01*
X58001447Y-120495200D01*
X55923300Y-120495200D01*
X55923300Y-117109200D01*
X58001447Y-117109200D01*
X58020822Y-117330663D01*
X58034401Y-117381339D01*
X58078359Y-117545393D01*
X58078361Y-117545399D01*
X58172311Y-117746875D01*
X58172312Y-117746877D01*
X58299816Y-117928972D01*
X58299820Y-117928977D01*
X58299823Y-117928981D01*
X58457019Y-118086177D01*
X58457023Y-118086180D01*
X58457027Y-118086183D01*
X58459538Y-118087941D01*
X58639123Y-118213688D01*
X58840604Y-118307640D01*
X59055337Y-118365178D01*
X59276800Y-118384553D01*
X59498263Y-118365178D01*
X59712996Y-118307640D01*
X59914477Y-118213688D01*
X60096581Y-118086177D01*
X60253777Y-117928981D01*
X60381288Y-117746877D01*
X60432605Y-117636826D01*
X60479522Y-117583542D01*
X60547799Y-117564081D01*
X60615759Y-117584623D01*
X60660995Y-117636827D01*
X60712311Y-117746875D01*
X60712312Y-117746877D01*
X60839816Y-117928972D01*
X60839820Y-117928977D01*
X60839823Y-117928981D01*
X60997019Y-118086177D01*
X60997023Y-118086180D01*
X60997027Y-118086183D01*
X60999538Y-118087941D01*
X61179123Y-118213688D01*
X61380604Y-118307640D01*
X61595337Y-118365178D01*
X61816800Y-118384553D01*
X62038263Y-118365178D01*
X62252996Y-118307640D01*
X62454477Y-118213688D01*
X62636581Y-118086177D01*
X62793777Y-117928981D01*
X62921288Y-117746877D01*
X63015240Y-117545396D01*
X63072778Y-117330663D01*
X63092153Y-117109200D01*
X63072778Y-116887737D01*
X63015240Y-116673004D01*
X62921288Y-116471524D01*
X62793777Y-116289419D01*
X62636581Y-116132223D01*
X62636577Y-116132220D01*
X62636572Y-116132216D01*
X62454477Y-116004712D01*
X62454475Y-116004711D01*
X62252999Y-115910761D01*
X62252993Y-115910759D01*
X62197180Y-115895804D01*
X62038263Y-115853222D01*
X61816800Y-115833847D01*
X61595337Y-115853222D01*
X61480263Y-115884056D01*
X61380606Y-115910759D01*
X61380601Y-115910761D01*
X61179123Y-116004712D01*
X60997022Y-116132220D01*
X60997016Y-116132225D01*
X60839825Y-116289416D01*
X60839820Y-116289422D01*
X60712312Y-116471523D01*
X60660995Y-116581573D01*
X60614077Y-116634858D01*
X60545800Y-116654319D01*
X60477840Y-116633777D01*
X60432605Y-116581573D01*
X60419497Y-116553463D01*
X60381288Y-116471524D01*
X60253777Y-116289419D01*
X60096581Y-116132223D01*
X60096577Y-116132220D01*
X60096572Y-116132216D01*
X59914477Y-116004712D01*
X59914475Y-116004711D01*
X59712999Y-115910761D01*
X59712993Y-115910759D01*
X59657180Y-115895804D01*
X59498263Y-115853222D01*
X59276800Y-115833847D01*
X59055337Y-115853222D01*
X58940263Y-115884056D01*
X58840606Y-115910759D01*
X58840601Y-115910761D01*
X58639123Y-116004712D01*
X58457022Y-116132220D01*
X58457016Y-116132225D01*
X58299825Y-116289416D01*
X58299820Y-116289422D01*
X58172312Y-116471523D01*
X58078361Y-116673001D01*
X58078359Y-116673006D01*
X58077196Y-116677347D01*
X58020822Y-116887737D01*
X58001447Y-117109200D01*
X55923300Y-117109200D01*
X55923300Y-110185196D01*
X58321011Y-110185196D01*
X58321011Y-110185203D01*
X58340545Y-110483237D01*
X58340547Y-110483252D01*
X58398816Y-110776186D01*
X58398817Y-110776190D01*
X58415030Y-110823950D01*
X58494824Y-111059015D01*
X58494827Y-111059021D01*
X58626925Y-111326892D01*
X58792868Y-111575242D01*
X58989799Y-111799800D01*
X59214357Y-111996731D01*
X59214359Y-111996732D01*
X59214361Y-111996734D01*
X59462705Y-112162673D01*
X59730585Y-112294776D01*
X60013415Y-112390784D01*
X60236641Y-112435186D01*
X60306347Y-112449052D01*
X60306349Y-112449052D01*
X60306358Y-112449054D01*
X60476667Y-112460216D01*
X60604397Y-112468589D01*
X60604400Y-112468589D01*
X60604403Y-112468589D01*
X60716165Y-112461263D01*
X60902442Y-112449054D01*
X61195385Y-112390784D01*
X61478215Y-112294776D01*
X61746095Y-112162673D01*
X61994439Y-111996734D01*
X62219000Y-111799800D01*
X62415934Y-111575239D01*
X62581873Y-111326895D01*
X62713976Y-111059015D01*
X62809984Y-110776185D01*
X62868254Y-110483242D01*
X62880463Y-110296965D01*
X62887789Y-110185203D01*
X62887789Y-110185196D01*
X62873249Y-109963364D01*
X62868254Y-109887158D01*
X62864404Y-109867805D01*
X62840627Y-109748269D01*
X62809984Y-109594215D01*
X62713976Y-109311385D01*
X62581873Y-109043506D01*
X62415934Y-108795161D01*
X62415931Y-108795157D01*
X62219000Y-108570599D01*
X61994442Y-108373668D01*
X61746092Y-108207725D01*
X61478221Y-108075627D01*
X61478215Y-108075624D01*
X61382296Y-108043063D01*
X61195390Y-107979617D01*
X61195386Y-107979616D01*
X60902452Y-107921347D01*
X60902437Y-107921345D01*
X60604403Y-107901811D01*
X60604397Y-107901811D01*
X60306362Y-107921345D01*
X60306347Y-107921347D01*
X60013413Y-107979616D01*
X60013409Y-107979617D01*
X59735510Y-108073951D01*
X59730585Y-108075624D01*
X59730582Y-108075625D01*
X59730578Y-108075627D01*
X59462708Y-108207725D01*
X59214361Y-108373665D01*
X59214357Y-108373668D01*
X58989799Y-108570599D01*
X58792868Y-108795157D01*
X58792865Y-108795161D01*
X58626925Y-109043508D01*
X58494827Y-109311378D01*
X58494823Y-109311388D01*
X58398817Y-109594209D01*
X58398816Y-109594213D01*
X58340547Y-109887147D01*
X58340545Y-109887162D01*
X58321011Y-110185196D01*
X55923300Y-110185196D01*
X55923300Y-101953200D01*
X61557447Y-101953200D01*
X61576822Y-102174663D01*
X61614402Y-102314912D01*
X61634359Y-102389393D01*
X61634361Y-102389399D01*
X61728311Y-102590875D01*
X61728312Y-102590877D01*
X61855816Y-102772972D01*
X61855820Y-102772977D01*
X61855823Y-102772981D01*
X62013019Y-102930177D01*
X62013023Y-102930180D01*
X62013027Y-102930183D01*
X62116924Y-103002932D01*
X62195123Y-103057688D01*
X62396604Y-103151640D01*
X62611337Y-103209178D01*
X62832800Y-103228553D01*
X63054263Y-103209178D01*
X63268996Y-103151640D01*
X63470477Y-103057688D01*
X63652581Y-102930177D01*
X63809777Y-102772981D01*
X63937288Y-102590877D01*
X64031240Y-102389396D01*
X64088778Y-102174663D01*
X64108153Y-101953200D01*
X64088778Y-101731737D01*
X64031240Y-101517004D01*
X63937288Y-101315524D01*
X63809777Y-101133419D01*
X63652581Y-100976223D01*
X63652577Y-100976220D01*
X63652572Y-100976216D01*
X63470477Y-100848712D01*
X63470475Y-100848711D01*
X63268999Y-100754761D01*
X63268993Y-100754759D01*
X63226874Y-100743473D01*
X63054263Y-100697222D01*
X62832800Y-100677847D01*
X62611337Y-100697222D01*
X62535428Y-100717562D01*
X62396606Y-100754759D01*
X62396601Y-100754761D01*
X62195123Y-100848712D01*
X62013022Y-100976220D01*
X62013016Y-100976225D01*
X61855825Y-101133416D01*
X61855820Y-101133422D01*
X61728312Y-101315523D01*
X61634361Y-101517001D01*
X61634359Y-101517006D01*
X61613555Y-101594647D01*
X61576822Y-101731737D01*
X61557447Y-101953200D01*
X55923300Y-101953200D01*
X55923300Y-100048200D01*
X64097447Y-100048200D01*
X64116822Y-100269663D01*
X64130916Y-100322261D01*
X64174359Y-100484393D01*
X64174361Y-100484399D01*
X64268311Y-100685875D01*
X64268312Y-100685877D01*
X64395816Y-100867972D01*
X64395820Y-100867977D01*
X64395823Y-100867981D01*
X64553019Y-101025177D01*
X64553023Y-101025180D01*
X64553027Y-101025183D01*
X64606464Y-101062600D01*
X64735123Y-101152688D01*
X64936604Y-101246640D01*
X65151337Y-101304178D01*
X65372800Y-101323553D01*
X65594263Y-101304178D01*
X65808996Y-101246640D01*
X66010477Y-101152688D01*
X66192581Y-101025177D01*
X66349777Y-100867981D01*
X66477288Y-100685877D01*
X66571240Y-100484396D01*
X66628778Y-100269663D01*
X66648153Y-100048200D01*
X66628778Y-99826737D01*
X66571240Y-99612004D01*
X66477288Y-99410524D01*
X66349777Y-99228419D01*
X66192581Y-99071223D01*
X66192577Y-99071220D01*
X66192572Y-99071216D01*
X66010477Y-98943712D01*
X66010475Y-98943711D01*
X65808999Y-98849761D01*
X65808993Y-98849759D01*
X65748836Y-98833640D01*
X65594263Y-98792222D01*
X65372800Y-98772847D01*
X65151337Y-98792222D01*
X65036263Y-98823056D01*
X64936606Y-98849759D01*
X64936601Y-98849761D01*
X64735123Y-98943712D01*
X64553022Y-99071220D01*
X64553016Y-99071225D01*
X64395825Y-99228416D01*
X64395820Y-99228422D01*
X64268312Y-99410523D01*
X64207101Y-99541790D01*
X64174360Y-99612004D01*
X64116822Y-99826737D01*
X64097447Y-100048200D01*
X55923300Y-100048200D01*
X55923300Y-98143200D01*
X61557447Y-98143200D01*
X61576822Y-98364663D01*
X61623073Y-98537274D01*
X61634359Y-98579393D01*
X61634361Y-98579399D01*
X61728311Y-98780875D01*
X61728312Y-98780877D01*
X61855816Y-98962972D01*
X61855820Y-98962977D01*
X61855823Y-98962981D01*
X62013019Y-99120177D01*
X62013023Y-99120180D01*
X62013027Y-99120183D01*
X62116924Y-99192932D01*
X62195123Y-99247688D01*
X62396604Y-99341640D01*
X62611337Y-99399178D01*
X62832800Y-99418553D01*
X63054263Y-99399178D01*
X63268996Y-99341640D01*
X63470477Y-99247688D01*
X63652581Y-99120177D01*
X63809777Y-98962981D01*
X63937288Y-98780877D01*
X64031240Y-98579396D01*
X64088778Y-98364663D01*
X64108153Y-98143200D01*
X64088778Y-97921737D01*
X64031240Y-97707004D01*
X63976568Y-97589759D01*
X67597400Y-97589759D01*
X67597400Y-100562600D01*
X70286223Y-100562600D01*
X70256400Y-100712533D01*
X70256400Y-100912667D01*
X70286223Y-101062600D01*
X67597400Y-101062600D01*
X67597400Y-104035440D01*
X67603800Y-104094971D01*
X67654047Y-104229689D01*
X67740210Y-104344789D01*
X67855310Y-104430952D01*
X67990028Y-104481199D01*
X68049559Y-104487599D01*
X68049576Y-104487600D01*
X71022400Y-104487600D01*
X71022400Y-101798776D01*
X71172333Y-101828600D01*
X71372467Y-101828600D01*
X71522400Y-101798776D01*
X71522400Y-104487600D01*
X74495224Y-104487600D01*
X74495240Y-104487599D01*
X74554771Y-104481199D01*
X74689489Y-104430952D01*
X74804589Y-104344789D01*
X74890752Y-104229689D01*
X74940999Y-104094971D01*
X74947399Y-104035440D01*
X74947400Y-104035423D01*
X74947400Y-101062600D01*
X72258577Y-101062600D01*
X72288400Y-100912667D01*
X72288400Y-100712533D01*
X72258577Y-100562600D01*
X74947400Y-100562600D01*
X74947400Y-97635200D01*
X79337447Y-97635200D01*
X79356822Y-97856663D01*
X79403073Y-98029274D01*
X79414359Y-98071393D01*
X79414361Y-98071399D01*
X79508311Y-98272875D01*
X79508312Y-98272877D01*
X79635816Y-98454972D01*
X79635820Y-98454977D01*
X79635823Y-98454981D01*
X79793019Y-98612177D01*
X79793023Y-98612180D01*
X79793027Y-98612183D01*
X79896924Y-98684932D01*
X79975123Y-98739688D01*
X80095229Y-98795694D01*
X80148514Y-98842611D01*
X80167975Y-98910888D01*
X80147433Y-98978848D01*
X80095230Y-99024083D01*
X79979391Y-99078100D01*
X79914610Y-99123458D01*
X80585352Y-99794200D01*
X80562640Y-99794200D01*
X80465739Y-99820164D01*
X80378860Y-99870324D01*
X80307924Y-99941260D01*
X80257764Y-100028139D01*
X80231800Y-100125040D01*
X80231800Y-100147752D01*
X79561058Y-99477010D01*
X79515701Y-99541789D01*
X79422379Y-99741919D01*
X79422377Y-99741923D01*
X79365225Y-99955220D01*
X79345979Y-100175200D01*
X79365225Y-100395179D01*
X79422377Y-100608476D01*
X79422379Y-100608481D01*
X79515703Y-100808616D01*
X79515704Y-100808617D01*
X79561057Y-100873387D01*
X80231800Y-100202645D01*
X80231800Y-100225360D01*
X80257764Y-100322261D01*
X80307924Y-100409140D01*
X80378860Y-100480076D01*
X80465739Y-100530236D01*
X80562640Y-100556200D01*
X80585353Y-100556200D01*
X79914611Y-101226940D01*
X79914611Y-101226941D01*
X79979388Y-101272298D01*
X80179518Y-101365620D01*
X80179523Y-101365622D01*
X80392820Y-101422774D01*
X80612800Y-101442020D01*
X80832779Y-101422774D01*
X81046076Y-101365622D01*
X81046081Y-101365620D01*
X81246210Y-101272299D01*
X81310987Y-101226941D01*
X81310987Y-101226939D01*
X80640248Y-100556200D01*
X80662960Y-100556200D01*
X80759861Y-100530236D01*
X80846740Y-100480076D01*
X80917676Y-100409140D01*
X80967836Y-100322261D01*
X80993800Y-100225360D01*
X80993800Y-100202648D01*
X81664539Y-100873387D01*
X81664541Y-100873387D01*
X81709899Y-100808610D01*
X81803220Y-100608481D01*
X81803222Y-100608476D01*
X81860374Y-100395179D01*
X81879620Y-100175200D01*
X81860374Y-99955220D01*
X81803222Y-99741923D01*
X81803220Y-99741918D01*
X81709899Y-99541790D01*
X81664540Y-99477011D01*
X80993800Y-100147751D01*
X80993800Y-100125040D01*
X80967836Y-100028139D01*
X80917676Y-99941260D01*
X80846740Y-99870324D01*
X80759861Y-99820164D01*
X80662960Y-99794200D01*
X80640247Y-99794200D01*
X81310987Y-99123457D01*
X81310987Y-99123456D01*
X81246217Y-99078104D01*
X81246216Y-99078103D01*
X81130370Y-99024084D01*
X81077085Y-98977167D01*
X81057624Y-98908889D01*
X81078166Y-98840930D01*
X81130370Y-98795694D01*
X81250477Y-98739688D01*
X81432581Y-98612177D01*
X81589777Y-98454981D01*
X81717288Y-98272877D01*
X81811240Y-98071396D01*
X81868778Y-97856663D01*
X81888153Y-97635200D01*
X81868778Y-97413737D01*
X81811240Y-97199004D01*
X81717288Y-96997524D01*
X81589777Y-96815419D01*
X81432581Y-96658223D01*
X81432577Y-96658220D01*
X81432572Y-96658216D01*
X81250477Y-96530712D01*
X81250475Y-96530711D01*
X81048999Y-96436761D01*
X81048993Y-96436759D01*
X81006874Y-96425473D01*
X80834263Y-96379222D01*
X80612800Y-96359847D01*
X80391337Y-96379222D01*
X80276263Y-96410056D01*
X80176606Y-96436759D01*
X80176601Y-96436761D01*
X79975123Y-96530712D01*
X79793022Y-96658220D01*
X79793016Y-96658225D01*
X79635825Y-96815416D01*
X79635820Y-96815422D01*
X79508312Y-96997523D01*
X79429649Y-97166216D01*
X79414360Y-97199004D01*
X79356822Y-97413737D01*
X79337447Y-97635200D01*
X74947400Y-97635200D01*
X74947400Y-97589776D01*
X74947399Y-97589759D01*
X74940999Y-97530228D01*
X74890752Y-97395510D01*
X74804589Y-97280410D01*
X74689489Y-97194247D01*
X74554771Y-97144000D01*
X74495240Y-97137600D01*
X71522400Y-97137600D01*
X71522400Y-99826423D01*
X71372467Y-99796600D01*
X71172333Y-99796600D01*
X71022400Y-99826423D01*
X71022400Y-97137600D01*
X68049559Y-97137600D01*
X67990028Y-97144000D01*
X67855310Y-97194247D01*
X67740210Y-97280410D01*
X67654047Y-97395510D01*
X67603800Y-97530228D01*
X67597400Y-97589759D01*
X63976568Y-97589759D01*
X63937288Y-97505524D01*
X63809777Y-97323419D01*
X63652581Y-97166223D01*
X63652577Y-97166220D01*
X63652572Y-97166216D01*
X63470477Y-97038712D01*
X63470475Y-97038711D01*
X63268999Y-96944761D01*
X63268993Y-96944759D01*
X63226874Y-96933473D01*
X63054263Y-96887222D01*
X62832800Y-96867847D01*
X62611337Y-96887222D01*
X62496263Y-96918056D01*
X62396606Y-96944759D01*
X62396601Y-96944761D01*
X62195123Y-97038712D01*
X62013022Y-97166220D01*
X62013016Y-97166225D01*
X61855825Y-97323416D01*
X61855820Y-97323422D01*
X61728312Y-97505523D01*
X61634361Y-97707001D01*
X61634360Y-97707004D01*
X61576822Y-97921737D01*
X61557447Y-98143200D01*
X55923300Y-98143200D01*
X55923300Y-96240999D01*
X55943302Y-96172878D01*
X55996958Y-96126385D01*
X56067232Y-96116281D01*
X56131812Y-96145775D01*
X56146698Y-96161064D01*
X56148373Y-96163105D01*
X56148375Y-96163108D01*
X56236892Y-96251625D01*
X56340978Y-96321173D01*
X56456631Y-96369078D01*
X56579409Y-96393500D01*
X56579410Y-96393500D01*
X75398990Y-96393500D01*
X75398991Y-96393500D01*
X75521769Y-96369078D01*
X75637422Y-96321173D01*
X75741508Y-96251625D01*
X75830025Y-96163108D01*
X75899573Y-96059022D01*
X75947478Y-95943369D01*
X75971900Y-95820591D01*
X75971900Y-95377804D01*
X75991902Y-95309683D01*
X76025629Y-95274591D01*
X76053165Y-95255309D01*
X76156181Y-95183177D01*
X76313377Y-95025981D01*
X76440888Y-94843877D01*
X76492205Y-94733826D01*
X76539122Y-94680542D01*
X76607399Y-94661081D01*
X76675359Y-94681623D01*
X76720595Y-94733827D01*
X76771911Y-94843875D01*
X76771912Y-94843877D01*
X76899416Y-95025972D01*
X76899420Y-95025977D01*
X76899423Y-95025981D01*
X77056619Y-95183177D01*
X77056622Y-95183179D01*
X77056627Y-95183183D01*
X77160524Y-95255932D01*
X77238723Y-95310688D01*
X77440204Y-95404640D01*
X77654937Y-95462178D01*
X77876400Y-95481553D01*
X78097863Y-95462178D01*
X78312596Y-95404640D01*
X78514077Y-95310688D01*
X78696181Y-95183177D01*
X78853377Y-95025981D01*
X78980888Y-94843877D01*
X79032205Y-94733826D01*
X79079122Y-94680542D01*
X79147399Y-94661081D01*
X79215359Y-94681623D01*
G37*
%TD.AperFunction*%
%TA.AperFunction,Conductor*%
G36*
X80566156Y-113571541D02*
G01*
X80622992Y-113614088D01*
X80647803Y-113680608D01*
X80647645Y-113700578D01*
X80639647Y-113792000D01*
X80659022Y-114013463D01*
X80677869Y-114083800D01*
X80716559Y-114228193D01*
X80716561Y-114228199D01*
X80810511Y-114429675D01*
X80810512Y-114429677D01*
X80938016Y-114611772D01*
X80938020Y-114611777D01*
X80938023Y-114611781D01*
X81095219Y-114768977D01*
X81095223Y-114768980D01*
X81095227Y-114768983D01*
X81199124Y-114841732D01*
X81277323Y-114896488D01*
X81397429Y-114952494D01*
X81450714Y-114999411D01*
X81470175Y-115067688D01*
X81449633Y-115135648D01*
X81397430Y-115180883D01*
X81281591Y-115234900D01*
X81216810Y-115280258D01*
X81887552Y-115951000D01*
X81864840Y-115951000D01*
X81767939Y-115976964D01*
X81681060Y-116027124D01*
X81610124Y-116098060D01*
X81559964Y-116184939D01*
X81534000Y-116281840D01*
X81534000Y-116304552D01*
X80863258Y-115633810D01*
X80817901Y-115698589D01*
X80724579Y-115898719D01*
X80724577Y-115898723D01*
X80667425Y-116112020D01*
X80648179Y-116332000D01*
X80667425Y-116551979D01*
X80724577Y-116765276D01*
X80724579Y-116765281D01*
X80791713Y-116909250D01*
X80802374Y-116979442D01*
X80773394Y-117044255D01*
X80713974Y-117083111D01*
X80677518Y-117088500D01*
X77847992Y-117088500D01*
X77754104Y-117098595D01*
X77738843Y-117100236D01*
X77738841Y-117100236D01*
X77738835Y-117100237D01*
X77687332Y-117111441D01*
X77583174Y-117146109D01*
X77583169Y-117146111D01*
X77565453Y-117157498D01*
X77565452Y-117157499D01*
X77460215Y-117225130D01*
X77460213Y-117225131D01*
X77407417Y-117270880D01*
X77311704Y-117381337D01*
X77311703Y-117381338D01*
X77250986Y-117514284D01*
X77231302Y-117581320D01*
X77231301Y-117581324D01*
X77231301Y-117581326D01*
X77231300Y-117581330D01*
X77211279Y-117720588D01*
X77210500Y-117726003D01*
X77210500Y-129727184D01*
X77190498Y-129795305D01*
X77156771Y-129830397D01*
X77098030Y-129871528D01*
X77079009Y-129882510D01*
X76898356Y-129966751D01*
X76877717Y-129974263D01*
X76685182Y-130025852D01*
X76663553Y-130029666D01*
X76459475Y-130047521D01*
X76448493Y-130048000D01*
X72103300Y-130048000D01*
X72035179Y-130027998D01*
X71988686Y-129974342D01*
X71977300Y-129922000D01*
X71977300Y-122108422D01*
X71997302Y-122040301D01*
X72014200Y-122019332D01*
X80433031Y-113600500D01*
X80495341Y-113566476D01*
X80566156Y-113571541D01*
G37*
%TD.AperFunction*%
%TA.AperFunction,Conductor*%
G36*
X85344000Y-96373774D02*
G01*
X85184800Y-96359847D01*
X84963337Y-96379222D01*
X84848263Y-96410056D01*
X84748606Y-96436759D01*
X84748601Y-96436761D01*
X84547123Y-96530712D01*
X84365022Y-96658220D01*
X84365016Y-96658225D01*
X84207825Y-96815416D01*
X84207820Y-96815422D01*
X84080312Y-96997523D01*
X84001649Y-97166216D01*
X83986360Y-97199004D01*
X83928822Y-97413737D01*
X83909447Y-97635200D01*
X83928822Y-97856663D01*
X83975073Y-98029274D01*
X83986359Y-98071393D01*
X83986361Y-98071399D01*
X84080311Y-98272875D01*
X84080312Y-98272877D01*
X84207816Y-98454972D01*
X84207820Y-98454977D01*
X84207823Y-98454981D01*
X84365019Y-98612177D01*
X84365023Y-98612180D01*
X84365027Y-98612183D01*
X84468924Y-98684932D01*
X84547123Y-98739688D01*
X84667229Y-98795694D01*
X84720514Y-98842611D01*
X84739975Y-98910888D01*
X84719433Y-98978848D01*
X84667230Y-99024083D01*
X84551391Y-99078100D01*
X84486610Y-99123458D01*
X85157352Y-99794200D01*
X85134640Y-99794200D01*
X85037739Y-99820164D01*
X84950860Y-99870324D01*
X84879924Y-99941260D01*
X84829764Y-100028139D01*
X84803800Y-100125040D01*
X84803800Y-100147752D01*
X84133058Y-99477010D01*
X84087701Y-99541789D01*
X83994379Y-99741919D01*
X83994377Y-99741923D01*
X83937225Y-99955220D01*
X83917979Y-100175200D01*
X83937225Y-100395179D01*
X83994377Y-100608476D01*
X83994379Y-100608481D01*
X84087703Y-100808616D01*
X84087704Y-100808617D01*
X84133057Y-100873387D01*
X84803800Y-100202645D01*
X84803800Y-100225360D01*
X84829764Y-100322261D01*
X84879924Y-100409140D01*
X84950860Y-100480076D01*
X85037739Y-100530236D01*
X85134640Y-100556200D01*
X85157353Y-100556200D01*
X84486611Y-101226940D01*
X84486611Y-101226941D01*
X84551388Y-101272298D01*
X84751518Y-101365620D01*
X84751523Y-101365622D01*
X84946335Y-101417821D01*
X85006958Y-101454772D01*
X85037979Y-101518633D01*
X85029551Y-101589127D01*
X84984348Y-101643875D01*
X84946337Y-101661234D01*
X84907811Y-101671557D01*
X84907801Y-101671561D01*
X84706323Y-101765512D01*
X84524222Y-101893020D01*
X84524216Y-101893025D01*
X84367025Y-102050216D01*
X84367020Y-102050222D01*
X84239512Y-102232323D01*
X84154273Y-102415119D01*
X84145560Y-102433804D01*
X84088022Y-102648537D01*
X84068647Y-102870000D01*
X84088022Y-103091463D01*
X84134273Y-103264074D01*
X84145559Y-103306193D01*
X84145561Y-103306199D01*
X84239511Y-103507675D01*
X84239512Y-103507677D01*
X84367016Y-103689772D01*
X84367020Y-103689777D01*
X84367023Y-103689781D01*
X84524219Y-103846977D01*
X84524223Y-103846980D01*
X84524227Y-103846983D01*
X84628124Y-103919732D01*
X84706323Y-103974488D01*
X84816373Y-104025805D01*
X84869658Y-104072722D01*
X84889119Y-104140999D01*
X84868577Y-104208959D01*
X84816373Y-104254195D01*
X84706323Y-104305512D01*
X84524222Y-104433020D01*
X84524216Y-104433025D01*
X84367025Y-104590216D01*
X84367016Y-104590227D01*
X84275610Y-104720770D01*
X84220153Y-104765099D01*
X84172397Y-104774500D01*
X83565500Y-104774500D01*
X83497379Y-104754498D01*
X83450886Y-104700842D01*
X83439500Y-104648500D01*
X83439500Y-94995500D01*
X83459502Y-94927379D01*
X83513158Y-94880886D01*
X83565500Y-94869500D01*
X85344000Y-94869500D01*
X85344000Y-96373774D01*
G37*
%TD.AperFunction*%
%TA.AperFunction,Conductor*%
G36*
X85344000Y-100687952D02*
G01*
X85212248Y-100556200D01*
X85234960Y-100556200D01*
X85331861Y-100530236D01*
X85344000Y-100523227D01*
X85344000Y-100687952D01*
G37*
%TD.AperFunction*%
%TA.AperFunction,Conductor*%
G36*
X85344000Y-99827172D02*
G01*
X85331861Y-99820164D01*
X85234960Y-99794200D01*
X85212247Y-99794200D01*
X85344000Y-99662446D01*
X85344000Y-99827172D01*
G37*
%TD.AperFunction*%
%TA.AperFunction,Conductor*%
G36*
X57486012Y-90160599D02*
G01*
X57492595Y-90166728D01*
X57583092Y-90257225D01*
X57687178Y-90326773D01*
X57785379Y-90367449D01*
X57840660Y-90411997D01*
X57863081Y-90479361D01*
X57851357Y-90537106D01*
X57824361Y-90595000D01*
X57824360Y-90595004D01*
X57766822Y-90809737D01*
X57747447Y-91031200D01*
X57766822Y-91252663D01*
X57813073Y-91425274D01*
X57824359Y-91467393D01*
X57824361Y-91467399D01*
X57918311Y-91668875D01*
X57918312Y-91668877D01*
X58045816Y-91850972D01*
X58045820Y-91850977D01*
X58045823Y-91850981D01*
X58203019Y-92008177D01*
X58203023Y-92008180D01*
X58203027Y-92008183D01*
X58306924Y-92080932D01*
X58385123Y-92135688D01*
X58505229Y-92191694D01*
X58558514Y-92238611D01*
X58577975Y-92306888D01*
X58557433Y-92374848D01*
X58505230Y-92420083D01*
X58389391Y-92474100D01*
X58324610Y-92519458D01*
X58995352Y-93190200D01*
X58972640Y-93190200D01*
X58875739Y-93216164D01*
X58788860Y-93266324D01*
X58717924Y-93337260D01*
X58667764Y-93424139D01*
X58641800Y-93521040D01*
X58641800Y-93543752D01*
X57971058Y-92873010D01*
X57925701Y-92937789D01*
X57832379Y-93137919D01*
X57832377Y-93137923D01*
X57775225Y-93351220D01*
X57755979Y-93571200D01*
X57775225Y-93791179D01*
X57832377Y-94004476D01*
X57832379Y-94004481D01*
X57925703Y-94204616D01*
X57925704Y-94204617D01*
X57971057Y-94269387D01*
X58641800Y-93598645D01*
X58641800Y-93621360D01*
X58667764Y-93718261D01*
X58717924Y-93805140D01*
X58788860Y-93876076D01*
X58875739Y-93926236D01*
X58972640Y-93952200D01*
X58995353Y-93952200D01*
X58324611Y-94622940D01*
X58324611Y-94622941D01*
X58389388Y-94668298D01*
X58589518Y-94761620D01*
X58589523Y-94761622D01*
X58802820Y-94818774D01*
X59022800Y-94838020D01*
X59242779Y-94818774D01*
X59456076Y-94761622D01*
X59456081Y-94761620D01*
X59656210Y-94668299D01*
X59720987Y-94622941D01*
X59720987Y-94622939D01*
X59050248Y-93952200D01*
X59072960Y-93952200D01*
X59169861Y-93926236D01*
X59256740Y-93876076D01*
X59327676Y-93805140D01*
X59377836Y-93718261D01*
X59403800Y-93621360D01*
X59403800Y-93598648D01*
X60074539Y-94269387D01*
X60074541Y-94269387D01*
X60119899Y-94204610D01*
X60213220Y-94004481D01*
X60213222Y-94004476D01*
X60270374Y-93791179D01*
X60289620Y-93571200D01*
X60270374Y-93351220D01*
X60213222Y-93137923D01*
X60213220Y-93137918D01*
X60119899Y-92937790D01*
X60074540Y-92873011D01*
X59403800Y-93543751D01*
X59403800Y-93521040D01*
X59377836Y-93424139D01*
X59327676Y-93337260D01*
X59256740Y-93266324D01*
X59169861Y-93216164D01*
X59072960Y-93190200D01*
X59050247Y-93190200D01*
X59720987Y-92519457D01*
X59720987Y-92519456D01*
X59656217Y-92474104D01*
X59656216Y-92474103D01*
X59540370Y-92420084D01*
X59487085Y-92373167D01*
X59467624Y-92304889D01*
X59488166Y-92236930D01*
X59540370Y-92191694D01*
X59660477Y-92135688D01*
X59842581Y-92008177D01*
X59999777Y-91850981D01*
X60127288Y-91668877D01*
X60221240Y-91467396D01*
X60278778Y-91252663D01*
X60298153Y-91031200D01*
X60290391Y-90942479D01*
X60304381Y-90872876D01*
X60353780Y-90821884D01*
X60415912Y-90805500D01*
X60438391Y-90805500D01*
X62337308Y-90805500D01*
X62405429Y-90825502D01*
X62451922Y-90879158D01*
X62462026Y-90949432D01*
X62451503Y-90984749D01*
X62396360Y-91103004D01*
X62338822Y-91317737D01*
X62319447Y-91539200D01*
X62338822Y-91760663D01*
X62385073Y-91933274D01*
X62396359Y-91975393D01*
X62396361Y-91975399D01*
X62490311Y-92176875D01*
X62490312Y-92176877D01*
X62617816Y-92358972D01*
X62617820Y-92358977D01*
X62617823Y-92358981D01*
X62775019Y-92516177D01*
X62775023Y-92516180D01*
X62775027Y-92516183D01*
X62817339Y-92545810D01*
X62957123Y-92643688D01*
X63013170Y-92669823D01*
X63067173Y-92695005D01*
X63120458Y-92741922D01*
X63139919Y-92810199D01*
X63119377Y-92878159D01*
X63067173Y-92923395D01*
X62957123Y-92974712D01*
X62775022Y-93102220D01*
X62775016Y-93102225D01*
X62617825Y-93259416D01*
X62617820Y-93259422D01*
X62490312Y-93441523D01*
X62396361Y-93643001D01*
X62396360Y-93643004D01*
X62338822Y-93857737D01*
X62319447Y-94079200D01*
X62338822Y-94300663D01*
X62370631Y-94419374D01*
X62396359Y-94515393D01*
X62396361Y-94515399D01*
X62490311Y-94716875D01*
X62490312Y-94716877D01*
X62617816Y-94898972D01*
X62617825Y-94898983D01*
X62626247Y-94907405D01*
X62660273Y-94969717D01*
X62655208Y-95040532D01*
X62612661Y-95097368D01*
X62546141Y-95122179D01*
X62537152Y-95122500D01*
X57403500Y-95122500D01*
X57335379Y-95102498D01*
X57288886Y-95048842D01*
X57277500Y-94996500D01*
X57277500Y-90255823D01*
X57297502Y-90187702D01*
X57351158Y-90141209D01*
X57421432Y-90131105D01*
X57486012Y-90160599D01*
G37*
%TD.AperFunction*%
%TA.AperFunction,Conductor*%
G36*
X79693431Y-80059467D02*
G01*
X79750267Y-80102014D01*
X79775078Y-80168534D01*
X79763594Y-80230773D01*
X79668361Y-80435000D01*
X79668359Y-80435006D01*
X79649972Y-80503627D01*
X79610822Y-80649737D01*
X79591447Y-80871200D01*
X79610822Y-81092663D01*
X79652290Y-81247423D01*
X79668359Y-81307393D01*
X79668361Y-81307399D01*
X79762311Y-81508875D01*
X79762312Y-81508877D01*
X79889816Y-81690972D01*
X79889820Y-81690977D01*
X79889823Y-81690981D01*
X80047019Y-81848177D01*
X80047023Y-81848180D01*
X80047027Y-81848183D01*
X80113172Y-81894498D01*
X80229123Y-81975688D01*
X80430604Y-82069640D01*
X80645337Y-82127178D01*
X80866800Y-82146553D01*
X81088263Y-82127178D01*
X81302996Y-82069640D01*
X81504477Y-81975688D01*
X81686581Y-81848177D01*
X81843777Y-81690981D01*
X81971288Y-81508877D01*
X81973275Y-81504617D01*
X82010709Y-81424339D01*
X82027294Y-81388770D01*
X82074211Y-81335485D01*
X82142488Y-81316024D01*
X82210448Y-81336565D01*
X82255684Y-81388770D01*
X82309703Y-81504616D01*
X82309704Y-81504617D01*
X82355057Y-81569387D01*
X83025800Y-80898645D01*
X83025800Y-80921360D01*
X83051764Y-81018261D01*
X83101924Y-81105140D01*
X83172860Y-81176076D01*
X83259739Y-81226236D01*
X83356640Y-81252200D01*
X83379353Y-81252200D01*
X82708611Y-81922940D01*
X82708611Y-81922941D01*
X82773388Y-81968298D01*
X82973518Y-82061620D01*
X82973523Y-82061622D01*
X83186820Y-82118774D01*
X83406800Y-82138020D01*
X83626779Y-82118774D01*
X83840076Y-82061622D01*
X83840081Y-82061620D01*
X84040210Y-81968299D01*
X84104987Y-81922941D01*
X84104987Y-81922939D01*
X83434248Y-81252200D01*
X83456960Y-81252200D01*
X83553861Y-81226236D01*
X83640740Y-81176076D01*
X83711676Y-81105140D01*
X83761836Y-81018261D01*
X83787800Y-80921360D01*
X83787800Y-80898647D01*
X84458539Y-81569387D01*
X84458540Y-81569387D01*
X84479287Y-81539759D01*
X84534744Y-81495431D01*
X84605364Y-81488122D01*
X84668724Y-81520153D01*
X84704709Y-81581354D01*
X84708500Y-81612030D01*
X84708500Y-93472500D01*
X84688498Y-93540621D01*
X84634842Y-93587114D01*
X84582500Y-93598500D01*
X82990960Y-93598500D01*
X82966378Y-93596079D01*
X82961570Y-93595122D01*
X82961569Y-93595122D01*
X82899893Y-93582854D01*
X82838793Y-93570700D01*
X82838791Y-93570700D01*
X81588003Y-93570700D01*
X81519882Y-93550698D01*
X81484790Y-93516970D01*
X81393383Y-93386427D01*
X81393379Y-93386422D01*
X81393377Y-93386419D01*
X81236181Y-93229223D01*
X81236177Y-93229220D01*
X81236172Y-93229216D01*
X81054077Y-93101712D01*
X81054075Y-93101711D01*
X80852599Y-93007761D01*
X80852593Y-93007759D01*
X80810474Y-92996473D01*
X80637863Y-92950222D01*
X80416400Y-92930847D01*
X80194937Y-92950222D01*
X80079863Y-92981056D01*
X79980206Y-93007759D01*
X79980201Y-93007761D01*
X79778723Y-93101712D01*
X79596622Y-93229220D01*
X79596616Y-93229225D01*
X79439425Y-93386416D01*
X79439420Y-93386422D01*
X79311912Y-93568523D01*
X79260595Y-93678573D01*
X79213677Y-93731858D01*
X79145400Y-93751319D01*
X79077440Y-93730777D01*
X79032205Y-93678573D01*
X78993291Y-93595122D01*
X78980888Y-93568524D01*
X78853377Y-93386419D01*
X78696181Y-93229223D01*
X78696177Y-93229220D01*
X78696172Y-93229216D01*
X78514077Y-93101712D01*
X78514075Y-93101711D01*
X78312599Y-93007761D01*
X78312593Y-93007759D01*
X78270474Y-92996473D01*
X78097863Y-92950222D01*
X77876400Y-92930847D01*
X77654931Y-92950222D01*
X77618114Y-92960088D01*
X77547138Y-92958398D01*
X77496409Y-92927476D01*
X72640190Y-88071257D01*
X72606164Y-88008945D01*
X72611229Y-87938130D01*
X72653776Y-87881294D01*
X72720296Y-87856483D01*
X72740265Y-87856641D01*
X72796400Y-87861553D01*
X73017863Y-87842178D01*
X73232596Y-87784640D01*
X73434077Y-87690688D01*
X73616181Y-87563177D01*
X73773377Y-87405981D01*
X73900888Y-87223877D01*
X73952205Y-87113826D01*
X73999122Y-87060542D01*
X74067399Y-87041081D01*
X74135359Y-87061623D01*
X74180595Y-87113827D01*
X74231911Y-87223875D01*
X74231912Y-87223877D01*
X74359416Y-87405972D01*
X74359420Y-87405977D01*
X74359423Y-87405981D01*
X74516619Y-87563177D01*
X74516623Y-87563180D01*
X74516627Y-87563183D01*
X74590637Y-87615005D01*
X74698723Y-87690688D01*
X74900204Y-87784640D01*
X75114937Y-87842178D01*
X75336400Y-87861553D01*
X75557863Y-87842178D01*
X75772596Y-87784640D01*
X75974077Y-87690688D01*
X76156181Y-87563177D01*
X76313377Y-87405981D01*
X76440888Y-87223877D01*
X76492205Y-87113826D01*
X76539122Y-87060542D01*
X76607399Y-87041081D01*
X76675359Y-87061623D01*
X76720595Y-87113827D01*
X76771911Y-87223875D01*
X76771912Y-87223877D01*
X76899416Y-87405972D01*
X76899420Y-87405977D01*
X76899423Y-87405981D01*
X77056619Y-87563177D01*
X77056623Y-87563180D01*
X77056627Y-87563183D01*
X77130637Y-87615005D01*
X77238723Y-87690688D01*
X77440204Y-87784640D01*
X77654937Y-87842178D01*
X77876400Y-87861553D01*
X78097863Y-87842178D01*
X78312596Y-87784640D01*
X78514077Y-87690688D01*
X78696181Y-87563177D01*
X78853377Y-87405981D01*
X78980888Y-87223877D01*
X79032205Y-87113826D01*
X79079122Y-87060542D01*
X79147399Y-87041081D01*
X79215359Y-87061623D01*
X79260595Y-87113827D01*
X79311911Y-87223875D01*
X79311912Y-87223877D01*
X79439416Y-87405972D01*
X79439420Y-87405977D01*
X79439423Y-87405981D01*
X79596619Y-87563177D01*
X79596623Y-87563180D01*
X79596627Y-87563183D01*
X79670637Y-87615005D01*
X79778723Y-87690688D01*
X79980204Y-87784640D01*
X80194937Y-87842178D01*
X80416400Y-87861553D01*
X80637863Y-87842178D01*
X80852596Y-87784640D01*
X81054077Y-87690688D01*
X81236181Y-87563177D01*
X81393377Y-87405981D01*
X81520888Y-87223877D01*
X81614840Y-87022396D01*
X81672378Y-86807663D01*
X81691753Y-86586200D01*
X81672378Y-86364737D01*
X81614840Y-86150004D01*
X81520888Y-85948524D01*
X81393377Y-85766419D01*
X81236181Y-85609223D01*
X81236177Y-85609220D01*
X81236172Y-85609216D01*
X81055791Y-85482912D01*
X81054077Y-85481712D01*
X81054076Y-85481711D01*
X81049571Y-85478557D01*
X81050861Y-85476714D01*
X81008536Y-85432310D01*
X80995112Y-85362594D01*
X81021509Y-85296687D01*
X81048268Y-85271379D01*
X81114587Y-85224941D01*
X81114587Y-85224939D01*
X80443848Y-84554200D01*
X80466560Y-84554200D01*
X80563461Y-84528236D01*
X80650340Y-84478076D01*
X80721276Y-84407140D01*
X80771436Y-84320261D01*
X80797400Y-84223360D01*
X80797400Y-84200648D01*
X81468139Y-84871387D01*
X81468141Y-84871387D01*
X81513499Y-84806610D01*
X81606820Y-84606481D01*
X81606822Y-84606476D01*
X81663974Y-84393179D01*
X81683220Y-84173200D01*
X81663974Y-83953220D01*
X81606822Y-83739923D01*
X81606820Y-83739918D01*
X81513499Y-83539790D01*
X81468140Y-83475011D01*
X80797400Y-84145751D01*
X80797400Y-84123040D01*
X80771436Y-84026139D01*
X80721276Y-83939260D01*
X80650340Y-83868324D01*
X80563461Y-83818164D01*
X80466560Y-83792200D01*
X80443847Y-83792200D01*
X81114587Y-83121457D01*
X81114587Y-83121456D01*
X81049817Y-83076104D01*
X81049816Y-83076103D01*
X80849681Y-82982779D01*
X80849676Y-82982777D01*
X80636379Y-82925625D01*
X80416400Y-82906379D01*
X80196420Y-82925625D01*
X79983123Y-82982777D01*
X79983119Y-82982779D01*
X79782989Y-83076101D01*
X79718210Y-83121458D01*
X80388952Y-83792200D01*
X80366240Y-83792200D01*
X80269339Y-83818164D01*
X80182460Y-83868324D01*
X80111524Y-83939260D01*
X80061364Y-84026139D01*
X80035400Y-84123040D01*
X80035400Y-84145752D01*
X79364658Y-83475010D01*
X79319300Y-83539791D01*
X79265283Y-83655630D01*
X79218366Y-83708914D01*
X79150089Y-83728375D01*
X79082129Y-83707833D01*
X79036894Y-83655629D01*
X78982878Y-83539792D01*
X78980888Y-83535524D01*
X78853377Y-83353419D01*
X78696181Y-83196223D01*
X78696177Y-83196220D01*
X78696172Y-83196216D01*
X78514077Y-83068712D01*
X78514075Y-83068711D01*
X78312599Y-82974761D01*
X78312593Y-82974759D01*
X78267136Y-82962579D01*
X78097863Y-82917222D01*
X77876400Y-82897847D01*
X77654937Y-82917222D01*
X77539863Y-82948056D01*
X77440206Y-82974759D01*
X77440201Y-82974761D01*
X77238723Y-83068712D01*
X77056622Y-83196220D01*
X77056616Y-83196225D01*
X76899425Y-83353416D01*
X76899420Y-83353422D01*
X76771912Y-83535523D01*
X76720595Y-83645573D01*
X76673677Y-83698858D01*
X76605400Y-83718319D01*
X76537440Y-83697777D01*
X76492205Y-83645573D01*
X76442878Y-83539792D01*
X76440888Y-83535524D01*
X76313377Y-83353419D01*
X76156181Y-83196223D01*
X76156177Y-83196220D01*
X76156172Y-83196216D01*
X75974077Y-83068712D01*
X75974075Y-83068711D01*
X75772599Y-82974761D01*
X75772593Y-82974759D01*
X75727136Y-82962579D01*
X75557863Y-82917222D01*
X75336400Y-82897847D01*
X75114937Y-82917222D01*
X74999863Y-82948056D01*
X74900206Y-82974759D01*
X74900201Y-82974761D01*
X74698723Y-83068712D01*
X74516622Y-83196220D01*
X74516616Y-83196225D01*
X74359425Y-83353416D01*
X74359420Y-83353422D01*
X74231910Y-83535525D01*
X74175904Y-83655630D01*
X74128987Y-83708915D01*
X74060709Y-83728375D01*
X73992750Y-83707833D01*
X73947515Y-83655628D01*
X73893500Y-83539792D01*
X73848140Y-83475011D01*
X73177400Y-84145751D01*
X73177400Y-84123040D01*
X73151436Y-84026139D01*
X73101276Y-83939260D01*
X73030340Y-83868324D01*
X72943461Y-83818164D01*
X72846560Y-83792200D01*
X72823846Y-83792200D01*
X73494587Y-83121457D01*
X73494587Y-83121456D01*
X73429817Y-83076104D01*
X73429816Y-83076103D01*
X73229681Y-82982779D01*
X73229676Y-82982777D01*
X73016379Y-82925625D01*
X72796400Y-82906379D01*
X72576420Y-82925625D01*
X72363123Y-82982777D01*
X72363114Y-82982781D01*
X72188749Y-83064088D01*
X72118558Y-83074749D01*
X72053745Y-83045769D01*
X72014889Y-82986349D01*
X72009500Y-82949893D01*
X72009500Y-82487410D01*
X72009499Y-82487406D01*
X72007544Y-82477577D01*
X71985078Y-82364631D01*
X71937173Y-82248978D01*
X71867625Y-82144892D01*
X71779108Y-82056375D01*
X71677508Y-81954775D01*
X71573422Y-81885227D01*
X71457769Y-81837322D01*
X71433688Y-81832532D01*
X71334993Y-81812900D01*
X71334991Y-81812900D01*
X71221100Y-81812900D01*
X71152979Y-81792898D01*
X71106486Y-81739242D01*
X71095100Y-81686900D01*
X71095100Y-81306823D01*
X71115102Y-81238702D01*
X71132005Y-81217728D01*
X71509348Y-80840385D01*
X71571660Y-80806359D01*
X71642475Y-80811424D01*
X71699311Y-80853971D01*
X71723963Y-80918496D01*
X71730522Y-80993463D01*
X71747378Y-81056369D01*
X71788059Y-81208193D01*
X71788061Y-81208199D01*
X71882011Y-81409675D01*
X71882012Y-81409677D01*
X72009516Y-81591772D01*
X72009520Y-81591777D01*
X72009523Y-81591781D01*
X72166719Y-81748977D01*
X72166723Y-81748980D01*
X72166727Y-81748983D01*
X72197554Y-81770568D01*
X72348823Y-81876488D01*
X72550304Y-81970440D01*
X72765037Y-82027978D01*
X72986500Y-82047353D01*
X73207963Y-82027978D01*
X73422696Y-81970440D01*
X73624177Y-81876488D01*
X73806281Y-81748977D01*
X73963477Y-81591781D01*
X74090988Y-81409677D01*
X74142305Y-81299626D01*
X74189222Y-81246342D01*
X74257499Y-81226881D01*
X74325459Y-81247423D01*
X74370694Y-81299626D01*
X74374316Y-81307393D01*
X74422011Y-81409675D01*
X74422012Y-81409677D01*
X74549516Y-81591772D01*
X74549520Y-81591777D01*
X74549523Y-81591781D01*
X74706719Y-81748977D01*
X74706723Y-81748980D01*
X74706727Y-81748983D01*
X74737554Y-81770568D01*
X74888823Y-81876488D01*
X75090304Y-81970440D01*
X75305037Y-82027978D01*
X75526500Y-82047353D01*
X75747963Y-82027978D01*
X75962696Y-81970440D01*
X76164177Y-81876488D01*
X76346281Y-81748977D01*
X76503477Y-81591781D01*
X76630988Y-81409677D01*
X76724940Y-81208196D01*
X76782478Y-80993463D01*
X76801853Y-80772000D01*
X76801853Y-80771995D01*
X76801853Y-80771500D01*
X76801914Y-80771289D01*
X76802332Y-80766520D01*
X76803290Y-80766603D01*
X76821855Y-80703379D01*
X76875511Y-80656886D01*
X76927853Y-80645500D01*
X78802590Y-80645500D01*
X78802591Y-80645500D01*
X78925369Y-80621078D01*
X79041022Y-80573173D01*
X79145108Y-80503625D01*
X79560307Y-80088425D01*
X79622616Y-80054403D01*
X79693431Y-80059467D01*
G37*
%TD.AperFunction*%
%TA.AperFunction,Conductor*%
G36*
X62242869Y-83226030D02*
G01*
X62299705Y-83268577D01*
X62324516Y-83335097D01*
X62324358Y-83355065D01*
X62319447Y-83411200D01*
X62338822Y-83632663D01*
X62375416Y-83769233D01*
X62396359Y-83847393D01*
X62396361Y-83847399D01*
X62490311Y-84048875D01*
X62490312Y-84048877D01*
X62617816Y-84230972D01*
X62617820Y-84230977D01*
X62617823Y-84230981D01*
X62775019Y-84388177D01*
X62775023Y-84388180D01*
X62775027Y-84388183D01*
X62841172Y-84434498D01*
X62957123Y-84515688D01*
X63158604Y-84609640D01*
X63373337Y-84667178D01*
X63594800Y-84686553D01*
X63816263Y-84667178D01*
X64030996Y-84609640D01*
X64232477Y-84515688D01*
X64414581Y-84388177D01*
X64571777Y-84230981D01*
X64667287Y-84094578D01*
X64722744Y-84050250D01*
X64793363Y-84042941D01*
X64856724Y-84074971D01*
X64892709Y-84136173D01*
X64896500Y-84166849D01*
X64896500Y-85703550D01*
X64876498Y-85771671D01*
X64822842Y-85818164D01*
X64752568Y-85828268D01*
X64687988Y-85798774D01*
X64667287Y-85775821D01*
X64571779Y-85639422D01*
X64571774Y-85639416D01*
X64414583Y-85482225D01*
X64414572Y-85482216D01*
X64232477Y-85354712D01*
X64232475Y-85354711D01*
X64030999Y-85260761D01*
X64030993Y-85260759D01*
X63988874Y-85249473D01*
X63816263Y-85203222D01*
X63594800Y-85183847D01*
X63373337Y-85203222D01*
X63258263Y-85234056D01*
X63158606Y-85260759D01*
X63158601Y-85260761D01*
X62957123Y-85354712D01*
X62775022Y-85482220D01*
X62775016Y-85482225D01*
X62617825Y-85639416D01*
X62617820Y-85639422D01*
X62490312Y-85821523D01*
X62396361Y-86023001D01*
X62396360Y-86023004D01*
X62338822Y-86237737D01*
X62319447Y-86459200D01*
X62338822Y-86680663D01*
X62372851Y-86807660D01*
X62396359Y-86895393D01*
X62396361Y-86895399D01*
X62490311Y-87096875D01*
X62490312Y-87096877D01*
X62617816Y-87278972D01*
X62617820Y-87278977D01*
X62617823Y-87278981D01*
X62775019Y-87436177D01*
X62775023Y-87436180D01*
X62775027Y-87436183D01*
X62878924Y-87508932D01*
X62957123Y-87563688D01*
X62988088Y-87578127D01*
X63067173Y-87615005D01*
X63120458Y-87661922D01*
X63139919Y-87730199D01*
X63119377Y-87798159D01*
X63067173Y-87843395D01*
X62957123Y-87894712D01*
X62775022Y-88022220D01*
X62775016Y-88022225D01*
X62617825Y-88179416D01*
X62617816Y-88179427D01*
X62526410Y-88309970D01*
X62470953Y-88354299D01*
X62423197Y-88363700D01*
X60400639Y-88363700D01*
X60332518Y-88343698D01*
X60286025Y-88290042D01*
X60278932Y-88270312D01*
X60235684Y-88108910D01*
X60221240Y-88055004D01*
X60127288Y-87853524D01*
X59999777Y-87671419D01*
X59842581Y-87514223D01*
X59842577Y-87514220D01*
X59842572Y-87514216D01*
X59660477Y-87386712D01*
X59660474Y-87386710D01*
X59540371Y-87330705D01*
X59487086Y-87283787D01*
X59467625Y-87215510D01*
X59488167Y-87147550D01*
X59540372Y-87102315D01*
X59656206Y-87048301D01*
X59656209Y-87048299D01*
X59720987Y-87002941D01*
X59720987Y-87002939D01*
X59050248Y-86332200D01*
X59072960Y-86332200D01*
X59169861Y-86306236D01*
X59256740Y-86256076D01*
X59327676Y-86185140D01*
X59377836Y-86098261D01*
X59403800Y-86001360D01*
X59403800Y-85978648D01*
X60074539Y-86649387D01*
X60074541Y-86649387D01*
X60119899Y-86584610D01*
X60213220Y-86384481D01*
X60213222Y-86384476D01*
X60270374Y-86171179D01*
X60289620Y-85951200D01*
X60270374Y-85731220D01*
X60213222Y-85517923D01*
X60213220Y-85517919D01*
X60192251Y-85472950D01*
X60181590Y-85402759D01*
X60210570Y-85337946D01*
X60269989Y-85299089D01*
X60306446Y-85293700D01*
X60641590Y-85293700D01*
X60641591Y-85293700D01*
X60764369Y-85269278D01*
X60880022Y-85221373D01*
X60984108Y-85151825D01*
X61453625Y-84682308D01*
X61523173Y-84578222D01*
X61571078Y-84462569D01*
X61595500Y-84339791D01*
X61595500Y-84214609D01*
X61595500Y-83821423D01*
X61615502Y-83753302D01*
X61632405Y-83732328D01*
X62109742Y-83254991D01*
X62172054Y-83220965D01*
X62242869Y-83226030D01*
G37*
%TD.AperFunction*%
%TA.AperFunction,Conductor*%
G36*
X73848139Y-84871387D02*
G01*
X73848141Y-84871387D01*
X73893499Y-84806609D01*
X73893501Y-84806606D01*
X73947515Y-84690772D01*
X73994432Y-84637486D01*
X74062709Y-84618025D01*
X74130669Y-84638566D01*
X74175905Y-84690771D01*
X74231910Y-84810874D01*
X74231912Y-84810877D01*
X74359416Y-84992972D01*
X74359420Y-84992977D01*
X74359423Y-84992981D01*
X74516619Y-85150177D01*
X74516623Y-85150180D01*
X74516627Y-85150183D01*
X74592375Y-85203222D01*
X74697007Y-85276486D01*
X74741336Y-85331943D01*
X74748645Y-85402562D01*
X74716615Y-85465922D01*
X74697008Y-85482912D01*
X74516622Y-85609220D01*
X74516616Y-85609225D01*
X74359425Y-85766416D01*
X74359420Y-85766422D01*
X74231912Y-85948523D01*
X74180595Y-86058573D01*
X74133677Y-86111858D01*
X74065400Y-86131319D01*
X73997440Y-86110777D01*
X73952205Y-86058573D01*
X73925526Y-86001360D01*
X73900888Y-85948524D01*
X73773377Y-85766419D01*
X73616181Y-85609223D01*
X73616177Y-85609220D01*
X73616172Y-85609216D01*
X73435791Y-85482912D01*
X73434077Y-85481712D01*
X73434076Y-85481711D01*
X73429571Y-85478557D01*
X73430861Y-85476714D01*
X73388536Y-85432310D01*
X73375112Y-85362594D01*
X73401509Y-85296687D01*
X73428268Y-85271379D01*
X73494587Y-85224941D01*
X73494587Y-85224939D01*
X72823848Y-84554200D01*
X72846560Y-84554200D01*
X72943461Y-84528236D01*
X73030340Y-84478076D01*
X73101276Y-84407140D01*
X73151436Y-84320261D01*
X73177400Y-84223360D01*
X73177400Y-84200648D01*
X73848139Y-84871387D01*
G37*
%TD.AperFunction*%
%TA.AperFunction,Conductor*%
G36*
X80035400Y-84223360D02*
G01*
X80061364Y-84320261D01*
X80111524Y-84407140D01*
X80182460Y-84478076D01*
X80269339Y-84528236D01*
X80366240Y-84554200D01*
X80388953Y-84554200D01*
X79718211Y-85224940D01*
X79718211Y-85224941D01*
X79784531Y-85271379D01*
X79828859Y-85326836D01*
X79836168Y-85397455D01*
X79804137Y-85460816D01*
X79782708Y-85477809D01*
X79783231Y-85478556D01*
X79596622Y-85609220D01*
X79596616Y-85609225D01*
X79439425Y-85766416D01*
X79439420Y-85766422D01*
X79311912Y-85948523D01*
X79260595Y-86058573D01*
X79213677Y-86111858D01*
X79145400Y-86131319D01*
X79077440Y-86110777D01*
X79032205Y-86058573D01*
X79005526Y-86001360D01*
X78980888Y-85948524D01*
X78853377Y-85766419D01*
X78696181Y-85609223D01*
X78696177Y-85609220D01*
X78696172Y-85609216D01*
X78515792Y-85482913D01*
X78471463Y-85427456D01*
X78464154Y-85356837D01*
X78496184Y-85293476D01*
X78515792Y-85276487D01*
X78696181Y-85150177D01*
X78853377Y-84992981D01*
X78980888Y-84810877D01*
X78982875Y-84806617D01*
X79036894Y-84690771D01*
X79083811Y-84637485D01*
X79152088Y-84618024D01*
X79220048Y-84638565D01*
X79265284Y-84690770D01*
X79319303Y-84806616D01*
X79319304Y-84806617D01*
X79364657Y-84871387D01*
X80035400Y-84200645D01*
X80035400Y-84223360D01*
G37*
%TD.AperFunction*%
%TA.AperFunction,Conductor*%
G36*
X83544898Y-79113702D02*
G01*
X83565872Y-79130605D01*
X83884547Y-79449280D01*
X83918573Y-79511592D01*
X83913508Y-79582407D01*
X83870961Y-79639243D01*
X83804441Y-79664054D01*
X83762842Y-79660082D01*
X83626779Y-79623625D01*
X83626781Y-79623625D01*
X83406800Y-79604379D01*
X83186820Y-79623625D01*
X82973523Y-79680777D01*
X82973519Y-79680779D01*
X82773389Y-79774101D01*
X82708610Y-79819457D01*
X83379354Y-80490200D01*
X83356640Y-80490200D01*
X83259739Y-80516164D01*
X83172860Y-80566324D01*
X83101924Y-80637260D01*
X83051764Y-80724139D01*
X83025800Y-80821040D01*
X83025800Y-80843752D01*
X82355058Y-80173010D01*
X82309700Y-80237791D01*
X82255683Y-80353630D01*
X82208766Y-80406914D01*
X82140489Y-80426375D01*
X82072529Y-80405833D01*
X82027294Y-80353629D01*
X81971288Y-80233524D01*
X81843777Y-80051419D01*
X81686581Y-79894223D01*
X81686577Y-79894220D01*
X81686572Y-79894216D01*
X81504477Y-79766712D01*
X81504475Y-79766711D01*
X81374902Y-79706290D01*
X81321617Y-79659373D01*
X81302156Y-79591095D01*
X81322698Y-79523135D01*
X81355877Y-79488885D01*
X81432581Y-79435177D01*
X81589777Y-79277981D01*
X81681191Y-79147429D01*
X81736648Y-79103101D01*
X81784404Y-79093700D01*
X83476777Y-79093700D01*
X83544898Y-79113702D01*
G37*
%TD.AperFunction*%
%TA.AperFunction,Conductor*%
G36*
X83439000Y-66344160D02*
G01*
X83464964Y-66441061D01*
X83515124Y-66527940D01*
X83586060Y-66598876D01*
X83672939Y-66649036D01*
X83769840Y-66675000D01*
X83792553Y-66675000D01*
X83121811Y-67345740D01*
X83121811Y-67345741D01*
X83186588Y-67391098D01*
X83386718Y-67484420D01*
X83386723Y-67484422D01*
X83600020Y-67541574D01*
X83820000Y-67560820D01*
X84039979Y-67541574D01*
X84253276Y-67484422D01*
X84253281Y-67484420D01*
X84453410Y-67391099D01*
X84518187Y-67345741D01*
X84518187Y-67345739D01*
X83847448Y-66675000D01*
X83870160Y-66675000D01*
X83967061Y-66649036D01*
X84053940Y-66598876D01*
X84124876Y-66527940D01*
X84175036Y-66441061D01*
X84201000Y-66344160D01*
X84201000Y-66321448D01*
X84871739Y-66992187D01*
X84871741Y-66992187D01*
X84917099Y-66927410D01*
X85010420Y-66727281D01*
X85010422Y-66727275D01*
X85067213Y-66515330D01*
X85104165Y-66454707D01*
X85168025Y-66423686D01*
X85189636Y-66421943D01*
X85344000Y-66422836D01*
X85344000Y-79111267D01*
X84197308Y-77964575D01*
X84093222Y-77895027D01*
X83977569Y-77847122D01*
X83854793Y-77822700D01*
X83854791Y-77822700D01*
X81784403Y-77822700D01*
X81716282Y-77802698D01*
X81681190Y-77768970D01*
X81589783Y-77638427D01*
X81589779Y-77638422D01*
X81589777Y-77638419D01*
X81432581Y-77481223D01*
X81432577Y-77481220D01*
X81432572Y-77481216D01*
X81250477Y-77353712D01*
X81250475Y-77353711D01*
X81048999Y-77259761D01*
X81048993Y-77259759D01*
X81006874Y-77248473D01*
X80834263Y-77202222D01*
X80612800Y-77182847D01*
X80391337Y-77202222D01*
X80276263Y-77233056D01*
X80176606Y-77259759D01*
X80176600Y-77259761D01*
X80062750Y-77312851D01*
X79992558Y-77323512D01*
X79927746Y-77294532D01*
X79888889Y-77235112D01*
X79883500Y-77198656D01*
X79883500Y-75629410D01*
X79883499Y-75629406D01*
X79859078Y-75506631D01*
X79811173Y-75390978D01*
X79741625Y-75286892D01*
X79653108Y-75198375D01*
X78891108Y-74436375D01*
X78787022Y-74366827D01*
X78734631Y-74345126D01*
X78671374Y-74318924D01*
X78671369Y-74318922D01*
X78548593Y-74294500D01*
X78548591Y-74294500D01*
X67879423Y-74294500D01*
X67811302Y-74274498D01*
X67790328Y-74257595D01*
X66712405Y-73179672D01*
X66678379Y-73117360D01*
X66675500Y-73090577D01*
X66675500Y-71685822D01*
X66695502Y-71617701D01*
X66749158Y-71571208D01*
X66819432Y-71561104D01*
X66884012Y-71590598D01*
X66904711Y-71613548D01*
X66935823Y-71657981D01*
X67093019Y-71815177D01*
X67093023Y-71815180D01*
X67093027Y-71815183D01*
X67168616Y-71868111D01*
X67275123Y-71942688D01*
X67476604Y-72036640D01*
X67691337Y-72094178D01*
X67912800Y-72113553D01*
X68134263Y-72094178D01*
X68348996Y-72036640D01*
X68550477Y-71942688D01*
X68732581Y-71815177D01*
X68889777Y-71657981D01*
X69017288Y-71475877D01*
X69068605Y-71365826D01*
X69115522Y-71312542D01*
X69183799Y-71293081D01*
X69251759Y-71313623D01*
X69296995Y-71365827D01*
X69348311Y-71475875D01*
X69348312Y-71475877D01*
X69475816Y-71657972D01*
X69475820Y-71657977D01*
X69475823Y-71657981D01*
X69633019Y-71815177D01*
X69633023Y-71815180D01*
X69633027Y-71815183D01*
X69708616Y-71868111D01*
X69815123Y-71942688D01*
X70016604Y-72036640D01*
X70231337Y-72094178D01*
X70452800Y-72113553D01*
X70674263Y-72094178D01*
X70888996Y-72036640D01*
X71090477Y-71942688D01*
X71272581Y-71815177D01*
X71429777Y-71657981D01*
X71557288Y-71475877D01*
X71608605Y-71365826D01*
X71655522Y-71312542D01*
X71723799Y-71293081D01*
X71791759Y-71313623D01*
X71836995Y-71365827D01*
X71888311Y-71475875D01*
X71888312Y-71475877D01*
X72015816Y-71657972D01*
X72015820Y-71657977D01*
X72015823Y-71657981D01*
X72173019Y-71815177D01*
X72173023Y-71815180D01*
X72173027Y-71815183D01*
X72248616Y-71868111D01*
X72355123Y-71942688D01*
X72556604Y-72036640D01*
X72771337Y-72094178D01*
X72992800Y-72113553D01*
X73214263Y-72094178D01*
X73428996Y-72036640D01*
X73630477Y-71942688D01*
X73812581Y-71815177D01*
X73969777Y-71657981D01*
X74097288Y-71475877D01*
X74148605Y-71365826D01*
X74195522Y-71312542D01*
X74263799Y-71293081D01*
X74331759Y-71313623D01*
X74376995Y-71365827D01*
X74428311Y-71475875D01*
X74428312Y-71475877D01*
X74555816Y-71657972D01*
X74555820Y-71657977D01*
X74555823Y-71657981D01*
X74713019Y-71815177D01*
X74713023Y-71815180D01*
X74713027Y-71815183D01*
X74788616Y-71868111D01*
X74895123Y-71942688D01*
X75096604Y-72036640D01*
X75311337Y-72094178D01*
X75532800Y-72113553D01*
X75754263Y-72094178D01*
X75968996Y-72036640D01*
X76170477Y-71942688D01*
X76352581Y-71815177D01*
X76509777Y-71657981D01*
X76637288Y-71475877D01*
X76688605Y-71365826D01*
X76735522Y-71312542D01*
X76803799Y-71293081D01*
X76871759Y-71313623D01*
X76916995Y-71365827D01*
X76968311Y-71475875D01*
X76968312Y-71475877D01*
X77095816Y-71657972D01*
X77095820Y-71657977D01*
X77095823Y-71657981D01*
X77253019Y-71815177D01*
X77253023Y-71815180D01*
X77253027Y-71815183D01*
X77328616Y-71868111D01*
X77435123Y-71942688D01*
X77636604Y-72036640D01*
X77851337Y-72094178D01*
X78072800Y-72113553D01*
X78294263Y-72094178D01*
X78508996Y-72036640D01*
X78710477Y-71942688D01*
X78892581Y-71815177D01*
X79049777Y-71657981D01*
X79177288Y-71475877D01*
X79228605Y-71365826D01*
X79275522Y-71312542D01*
X79343799Y-71293081D01*
X79411759Y-71313623D01*
X79456995Y-71365827D01*
X79508311Y-71475875D01*
X79508312Y-71475877D01*
X79635816Y-71657972D01*
X79635820Y-71657977D01*
X79635823Y-71657981D01*
X79793019Y-71815177D01*
X79793023Y-71815180D01*
X79793027Y-71815183D01*
X79868616Y-71868111D01*
X79975123Y-71942688D01*
X80176604Y-72036640D01*
X80391337Y-72094178D01*
X80612800Y-72113553D01*
X80834263Y-72094178D01*
X81048996Y-72036640D01*
X81250477Y-71942688D01*
X81432581Y-71815177D01*
X81589777Y-71657981D01*
X81717288Y-71475877D01*
X81811240Y-71274396D01*
X81868778Y-71059663D01*
X81888153Y-70838200D01*
X81868778Y-70616737D01*
X81811240Y-70402004D01*
X81717288Y-70200524D01*
X81589777Y-70018419D01*
X81432581Y-69861223D01*
X81432577Y-69861220D01*
X81432572Y-69861216D01*
X81250477Y-69733712D01*
X81250475Y-69733711D01*
X81048999Y-69639761D01*
X81048988Y-69639757D01*
X80967964Y-69618046D01*
X80911481Y-69585435D01*
X80640247Y-69314200D01*
X80662960Y-69314200D01*
X80759861Y-69288236D01*
X80846740Y-69238076D01*
X80917676Y-69167140D01*
X80967836Y-69080261D01*
X80993800Y-68983360D01*
X80993800Y-68960648D01*
X81664539Y-69631387D01*
X81664541Y-69631387D01*
X81709899Y-69566610D01*
X81803220Y-69366481D01*
X81803222Y-69366476D01*
X81860374Y-69153179D01*
X81879620Y-68933200D01*
X81860374Y-68713220D01*
X81803222Y-68499923D01*
X81803220Y-68499918D01*
X81709899Y-68299790D01*
X81664540Y-68235011D01*
X80993800Y-68905751D01*
X80993800Y-68883040D01*
X80967836Y-68786139D01*
X80917676Y-68699260D01*
X80846740Y-68628324D01*
X80759861Y-68578164D01*
X80662960Y-68552200D01*
X80640247Y-68552200D01*
X81310987Y-67881457D01*
X81310987Y-67881456D01*
X81246217Y-67836104D01*
X81246215Y-67836103D01*
X81181880Y-67806103D01*
X81128595Y-67759185D01*
X81109134Y-67690908D01*
X81129676Y-67622948D01*
X81183699Y-67576882D01*
X81246112Y-67566388D01*
X81280000Y-67569353D01*
X81501463Y-67549978D01*
X81716196Y-67492440D01*
X81917677Y-67398488D01*
X82099781Y-67270977D01*
X82256977Y-67113781D01*
X82384488Y-66931677D01*
X82386475Y-66927417D01*
X82440494Y-66811571D01*
X82487411Y-66758285D01*
X82555688Y-66738824D01*
X82623648Y-66759365D01*
X82668884Y-66811570D01*
X82722903Y-66927416D01*
X82722904Y-66927417D01*
X82768256Y-66992187D01*
X82768258Y-66992187D01*
X83439000Y-66321445D01*
X83439000Y-66344160D01*
G37*
%TD.AperFunction*%
%TA.AperFunction,Conductor*%
G36*
X72611800Y-68855494D02*
G01*
X72637764Y-68952395D01*
X72687924Y-69039274D01*
X72758860Y-69110210D01*
X72845739Y-69160370D01*
X72942640Y-69186334D01*
X72965353Y-69186334D01*
X72488598Y-69663087D01*
X72452754Y-69688185D01*
X72355125Y-69733710D01*
X72173022Y-69861220D01*
X72173016Y-69861225D01*
X72015825Y-70018416D01*
X72015820Y-70018422D01*
X71888312Y-70200523D01*
X71836995Y-70310573D01*
X71790077Y-70363858D01*
X71721800Y-70383319D01*
X71653840Y-70362777D01*
X71608605Y-70310573D01*
X71578169Y-70245303D01*
X71557288Y-70200524D01*
X71429777Y-70018419D01*
X71322220Y-69910862D01*
X71288194Y-69848550D01*
X71293259Y-69777735D01*
X71322220Y-69732672D01*
X71366709Y-69688183D01*
X71429777Y-69625115D01*
X71557288Y-69443011D01*
X71559275Y-69438751D01*
X71607825Y-69334633D01*
X71613294Y-69322904D01*
X71660211Y-69269619D01*
X71728488Y-69250158D01*
X71796448Y-69270699D01*
X71841684Y-69322904D01*
X71895703Y-69438750D01*
X71895704Y-69438751D01*
X71941057Y-69503521D01*
X72611800Y-68832779D01*
X72611800Y-68855494D01*
G37*
%TD.AperFunction*%
%TA.AperFunction,Conductor*%
G36*
X74044539Y-69503521D02*
G01*
X74044541Y-69503521D01*
X74089899Y-69438743D01*
X74089901Y-69438741D01*
X74114103Y-69386839D01*
X74161019Y-69333554D01*
X74229296Y-69314092D01*
X74297257Y-69334633D01*
X74342493Y-69386838D01*
X74428311Y-69570875D01*
X74428312Y-69570877D01*
X74555816Y-69752972D01*
X74555825Y-69752983D01*
X74599447Y-69796605D01*
X74633473Y-69858917D01*
X74628408Y-69929732D01*
X74599447Y-69974795D01*
X74555825Y-70018416D01*
X74555820Y-70018422D01*
X74428312Y-70200523D01*
X74376995Y-70310573D01*
X74330077Y-70363858D01*
X74261800Y-70383319D01*
X74193840Y-70362777D01*
X74148605Y-70310573D01*
X74118169Y-70245303D01*
X74097288Y-70200524D01*
X73969777Y-70018419D01*
X73812581Y-69861223D01*
X73812577Y-69861220D01*
X73812572Y-69861216D01*
X73630477Y-69733712D01*
X73630474Y-69733710D01*
X73532841Y-69688183D01*
X73496995Y-69663083D01*
X73020247Y-69186334D01*
X73042960Y-69186334D01*
X73139861Y-69160370D01*
X73226740Y-69110210D01*
X73297676Y-69039274D01*
X73347836Y-68952395D01*
X73373800Y-68855494D01*
X73373800Y-68832782D01*
X74044539Y-69503521D01*
G37*
%TD.AperFunction*%
%TA.AperFunction,Conductor*%
G36*
X80231800Y-68983360D02*
G01*
X80257764Y-69080261D01*
X80307924Y-69167140D01*
X80378860Y-69238076D01*
X80465739Y-69288236D01*
X80562640Y-69314200D01*
X80585353Y-69314200D01*
X80314114Y-69585438D01*
X80257630Y-69618049D01*
X80176604Y-69639759D01*
X79975123Y-69733712D01*
X79793022Y-69861220D01*
X79793016Y-69861225D01*
X79635825Y-70018416D01*
X79635820Y-70018422D01*
X79508312Y-70200523D01*
X79456995Y-70310573D01*
X79410077Y-70363858D01*
X79341800Y-70383319D01*
X79273840Y-70362777D01*
X79228605Y-70310573D01*
X79198169Y-70245303D01*
X79177288Y-70200524D01*
X79049777Y-70018419D01*
X79006153Y-69974795D01*
X78972127Y-69912483D01*
X78977192Y-69841668D01*
X79006153Y-69796605D01*
X79025023Y-69777735D01*
X79049777Y-69752981D01*
X79177288Y-69570877D01*
X79178466Y-69568352D01*
X79233294Y-69450771D01*
X79280211Y-69397485D01*
X79348488Y-69378024D01*
X79416448Y-69398565D01*
X79461684Y-69450770D01*
X79515703Y-69566616D01*
X79515704Y-69566617D01*
X79561057Y-69631387D01*
X80231800Y-68960645D01*
X80231800Y-68983360D01*
G37*
%TD.AperFunction*%
%TA.AperFunction,Conductor*%
G36*
X71983238Y-66345607D02*
G01*
X71983246Y-66345606D01*
X71983268Y-66345607D01*
X71994048Y-66345460D01*
X72003058Y-66345339D01*
X72012621Y-66345025D01*
X72032403Y-66343994D01*
X72032408Y-66343992D01*
X72037086Y-66343749D01*
X72106156Y-66360177D01*
X72155380Y-66411338D01*
X72165353Y-66436963D01*
X72169059Y-66450792D01*
X72169061Y-66450799D01*
X72263011Y-66652275D01*
X72263012Y-66652277D01*
X72390516Y-66834372D01*
X72390520Y-66834377D01*
X72390523Y-66834381D01*
X72547719Y-66991577D01*
X72547723Y-66991580D01*
X72547727Y-66991583D01*
X72548590Y-66992187D01*
X72729823Y-67119088D01*
X72931304Y-67213040D01*
X73146037Y-67270578D01*
X73367500Y-67289953D01*
X73588963Y-67270578D01*
X73803696Y-67213040D01*
X74005177Y-67119088D01*
X74187281Y-66991577D01*
X74344477Y-66834381D01*
X74471988Y-66652277D01*
X74523305Y-66542226D01*
X74570222Y-66488942D01*
X74638499Y-66469481D01*
X74706459Y-66490023D01*
X74751695Y-66542227D01*
X74803011Y-66652275D01*
X74803012Y-66652277D01*
X74930516Y-66834372D01*
X74930520Y-66834377D01*
X74930523Y-66834381D01*
X75087719Y-66991577D01*
X75087723Y-66991580D01*
X75087727Y-66991583D01*
X75088590Y-66992187D01*
X75269823Y-67119088D01*
X75471304Y-67213040D01*
X75686037Y-67270578D01*
X75907500Y-67289953D01*
X76128963Y-67270578D01*
X76343696Y-67213040D01*
X76545177Y-67119088D01*
X76727281Y-66991577D01*
X76884477Y-66834381D01*
X77011988Y-66652277D01*
X77105940Y-66450796D01*
X77105940Y-66450795D01*
X77108265Y-66445810D01*
X77109881Y-66446564D01*
X77147220Y-66395842D01*
X77213538Y-66370497D01*
X77242187Y-66371487D01*
X77273580Y-66376187D01*
X79898437Y-66391359D01*
X79966438Y-66411755D01*
X80012620Y-66465678D01*
X80023226Y-66506371D01*
X80024021Y-66515458D01*
X80024021Y-66515461D01*
X80024022Y-66515463D01*
X80046373Y-66598876D01*
X80081559Y-66730193D01*
X80081561Y-66730199D01*
X80175511Y-66931675D01*
X80175512Y-66931677D01*
X80303016Y-67113772D01*
X80303020Y-67113777D01*
X80303023Y-67113781D01*
X80460219Y-67270977D01*
X80460223Y-67270980D01*
X80460227Y-67270983D01*
X80487318Y-67289952D01*
X80642323Y-67398488D01*
X80642324Y-67398488D01*
X80642328Y-67398491D01*
X80708683Y-67429432D01*
X80761969Y-67476349D01*
X80781430Y-67544626D01*
X80760889Y-67612586D01*
X80706866Y-67658652D01*
X80644455Y-67669148D01*
X80612802Y-67666379D01*
X80392820Y-67685625D01*
X80179523Y-67742777D01*
X80179519Y-67742779D01*
X79979389Y-67836101D01*
X79914610Y-67881458D01*
X80585352Y-68552200D01*
X80562640Y-68552200D01*
X80465739Y-68578164D01*
X80378860Y-68628324D01*
X80307924Y-68699260D01*
X80257764Y-68786139D01*
X80231800Y-68883040D01*
X80231800Y-68905752D01*
X79561058Y-68235010D01*
X79515700Y-68299791D01*
X79461683Y-68415630D01*
X79414766Y-68468914D01*
X79346489Y-68488375D01*
X79278529Y-68467833D01*
X79233294Y-68415629D01*
X79227493Y-68403189D01*
X79177288Y-68295524D01*
X79049777Y-68113419D01*
X78892581Y-67956223D01*
X78892577Y-67956220D01*
X78892572Y-67956216D01*
X78710477Y-67828712D01*
X78710475Y-67828711D01*
X78508999Y-67734761D01*
X78508993Y-67734759D01*
X78466874Y-67723473D01*
X78294263Y-67677222D01*
X78072800Y-67657847D01*
X77851337Y-67677222D01*
X77763172Y-67700846D01*
X77636606Y-67734759D01*
X77636601Y-67734761D01*
X77435123Y-67828712D01*
X77253022Y-67956220D01*
X77253016Y-67956225D01*
X77095825Y-68113416D01*
X77095820Y-68113422D01*
X76968312Y-68295523D01*
X76916995Y-68405573D01*
X76870077Y-68458858D01*
X76801800Y-68478319D01*
X76733840Y-68457777D01*
X76688605Y-68405573D01*
X76663482Y-68351697D01*
X76637288Y-68295524D01*
X76509777Y-68113419D01*
X76352581Y-67956223D01*
X76352577Y-67956220D01*
X76352572Y-67956216D01*
X76170477Y-67828712D01*
X76170475Y-67828711D01*
X75968999Y-67734761D01*
X75968993Y-67734759D01*
X75926874Y-67723473D01*
X75754263Y-67677222D01*
X75532800Y-67657847D01*
X75311337Y-67677222D01*
X75223172Y-67700846D01*
X75096606Y-67734759D01*
X75096601Y-67734761D01*
X74895123Y-67828712D01*
X74713022Y-67956220D01*
X74713016Y-67956225D01*
X74555825Y-68113416D01*
X74555820Y-68113422D01*
X74428310Y-68295525D01*
X74402117Y-68351697D01*
X74355200Y-68404982D01*
X74286922Y-68424442D01*
X74218963Y-68403900D01*
X74173728Y-68351696D01*
X74089899Y-68171924D01*
X74044540Y-68107145D01*
X73373800Y-68777885D01*
X73373800Y-68755174D01*
X73347836Y-68658273D01*
X73297676Y-68571394D01*
X73226740Y-68500458D01*
X73139861Y-68450298D01*
X73042960Y-68424334D01*
X73020247Y-68424334D01*
X73690987Y-67753591D01*
X73690987Y-67753590D01*
X73626217Y-67708238D01*
X73626216Y-67708237D01*
X73426081Y-67614913D01*
X73426076Y-67614911D01*
X73212779Y-67557759D01*
X72992800Y-67538513D01*
X72772820Y-67557759D01*
X72559523Y-67614911D01*
X72559519Y-67614913D01*
X72359389Y-67708235D01*
X72294610Y-67753592D01*
X72965352Y-68424334D01*
X72942640Y-68424334D01*
X72845739Y-68450298D01*
X72758860Y-68500458D01*
X72687924Y-68571394D01*
X72637764Y-68658273D01*
X72611800Y-68755174D01*
X72611800Y-68777886D01*
X71941058Y-68107144D01*
X71895700Y-68171925D01*
X71841683Y-68287764D01*
X71794766Y-68341048D01*
X71726489Y-68360509D01*
X71658529Y-68339967D01*
X71613294Y-68287763D01*
X71588695Y-68235010D01*
X71557288Y-68167658D01*
X71429777Y-67985553D01*
X71272581Y-67828357D01*
X71272577Y-67828354D01*
X71272572Y-67828350D01*
X71090477Y-67700846D01*
X71090475Y-67700845D01*
X70888999Y-67606895D01*
X70888993Y-67606893D01*
X70844018Y-67594842D01*
X70674263Y-67549356D01*
X70452800Y-67529981D01*
X70231337Y-67549356D01*
X70116263Y-67580190D01*
X70016606Y-67606893D01*
X70016601Y-67606895D01*
X69815123Y-67700846D01*
X69633022Y-67828354D01*
X69633016Y-67828359D01*
X69475825Y-67985550D01*
X69475820Y-67985556D01*
X69348312Y-68167657D01*
X69296995Y-68277707D01*
X69250077Y-68330992D01*
X69181800Y-68350453D01*
X69113840Y-68329911D01*
X69068605Y-68277707D01*
X69048695Y-68235010D01*
X69017288Y-68167658D01*
X68889777Y-67985553D01*
X68732581Y-67828357D01*
X68732577Y-67828354D01*
X68732572Y-67828350D01*
X68550477Y-67700846D01*
X68550475Y-67700845D01*
X68476562Y-67666379D01*
X68423763Y-67641758D01*
X68370479Y-67594842D01*
X68351018Y-67526565D01*
X68371560Y-67458605D01*
X68423765Y-67413369D01*
X68455671Y-67398491D01*
X68455672Y-67398490D01*
X68455677Y-67398488D01*
X68637781Y-67270977D01*
X68794977Y-67113781D01*
X68922488Y-66931677D01*
X69016440Y-66730196D01*
X69073978Y-66515463D01*
X69080180Y-66444568D01*
X69106042Y-66378454D01*
X69163545Y-66336814D01*
X69206426Y-66329555D01*
X71983238Y-66345607D01*
G37*
%TD.AperFunction*%
%TD*%
%TA.AperFunction,Conductor*%
%TO.N,Earth*%
G36*
X85594848Y-66424286D02*
G01*
X85662850Y-66444682D01*
X85705294Y-66490990D01*
X86466676Y-67918579D01*
X86481500Y-67977873D01*
X86481500Y-77981007D01*
X86493237Y-78090164D01*
X86504441Y-78141667D01*
X86539109Y-78245825D01*
X86618130Y-78368784D01*
X86618131Y-78368786D01*
X86663880Y-78421582D01*
X86663882Y-78421583D01*
X86663884Y-78421586D01*
X86774339Y-78517297D01*
X86853416Y-78553411D01*
X86907284Y-78578013D01*
X86907286Y-78578013D01*
X86907287Y-78578014D01*
X86974326Y-78597699D01*
X86974330Y-78597700D01*
X87119000Y-78618500D01*
X88645063Y-78618500D01*
X88713184Y-78638502D01*
X88759677Y-78692158D01*
X88771060Y-78743795D01*
X88892918Y-100556200D01*
X88893819Y-100717558D01*
X88905854Y-100825251D01*
X88917057Y-100876067D01*
X88917058Y-100876071D01*
X88951417Y-100978823D01*
X88951418Y-100978825D01*
X88951419Y-100978827D01*
X89004098Y-101060797D01*
X89030439Y-101101784D01*
X89030440Y-101101786D01*
X89076189Y-101154582D01*
X89076191Y-101154583D01*
X89076193Y-101154586D01*
X89186648Y-101250297D01*
X89265725Y-101286411D01*
X89319593Y-101311013D01*
X89319595Y-101311013D01*
X89319596Y-101311014D01*
X89386635Y-101330699D01*
X89386639Y-101330700D01*
X89531309Y-101351500D01*
X90038500Y-101351500D01*
X90106621Y-101371502D01*
X90153114Y-101425158D01*
X90164500Y-101477500D01*
X90164500Y-107315000D01*
X85344000Y-107315000D01*
X85344000Y-106685353D01*
X85565463Y-106665978D01*
X85780196Y-106608440D01*
X85981677Y-106514488D01*
X86163781Y-106386977D01*
X86320977Y-106229781D01*
X86448488Y-106047677D01*
X86499805Y-105937626D01*
X86546722Y-105884342D01*
X86614999Y-105864881D01*
X86682959Y-105885423D01*
X86728195Y-105937627D01*
X86779511Y-106047675D01*
X86779512Y-106047677D01*
X86907016Y-106229772D01*
X86907020Y-106229777D01*
X86907023Y-106229781D01*
X87064219Y-106386977D01*
X87064223Y-106386980D01*
X87064227Y-106386983D01*
X87168124Y-106459732D01*
X87246323Y-106514488D01*
X87447804Y-106608440D01*
X87662537Y-106665978D01*
X87884000Y-106685353D01*
X88105463Y-106665978D01*
X88320196Y-106608440D01*
X88521677Y-106514488D01*
X88703781Y-106386977D01*
X88860977Y-106229781D01*
X88988488Y-106047677D01*
X89082440Y-105846196D01*
X89139978Y-105631463D01*
X89159353Y-105410000D01*
X89139978Y-105188537D01*
X89082440Y-104973804D01*
X88988488Y-104772324D01*
X88860977Y-104590219D01*
X88703781Y-104433023D01*
X88703777Y-104433020D01*
X88703772Y-104433016D01*
X88521677Y-104305512D01*
X88521675Y-104305511D01*
X88411627Y-104254195D01*
X88358342Y-104207278D01*
X88338881Y-104139001D01*
X88359423Y-104071041D01*
X88411627Y-104025805D01*
X88521677Y-103974488D01*
X88703781Y-103846977D01*
X88860977Y-103689781D01*
X88988488Y-103507677D01*
X89082440Y-103306196D01*
X89139978Y-103091463D01*
X89159353Y-102870000D01*
X89139978Y-102648537D01*
X89082440Y-102433804D01*
X88988488Y-102232324D01*
X88860977Y-102050219D01*
X88703781Y-101893023D01*
X88703777Y-101893020D01*
X88703772Y-101893016D01*
X88521677Y-101765512D01*
X88521675Y-101765511D01*
X88320199Y-101671561D01*
X88320193Y-101671559D01*
X88278074Y-101660273D01*
X88105463Y-101614022D01*
X87884000Y-101594647D01*
X87662537Y-101614022D01*
X87547463Y-101644856D01*
X87447806Y-101671559D01*
X87447801Y-101671561D01*
X87246323Y-101765512D01*
X87064222Y-101893020D01*
X87064216Y-101893025D01*
X86907025Y-102050216D01*
X86907020Y-102050222D01*
X86779512Y-102232323D01*
X86728195Y-102342373D01*
X86681277Y-102395658D01*
X86613000Y-102415119D01*
X86545040Y-102394577D01*
X86499805Y-102342373D01*
X86489964Y-102321269D01*
X86448488Y-102232324D01*
X86320977Y-102050219D01*
X86163781Y-101893023D01*
X86163777Y-101893020D01*
X86163772Y-101893016D01*
X85981677Y-101765512D01*
X85981675Y-101765511D01*
X85780199Y-101671561D01*
X85780193Y-101671559D01*
X85728825Y-101657795D01*
X85582462Y-101618577D01*
X85521841Y-101581626D01*
X85490820Y-101517766D01*
X85499248Y-101447271D01*
X85544451Y-101392524D01*
X85582466Y-101375164D01*
X85618071Y-101365624D01*
X85618081Y-101365620D01*
X85818210Y-101272299D01*
X85882987Y-101226941D01*
X85882987Y-101226939D01*
X85344000Y-100687952D01*
X85344000Y-100523227D01*
X85418740Y-100480076D01*
X85489676Y-100409140D01*
X85539836Y-100322261D01*
X85565800Y-100225360D01*
X85565800Y-100202648D01*
X86236539Y-100873387D01*
X86236541Y-100873387D01*
X86281899Y-100808610D01*
X86375220Y-100608481D01*
X86375222Y-100608476D01*
X86432374Y-100395179D01*
X86451620Y-100175200D01*
X86432374Y-99955220D01*
X86375222Y-99741923D01*
X86375220Y-99741918D01*
X86281899Y-99541790D01*
X86236540Y-99477011D01*
X85565800Y-100147751D01*
X85565800Y-100125040D01*
X85539836Y-100028139D01*
X85489676Y-99941260D01*
X85418740Y-99870324D01*
X85344000Y-99827172D01*
X85344000Y-99662445D01*
X85882987Y-99123457D01*
X85882987Y-99123456D01*
X85818217Y-99078104D01*
X85818216Y-99078103D01*
X85702370Y-99024084D01*
X85649085Y-98977167D01*
X85629624Y-98908889D01*
X85650166Y-98840930D01*
X85702370Y-98795694D01*
X85822477Y-98739688D01*
X86004581Y-98612177D01*
X86161777Y-98454981D01*
X86289288Y-98272877D01*
X86383240Y-98071396D01*
X86440778Y-97856663D01*
X86460153Y-97635200D01*
X86440778Y-97413737D01*
X86383240Y-97199004D01*
X86289288Y-96997524D01*
X86161777Y-96815419D01*
X86004581Y-96658223D01*
X86004577Y-96658220D01*
X86004572Y-96658216D01*
X85822477Y-96530712D01*
X85822475Y-96530711D01*
X85620999Y-96436761D01*
X85620993Y-96436759D01*
X85563457Y-96421342D01*
X85406263Y-96379222D01*
X85344000Y-96373774D01*
X85344000Y-94869500D01*
X85406590Y-94869500D01*
X85406591Y-94869500D01*
X85529369Y-94845078D01*
X85645022Y-94797173D01*
X85749108Y-94727625D01*
X85837625Y-94639108D01*
X85907173Y-94535022D01*
X85955078Y-94419369D01*
X85979500Y-94296591D01*
X85979500Y-79947409D01*
X85955078Y-79824631D01*
X85907173Y-79708978D01*
X85837625Y-79604892D01*
X85749108Y-79516375D01*
X85344000Y-79111267D01*
X85344000Y-66422836D01*
X85594848Y-66424286D01*
G37*
%TD.AperFunction*%
%TD*%
%TA.AperFunction,Conductor*%
%TO.N,K1 com*%
G36*
X134494085Y-114262401D02*
G01*
X134494095Y-114262409D01*
X134757050Y-114453457D01*
X134757055Y-114453459D01*
X134757062Y-114453465D01*
X135041909Y-114610062D01*
X135041914Y-114610064D01*
X135041916Y-114610065D01*
X135041917Y-114610066D01*
X135344134Y-114729721D01*
X135344137Y-114729722D01*
X135658977Y-114810559D01*
X135658981Y-114810560D01*
X135726634Y-114819106D01*
X135981461Y-114851299D01*
X135981470Y-114851299D01*
X135981473Y-114851300D01*
X135981475Y-114851300D01*
X136306525Y-114851300D01*
X136306527Y-114851300D01*
X136306530Y-114851299D01*
X136306538Y-114851299D01*
X136498970Y-114826988D01*
X136629019Y-114810560D01*
X136943862Y-114729722D01*
X136943865Y-114729721D01*
X137246082Y-114610066D01*
X137246083Y-114610065D01*
X137246081Y-114610065D01*
X137246091Y-114610062D01*
X137530938Y-114453465D01*
X137793913Y-114262403D01*
X137889117Y-114173000D01*
X154422300Y-114173000D01*
X154422300Y-146068700D01*
X154402615Y-146135739D01*
X154349811Y-146181494D01*
X154298300Y-146192700D01*
X93982433Y-146192700D01*
X93915394Y-146173015D01*
X93869639Y-146120211D01*
X93858434Y-146068101D01*
X93859515Y-145844323D01*
X93871153Y-143435369D01*
X93901138Y-137228417D01*
X93921146Y-137161478D01*
X93974170Y-137115979D01*
X93986685Y-137111133D01*
X93990136Y-137110008D01*
X94113725Y-137031984D01*
X94166896Y-136986657D01*
X94263497Y-136876975D01*
X94325283Y-136744519D01*
X94345305Y-136678310D01*
X94345502Y-136677674D01*
X94345506Y-136677645D01*
X94345508Y-136677640D01*
X94345509Y-136677638D01*
X94367475Y-136533141D01*
X94389125Y-133848600D01*
X94409203Y-131358805D01*
X94429428Y-131291930D01*
X94482599Y-131246602D01*
X94551835Y-131237216D01*
X94615155Y-131266753D01*
X94652454Y-131325834D01*
X94655565Y-131339746D01*
X94689759Y-131548314D01*
X94689764Y-131548337D01*
X94789246Y-131906642D01*
X94789248Y-131906649D01*
X94926894Y-132252115D01*
X94926896Y-132252118D01*
X94926899Y-132252125D01*
X95099284Y-132577279D01*
X95101096Y-132580696D01*
X95309788Y-132888492D01*
X95548542Y-133169574D01*
X95550542Y-133171929D01*
X95820528Y-133427674D01*
X96116582Y-133652728D01*
X96435234Y-133844455D01*
X96435238Y-133844456D01*
X96435242Y-133844459D01*
X96632282Y-133935619D01*
X96772747Y-134000605D01*
X97125164Y-134119348D01*
X97488354Y-134199292D01*
X97858058Y-134239500D01*
X97858064Y-134239500D01*
X98229936Y-134239500D01*
X98229942Y-134239500D01*
X98599646Y-134199292D01*
X98962836Y-134119348D01*
X99315253Y-134000605D01*
X99652766Y-133844455D01*
X99971418Y-133652728D01*
X100267472Y-133427674D01*
X100537458Y-133171929D01*
X100778211Y-132888493D01*
X100986908Y-132580689D01*
X101161101Y-132252125D01*
X101298750Y-131906653D01*
X101398239Y-131548324D01*
X101440273Y-131291930D01*
X101458402Y-131181353D01*
X101458402Y-131181350D01*
X101458404Y-131181339D01*
X101478537Y-130810000D01*
X101477801Y-130796434D01*
X101475960Y-130762480D01*
X101458404Y-130438661D01*
X101439207Y-130321568D01*
X101398241Y-130071688D01*
X101398240Y-130071685D01*
X101398239Y-130071676D01*
X101337149Y-129851649D01*
X101298753Y-129713357D01*
X101298751Y-129713350D01*
X101293047Y-129699035D01*
X101161101Y-129367875D01*
X100986908Y-129039311D01*
X100935722Y-128963818D01*
X100778211Y-128731507D01*
X100537458Y-128448071D01*
X100479232Y-128392916D01*
X100267472Y-128192326D01*
X100267465Y-128192320D01*
X100267462Y-128192318D01*
X100142241Y-128097128D01*
X99971418Y-127967272D01*
X99759721Y-127839898D01*
X99652770Y-127775547D01*
X99652757Y-127775540D01*
X99315263Y-127619399D01*
X99315258Y-127619397D01*
X99315253Y-127619395D01*
X99143469Y-127561514D01*
X98962835Y-127500651D01*
X98599644Y-127420707D01*
X98229943Y-127380500D01*
X98229942Y-127380500D01*
X97858058Y-127380500D01*
X97858056Y-127380500D01*
X97488355Y-127420707D01*
X97125164Y-127500651D01*
X96852739Y-127592442D01*
X96772747Y-127619395D01*
X96772744Y-127619396D01*
X96772736Y-127619399D01*
X96435242Y-127775540D01*
X96435229Y-127775547D01*
X96181543Y-127928186D01*
X96116582Y-127967272D01*
X96024818Y-128037028D01*
X95820537Y-128192318D01*
X95820528Y-128192326D01*
X95550541Y-128448071D01*
X95309788Y-128731507D01*
X95101096Y-129039303D01*
X94926896Y-129367881D01*
X94926894Y-129367884D01*
X94789248Y-129713350D01*
X94789246Y-129713357D01*
X94689764Y-130071662D01*
X94689759Y-130071685D01*
X94664892Y-130223364D01*
X94634621Y-130286335D01*
X94575110Y-130322944D01*
X94505254Y-130321568D01*
X94447232Y-130282643D01*
X94419464Y-130218528D01*
X94418530Y-130202302D01*
X94419495Y-130082619D01*
X94468478Y-124008659D01*
X94488703Y-123941783D01*
X94541874Y-123896455D01*
X94611110Y-123887069D01*
X94674430Y-123916606D01*
X94711729Y-123975687D01*
X94711954Y-123976487D01*
X94797314Y-124283929D01*
X94797315Y-124283931D01*
X94934619Y-124628541D01*
X94934628Y-124628559D01*
X95108388Y-124956305D01*
X95108391Y-124956309D01*
X95316564Y-125263340D01*
X95316571Y-125263350D01*
X95454597Y-125425846D01*
X95454598Y-125425847D01*
X96849619Y-124030826D01*
X96929993Y-124141452D01*
X97092548Y-124304007D01*
X97203172Y-124384379D01*
X95805664Y-125781887D01*
X95826037Y-125801185D01*
X95826038Y-125801186D01*
X96121363Y-126025685D01*
X96121379Y-126025696D01*
X96439216Y-126216931D01*
X96439229Y-126216938D01*
X96775886Y-126372692D01*
X97127441Y-126491146D01*
X97489732Y-126570892D01*
X97858517Y-126610999D01*
X97858525Y-126611000D01*
X98229475Y-126611000D01*
X98229482Y-126610999D01*
X98598267Y-126570892D01*
X98960558Y-126491146D01*
X99312113Y-126372692D01*
X99648770Y-126216938D01*
X99648783Y-126216931D01*
X99966620Y-126025696D01*
X99966627Y-126025691D01*
X100261971Y-125801177D01*
X100261972Y-125801176D01*
X100282333Y-125781889D01*
X100282333Y-125781887D01*
X98884827Y-124384380D01*
X98995452Y-124304007D01*
X99158007Y-124141452D01*
X99238380Y-124030827D01*
X100633400Y-125425846D01*
X100633401Y-125425846D01*
X100771428Y-125263350D01*
X100771435Y-125263340D01*
X100979608Y-124956309D01*
X100979611Y-124956305D01*
X101153371Y-124628559D01*
X101153380Y-124628541D01*
X101290684Y-124283931D01*
X101290686Y-124283924D01*
X101389922Y-123926507D01*
X101389928Y-123926481D01*
X101449939Y-123560432D01*
X101449941Y-123560415D01*
X101470025Y-123190002D01*
X101470025Y-123189997D01*
X101449941Y-122819584D01*
X101449939Y-122819567D01*
X101389928Y-122453518D01*
X101389922Y-122453492D01*
X101290686Y-122096075D01*
X101290684Y-122096068D01*
X101153380Y-121751458D01*
X101153371Y-121751440D01*
X100979611Y-121423694D01*
X100979608Y-121423690D01*
X100771435Y-121116659D01*
X100771428Y-121116649D01*
X100633401Y-120954152D01*
X100633400Y-120954151D01*
X99238379Y-122349171D01*
X99158007Y-122238548D01*
X98995452Y-122075993D01*
X98884826Y-121995619D01*
X100282333Y-120598112D01*
X100282333Y-120598110D01*
X100261962Y-120578814D01*
X100261961Y-120578813D01*
X99966636Y-120354314D01*
X99966620Y-120354303D01*
X99648783Y-120163068D01*
X99648770Y-120163061D01*
X99312113Y-120007307D01*
X98960558Y-119888853D01*
X98598267Y-119809107D01*
X98229482Y-119769000D01*
X97858517Y-119769000D01*
X97489732Y-119809107D01*
X97127441Y-119888853D01*
X96775886Y-120007307D01*
X96439229Y-120163061D01*
X96439216Y-120163068D01*
X96121379Y-120354303D01*
X96121363Y-120354314D01*
X95826032Y-120578818D01*
X95805665Y-120598109D01*
X95805665Y-120598111D01*
X97203173Y-121995619D01*
X97092548Y-122075993D01*
X96929993Y-122238548D01*
X96849619Y-122349172D01*
X95454598Y-120954151D01*
X95316564Y-121116659D01*
X95108391Y-121423690D01*
X95108388Y-121423694D01*
X94934628Y-121751440D01*
X94934619Y-121751458D01*
X94797315Y-122096068D01*
X94797314Y-122096071D01*
X94725569Y-122354473D01*
X94688667Y-122413802D01*
X94625547Y-122443763D01*
X94556249Y-122434842D01*
X94502775Y-122389872D01*
X94482103Y-122323130D01*
X94482093Y-122320382D01*
X94490953Y-121221756D01*
X94511178Y-121154878D01*
X94540071Y-121123918D01*
X94682800Y-121015790D01*
X98310333Y-118267660D01*
X98375656Y-118242869D01*
X98385211Y-118242500D01*
X109786354Y-118242500D01*
X109853393Y-118262185D01*
X109899148Y-118314989D01*
X109909092Y-118384147D01*
X109880067Y-118447703D01*
X109821289Y-118485477D01*
X109813404Y-118487514D01*
X109263530Y-118610424D01*
X108657954Y-118786361D01*
X108401737Y-118878605D01*
X108064599Y-118999982D01*
X108064597Y-118999983D01*
X107485838Y-119250434D01*
X107173305Y-119409677D01*
X106923938Y-119536737D01*
X106923933Y-119536739D01*
X106923925Y-119536744D01*
X106923921Y-119536746D01*
X106381123Y-119857756D01*
X105859547Y-120212219D01*
X105859534Y-120212228D01*
X105361260Y-120598729D01*
X105361248Y-120598739D01*
X104888197Y-121015790D01*
X104442290Y-121461697D01*
X104025239Y-121934748D01*
X104025229Y-121934760D01*
X103638728Y-122433034D01*
X103638719Y-122433047D01*
X103284256Y-122954623D01*
X102963246Y-123497421D01*
X102963244Y-123497425D01*
X102963239Y-123497433D01*
X102963237Y-123497438D01*
X102910142Y-123601643D01*
X102676934Y-124059338D01*
X102512583Y-124439131D01*
X102426482Y-124638099D01*
X102390918Y-124736883D01*
X102212861Y-125231454D01*
X102036924Y-125837030D01*
X101899354Y-126452487D01*
X101899353Y-126452494D01*
X101800704Y-127075334D01*
X101741356Y-127703181D01*
X101741355Y-127703194D01*
X101721547Y-128333500D01*
X101741355Y-128963805D01*
X101741356Y-128963818D01*
X101800704Y-129591665D01*
X101899353Y-130214505D01*
X101899354Y-130214512D01*
X102036924Y-130829969D01*
X102212861Y-131435545D01*
X102212864Y-131435553D01*
X102426482Y-132028901D01*
X102676936Y-132607665D01*
X102963237Y-133169562D01*
X102963243Y-133169572D01*
X102963244Y-133169574D01*
X102963246Y-133169578D01*
X103284256Y-133712376D01*
X103638719Y-134233952D01*
X103638728Y-134233965D01*
X104025229Y-134732239D01*
X104025239Y-134732251D01*
X104442290Y-135205302D01*
X104888197Y-135651209D01*
X104888205Y-135651216D01*
X104888206Y-135651217D01*
X105000255Y-135750002D01*
X105361248Y-136068260D01*
X105361260Y-136068270D01*
X105859534Y-136454771D01*
X105859540Y-136454775D01*
X105859545Y-136454779D01*
X106106973Y-136622930D01*
X106381123Y-136809243D01*
X106381127Y-136809245D01*
X106381128Y-136809246D01*
X106923938Y-137130263D01*
X107485835Y-137416564D01*
X108064599Y-137667018D01*
X108657947Y-137880636D01*
X108657954Y-137880638D01*
X109263530Y-138056575D01*
X109263534Y-138056576D01*
X109263538Y-138056577D01*
X109878981Y-138194144D01*
X109878986Y-138194144D01*
X109878987Y-138194145D01*
X109878994Y-138194146D01*
X110501834Y-138292795D01*
X110501837Y-138292795D01*
X110501848Y-138292797D01*
X111129680Y-138352144D01*
X111760000Y-138371953D01*
X112390320Y-138352144D01*
X113018152Y-138292797D01*
X113641019Y-138194144D01*
X114256462Y-138056577D01*
X114862053Y-137880636D01*
X115455401Y-137667018D01*
X116034165Y-137416564D01*
X116596062Y-137130263D01*
X117138872Y-136809246D01*
X117660455Y-136454779D01*
X118158751Y-136068261D01*
X118631794Y-135651217D01*
X119077717Y-135205294D01*
X119494761Y-134732251D01*
X119881279Y-134233955D01*
X120235746Y-133712372D01*
X120556763Y-133169562D01*
X120843064Y-132607665D01*
X121082397Y-132054600D01*
X130487047Y-132054600D01*
X130506855Y-132684905D01*
X130506856Y-132684918D01*
X130566204Y-133312765D01*
X130664853Y-133935605D01*
X130664854Y-133935612D01*
X130802424Y-134551069D01*
X130978361Y-135156645D01*
X130978364Y-135156653D01*
X131191982Y-135750001D01*
X131442436Y-136328765D01*
X131728737Y-136890662D01*
X131728743Y-136890672D01*
X131728744Y-136890674D01*
X131728746Y-136890678D01*
X132049756Y-137433476D01*
X132404219Y-137955052D01*
X132404228Y-137955065D01*
X132790729Y-138453339D01*
X132790739Y-138453351D01*
X133207790Y-138926402D01*
X133653697Y-139372309D01*
X133653705Y-139372316D01*
X133653706Y-139372317D01*
X134049924Y-139721631D01*
X134126748Y-139789360D01*
X134126760Y-139789370D01*
X134625034Y-140175871D01*
X134625040Y-140175875D01*
X134625045Y-140175879D01*
X134872473Y-140344030D01*
X135146623Y-140530343D01*
X135146627Y-140530345D01*
X135146628Y-140530346D01*
X135689438Y-140851363D01*
X136251335Y-141137664D01*
X136830099Y-141388118D01*
X137423447Y-141601736D01*
X137423454Y-141601738D01*
X138029030Y-141777675D01*
X138029034Y-141777676D01*
X138029038Y-141777677D01*
X138644481Y-141915244D01*
X138644486Y-141915244D01*
X138644487Y-141915245D01*
X138644494Y-141915246D01*
X139267334Y-142013895D01*
X139267337Y-142013895D01*
X139267348Y-142013897D01*
X139895180Y-142073244D01*
X140525500Y-142093053D01*
X141155820Y-142073244D01*
X141783652Y-142013897D01*
X142406519Y-141915244D01*
X142782548Y-141831192D01*
X147925411Y-141831192D01*
X147925411Y-141831207D01*
X147944944Y-142129225D01*
X147944945Y-142129235D01*
X147944946Y-142129242D01*
X147944948Y-142129252D01*
X148003214Y-142422177D01*
X148003219Y-142422197D01*
X148099220Y-142705007D01*
X148099224Y-142705017D01*
X148231323Y-142972887D01*
X148231330Y-142972900D01*
X148397267Y-143221240D01*
X148594199Y-143445800D01*
X148769558Y-143599584D01*
X148818761Y-143642734D01*
X149067105Y-143808673D01*
X149197102Y-143872780D01*
X149334982Y-143940775D01*
X149334992Y-143940779D01*
X149617802Y-144036780D01*
X149617806Y-144036781D01*
X149617815Y-144036784D01*
X149910758Y-144095054D01*
X149939377Y-144096929D01*
X150208793Y-144114589D01*
X150208800Y-144114589D01*
X150208807Y-144114589D01*
X150447407Y-144098949D01*
X150506842Y-144095054D01*
X150799785Y-144036784D01*
X150799797Y-144036780D01*
X151082607Y-143940779D01*
X151082617Y-143940775D01*
X151350495Y-143808673D01*
X151598839Y-143642734D01*
X151823400Y-143445800D01*
X152020334Y-143221239D01*
X152186273Y-142972895D01*
X152318376Y-142705015D01*
X152414384Y-142422185D01*
X152472654Y-142129242D01*
X152480214Y-142013895D01*
X152492189Y-141831207D01*
X152492189Y-141831192D01*
X152472655Y-141533174D01*
X152472654Y-141533158D01*
X152414384Y-141240215D01*
X152318376Y-140957385D01*
X152186273Y-140689506D01*
X152020334Y-140441161D01*
X151977184Y-140391958D01*
X151823400Y-140216599D01*
X151598840Y-140019667D01*
X151350500Y-139853730D01*
X151350497Y-139853728D01*
X151350495Y-139853727D01*
X151350487Y-139853723D01*
X151082617Y-139721624D01*
X151082607Y-139721620D01*
X150799797Y-139625619D01*
X150799777Y-139625614D01*
X150506852Y-139567348D01*
X150506842Y-139567346D01*
X150506835Y-139567345D01*
X150506825Y-139567344D01*
X150208807Y-139547811D01*
X150208793Y-139547811D01*
X149910774Y-139567344D01*
X149910762Y-139567345D01*
X149910758Y-139567346D01*
X149910750Y-139567347D01*
X149910747Y-139567348D01*
X149617822Y-139625614D01*
X149617807Y-139625618D01*
X149334989Y-139721622D01*
X149334968Y-139721631D01*
X149067113Y-139853723D01*
X149067100Y-139853730D01*
X148818759Y-140019667D01*
X148594199Y-140216599D01*
X148397267Y-140441159D01*
X148231330Y-140689500D01*
X148231323Y-140689513D01*
X148099231Y-140957368D01*
X148099222Y-140957389D01*
X148003218Y-141240207D01*
X148003214Y-141240222D01*
X147944948Y-141533147D01*
X147944944Y-141533174D01*
X147925411Y-141831192D01*
X142782548Y-141831192D01*
X143021962Y-141777677D01*
X143627553Y-141601736D01*
X144220901Y-141388118D01*
X144799665Y-141137664D01*
X145361562Y-140851363D01*
X145904372Y-140530346D01*
X146425955Y-140175879D01*
X146924251Y-139789361D01*
X147397294Y-139372317D01*
X147843217Y-138926394D01*
X148260261Y-138453351D01*
X148646779Y-137955055D01*
X149001246Y-137433472D01*
X149322263Y-136890662D01*
X149608564Y-136328765D01*
X149859018Y-135750001D01*
X150072636Y-135156653D01*
X150248577Y-134551062D01*
X150386144Y-133935619D01*
X150484797Y-133312752D01*
X150544144Y-132684920D01*
X150563953Y-132054600D01*
X150544144Y-131424280D01*
X150484797Y-130796448D01*
X150386144Y-130173581D01*
X150248577Y-129558138D01*
X150238953Y-129525013D01*
X150072638Y-128952554D01*
X150072636Y-128952547D01*
X149859018Y-128359199D01*
X149608564Y-127780435D01*
X149322263Y-127218538D01*
X149001246Y-126675728D01*
X148957256Y-126610999D01*
X148646780Y-126154147D01*
X148646771Y-126154134D01*
X148260270Y-125655860D01*
X148260260Y-125655848D01*
X147843209Y-125182797D01*
X147397302Y-124736890D01*
X146924251Y-124319839D01*
X146924239Y-124319829D01*
X146425965Y-123933328D01*
X146425952Y-123933319D01*
X145904376Y-123578856D01*
X145361578Y-123257846D01*
X145361574Y-123257844D01*
X145361572Y-123257843D01*
X145361562Y-123257837D01*
X144799665Y-122971536D01*
X144799664Y-122971535D01*
X144799661Y-122971534D01*
X144487491Y-122836446D01*
X144220901Y-122721082D01*
X143721122Y-122541151D01*
X143627545Y-122507461D01*
X143021969Y-122331524D01*
X142406512Y-122193954D01*
X142406505Y-122193953D01*
X141783665Y-122095304D01*
X141439847Y-122062804D01*
X141155820Y-122035956D01*
X141155816Y-122035955D01*
X141155805Y-122035955D01*
X140525500Y-122016147D01*
X139895194Y-122035955D01*
X139895181Y-122035955D01*
X139895180Y-122035956D01*
X139756246Y-122049089D01*
X139267334Y-122095304D01*
X138644494Y-122193953D01*
X138644487Y-122193954D01*
X138029030Y-122331524D01*
X137423454Y-122507461D01*
X137084859Y-122629363D01*
X136830099Y-122721082D01*
X136737002Y-122761368D01*
X136251338Y-122971534D01*
X136005414Y-123096839D01*
X135689438Y-123257837D01*
X135689433Y-123257839D01*
X135689425Y-123257844D01*
X135689421Y-123257846D01*
X135146623Y-123578856D01*
X134625047Y-123933319D01*
X134625034Y-123933328D01*
X134126760Y-124319829D01*
X134126748Y-124319839D01*
X133653697Y-124736890D01*
X133207790Y-125182797D01*
X132790739Y-125655848D01*
X132790729Y-125655860D01*
X132404228Y-126154134D01*
X132404219Y-126154147D01*
X132049756Y-126675723D01*
X131728746Y-127218521D01*
X131728744Y-127218525D01*
X131728739Y-127218533D01*
X131728737Y-127218538D01*
X131651265Y-127370585D01*
X131442434Y-127780438D01*
X131191983Y-128359197D01*
X130978361Y-128952554D01*
X130802424Y-129558130D01*
X130664854Y-130173587D01*
X130664853Y-130173594D01*
X130566204Y-130796434D01*
X130506856Y-131424281D01*
X130506855Y-131424294D01*
X130487047Y-132054600D01*
X121082397Y-132054600D01*
X121093518Y-132028901D01*
X121307136Y-131435553D01*
X121483077Y-130829962D01*
X121620644Y-130214519D01*
X121719297Y-129591652D01*
X121778644Y-128963820D01*
X121798453Y-128333500D01*
X121778644Y-127703180D01*
X121719297Y-127075348D01*
X121714324Y-127043953D01*
X121620646Y-126452494D01*
X121620645Y-126452487D01*
X121567992Y-126216931D01*
X121483077Y-125837038D01*
X121472658Y-125801177D01*
X121307138Y-125231454D01*
X121307136Y-125231447D01*
X121133886Y-124750227D01*
X121129699Y-124680487D01*
X121163882Y-124619550D01*
X121195562Y-124597089D01*
X121318412Y-124536302D01*
X124861557Y-122100390D01*
X124924779Y-122049091D01*
X124953163Y-122022059D01*
X125007482Y-121961415D01*
X126091012Y-120539281D01*
X126147297Y-120497887D01*
X126217028Y-120493494D01*
X126278065Y-120527497D01*
X126311029Y-120589102D01*
X126313449Y-120621385D01*
X126304710Y-120776999D01*
X126323854Y-121117903D01*
X126323856Y-121117915D01*
X126381048Y-121454526D01*
X126381050Y-121454535D01*
X126475571Y-121782624D01*
X126606238Y-122098083D01*
X126771403Y-122396926D01*
X126968988Y-122675397D01*
X127029659Y-122743286D01*
X128382424Y-121390521D01*
X128477669Y-121521614D01*
X128604886Y-121648831D01*
X128735977Y-121744074D01*
X127383212Y-123096839D01*
X127451105Y-123157513D01*
X127451110Y-123157517D01*
X127729573Y-123355096D01*
X128028416Y-123520261D01*
X128343875Y-123650928D01*
X128671964Y-123745449D01*
X128671973Y-123745451D01*
X129008584Y-123802643D01*
X129008596Y-123802645D01*
X129349500Y-123821789D01*
X129690403Y-123802645D01*
X129690415Y-123802643D01*
X130027026Y-123745451D01*
X130027035Y-123745449D01*
X130355124Y-123650928D01*
X130670583Y-123520261D01*
X130969426Y-123355096D01*
X131247896Y-123157512D01*
X131247907Y-123157503D01*
X131315787Y-123096840D01*
X131315787Y-123096839D01*
X129963022Y-121744074D01*
X130094114Y-121648831D01*
X130221331Y-121521614D01*
X130316574Y-121390522D01*
X131669339Y-122743287D01*
X131669340Y-122743287D01*
X131730003Y-122675407D01*
X131730012Y-122675396D01*
X131927596Y-122396926D01*
X132092761Y-122098083D01*
X132223428Y-121782624D01*
X132317949Y-121454535D01*
X132317951Y-121454526D01*
X132375143Y-121117915D01*
X132375145Y-121117903D01*
X132394289Y-120777000D01*
X132375145Y-120436096D01*
X132375143Y-120436084D01*
X132317951Y-120099473D01*
X132317949Y-120099464D01*
X132223428Y-119771375D01*
X132092761Y-119455916D01*
X131927596Y-119157073D01*
X131730017Y-118878610D01*
X131730013Y-118878605D01*
X131669339Y-118810712D01*
X130316574Y-120163477D01*
X130221331Y-120032386D01*
X130094114Y-119905169D01*
X129963021Y-119809924D01*
X131315786Y-118457159D01*
X131247897Y-118396488D01*
X130969426Y-118198903D01*
X130670583Y-118033738D01*
X130355124Y-117903071D01*
X130027035Y-117808550D01*
X130027026Y-117808548D01*
X129690415Y-117751356D01*
X129690403Y-117751354D01*
X129349500Y-117732210D01*
X129008596Y-117751354D01*
X129008584Y-117751356D01*
X128671973Y-117808548D01*
X128671964Y-117808550D01*
X128390869Y-117889532D01*
X128321000Y-117889175D01*
X128262416Y-117851101D01*
X128233716Y-117787398D01*
X128244012Y-117718292D01*
X128257909Y-117695229D01*
X128344690Y-117581330D01*
X129012615Y-116704678D01*
X129081160Y-116583617D01*
X129105810Y-116521779D01*
X129139344Y-116386755D01*
X129134193Y-116240688D01*
X129121818Y-116171923D01*
X129075724Y-116033228D01*
X128987064Y-115855909D01*
X130175000Y-114173000D01*
X134398883Y-114173000D01*
X134494085Y-114262401D01*
G37*
%TD.AperFunction*%
%TD*%
%TA.AperFunction,Conductor*%
%TO.N,K1 com*%
G36*
X154365339Y-47713385D02*
G01*
X154411094Y-47766189D01*
X154422300Y-47817700D01*
X154422300Y-114173000D01*
X137889117Y-114173000D01*
X138030868Y-114039887D01*
X138238066Y-113789428D01*
X138412239Y-113514975D01*
X138550641Y-113220857D01*
X138651088Y-112911711D01*
X138711998Y-112592414D01*
X138716836Y-112515526D01*
X138732408Y-112268005D01*
X138732408Y-112267994D01*
X138711999Y-111943593D01*
X138711998Y-111943586D01*
X138651088Y-111624289D01*
X138550641Y-111315143D01*
X138427159Y-111052731D01*
X138412241Y-111021028D01*
X138412237Y-111021022D01*
X138238069Y-110746576D01*
X138030866Y-110496111D01*
X137793914Y-110273598D01*
X137793904Y-110273590D01*
X137530949Y-110082542D01*
X137530942Y-110082537D01*
X137530938Y-110082535D01*
X137246091Y-109925938D01*
X137246088Y-109925936D01*
X137246083Y-109925934D01*
X137246082Y-109925933D01*
X136943865Y-109806278D01*
X136943862Y-109806277D01*
X136629022Y-109725440D01*
X136629009Y-109725438D01*
X136306538Y-109684700D01*
X136306527Y-109684700D01*
X135981473Y-109684700D01*
X135981461Y-109684700D01*
X135658990Y-109725438D01*
X135658977Y-109725440D01*
X135344137Y-109806277D01*
X135344134Y-109806278D01*
X135041917Y-109925933D01*
X135041916Y-109925934D01*
X134757062Y-110082535D01*
X134757050Y-110082542D01*
X134494095Y-110273590D01*
X134494085Y-110273598D01*
X134257133Y-110496111D01*
X134049930Y-110746576D01*
X133875762Y-111021022D01*
X133875758Y-111021028D01*
X133737361Y-111315136D01*
X133737359Y-111315141D01*
X133693129Y-111451269D01*
X133636912Y-111624289D01*
X133607391Y-111779042D01*
X133576000Y-111943593D01*
X133555592Y-112267994D01*
X133555592Y-112268005D01*
X133576000Y-112592406D01*
X133576002Y-112592414D01*
X133636912Y-112911711D01*
X133661163Y-112986349D01*
X133737359Y-113220858D01*
X133737361Y-113220863D01*
X133875758Y-113514971D01*
X133875762Y-113514977D01*
X134049930Y-113789423D01*
X134257133Y-114039888D01*
X134398882Y-114173000D01*
X130175000Y-114173000D01*
X128987064Y-115855908D01*
X126071290Y-110024359D01*
X126071279Y-110024340D01*
X126028579Y-109953761D01*
X126028577Y-109953759D01*
X126028571Y-109953748D01*
X126008523Y-109925933D01*
X126005343Y-109921520D01*
X125981878Y-109893942D01*
X125951870Y-109858672D01*
X125951862Y-109858664D01*
X125951857Y-109858658D01*
X119548819Y-103455620D01*
X119515334Y-103394297D01*
X119512500Y-103367939D01*
X119512500Y-73356023D01*
X119512500Y-73356017D01*
X119493869Y-73218953D01*
X119476200Y-73155159D01*
X119421663Y-73028046D01*
X119421659Y-73028041D01*
X119329404Y-72914696D01*
X119329392Y-72914683D01*
X119279868Y-72869024D01*
X119278583Y-72867790D01*
X119278032Y-72867332D01*
X119278028Y-72867329D01*
X119157566Y-72784560D01*
X119157563Y-72784558D01*
X119157561Y-72784557D01*
X104329694Y-65452697D01*
X84835584Y-55813542D01*
X84724838Y-55773818D01*
X84669888Y-55760975D01*
X84669881Y-55760974D01*
X84669880Y-55760974D01*
X84582233Y-55750868D01*
X84553019Y-55747500D01*
X84553018Y-55747500D01*
X70871511Y-55747500D01*
X70804472Y-55727815D01*
X70758717Y-55675011D01*
X70747522Y-55621847D01*
X70752385Y-55257092D01*
X70776040Y-53482943D01*
X70785467Y-53437149D01*
X70914825Y-53124854D01*
X70968646Y-52938035D01*
X71006120Y-52879066D01*
X71069527Y-52849717D01*
X71138735Y-52859307D01*
X71191772Y-52904792D01*
X71206953Y-52938035D01*
X71260775Y-53124854D01*
X71397265Y-53454369D01*
X71438814Y-53529547D01*
X71569792Y-53766534D01*
X71569795Y-53766539D01*
X71776178Y-54057407D01*
X71776182Y-54057412D01*
X72013844Y-54323356D01*
X72279788Y-54561018D01*
X72279791Y-54561020D01*
X72279792Y-54561021D01*
X72570660Y-54767404D01*
X72570665Y-54767407D01*
X72570668Y-54767408D01*
X72570670Y-54767410D01*
X72882831Y-54939935D01*
X73212346Y-55076425D01*
X73555071Y-55175162D01*
X73906697Y-55234906D01*
X74262800Y-55254904D01*
X74618903Y-55234906D01*
X74970529Y-55175162D01*
X75313254Y-55076425D01*
X75642769Y-54939935D01*
X75954930Y-54767410D01*
X75954935Y-54767406D01*
X75954939Y-54767404D01*
X76075159Y-54682102D01*
X76245812Y-54561018D01*
X76511756Y-54323356D01*
X76749418Y-54057412D01*
X76903180Y-53840705D01*
X76955804Y-53766539D01*
X76955807Y-53766534D01*
X76955810Y-53766530D01*
X77128335Y-53454369D01*
X77190832Y-53303487D01*
X77234673Y-53249084D01*
X77300967Y-53227019D01*
X77368666Y-53244298D01*
X77416277Y-53295435D01*
X77420586Y-53305043D01*
X77503419Y-53512941D01*
X77503428Y-53512959D01*
X77677188Y-53840705D01*
X77677191Y-53840709D01*
X77885364Y-54147740D01*
X77885371Y-54147750D01*
X78023397Y-54310246D01*
X78023398Y-54310247D01*
X79418419Y-52915226D01*
X79498793Y-53025852D01*
X79661348Y-53188407D01*
X79771972Y-53268779D01*
X78374464Y-54666287D01*
X78394837Y-54685585D01*
X78394838Y-54685586D01*
X78690163Y-54910085D01*
X78690179Y-54910096D01*
X79008016Y-55101331D01*
X79008029Y-55101338D01*
X79344686Y-55257092D01*
X79696241Y-55375546D01*
X80058532Y-55455292D01*
X80427317Y-55495399D01*
X80427325Y-55495400D01*
X80798275Y-55495400D01*
X80798282Y-55495399D01*
X81167067Y-55455292D01*
X81529358Y-55375546D01*
X81880913Y-55257092D01*
X82217570Y-55101338D01*
X82217583Y-55101331D01*
X82535420Y-54910096D01*
X82535427Y-54910091D01*
X82830771Y-54685577D01*
X82830772Y-54685576D01*
X82851133Y-54666289D01*
X82851133Y-54666287D01*
X81453627Y-53268780D01*
X81564252Y-53188407D01*
X81726807Y-53025852D01*
X81807180Y-52915227D01*
X83202200Y-54310246D01*
X83202201Y-54310246D01*
X83340228Y-54147750D01*
X83340235Y-54147740D01*
X83548408Y-53840709D01*
X83548411Y-53840705D01*
X83722171Y-53512959D01*
X83722180Y-53512941D01*
X83859484Y-53168331D01*
X83859486Y-53168324D01*
X83958722Y-52810907D01*
X83958728Y-52810881D01*
X84018739Y-52444832D01*
X84018741Y-52444815D01*
X84019913Y-52423192D01*
X148179411Y-52423192D01*
X148179411Y-52423207D01*
X148198944Y-52721225D01*
X148198945Y-52721235D01*
X148198946Y-52721242D01*
X148198948Y-52721252D01*
X148257214Y-53014177D01*
X148257219Y-53014197D01*
X148353220Y-53297007D01*
X148353224Y-53297017D01*
X148485323Y-53564887D01*
X148485330Y-53564900D01*
X148651267Y-53813240D01*
X148848199Y-54037800D01*
X148973563Y-54147740D01*
X149072761Y-54234734D01*
X149321105Y-54400673D01*
X149451102Y-54464780D01*
X149588982Y-54532775D01*
X149588992Y-54532779D01*
X149871802Y-54628780D01*
X149871806Y-54628781D01*
X149871815Y-54628784D01*
X150164758Y-54687054D01*
X150193377Y-54688929D01*
X150462793Y-54706589D01*
X150462800Y-54706589D01*
X150462807Y-54706589D01*
X150701407Y-54690949D01*
X150760842Y-54687054D01*
X151053785Y-54628784D01*
X151053797Y-54628780D01*
X151336607Y-54532779D01*
X151336617Y-54532775D01*
X151604495Y-54400673D01*
X151852839Y-54234734D01*
X152077400Y-54037800D01*
X152274334Y-53813239D01*
X152440273Y-53564895D01*
X152572376Y-53297015D01*
X152572913Y-53295435D01*
X152668380Y-53014197D01*
X152668380Y-53014196D01*
X152668384Y-53014185D01*
X152726654Y-52721242D01*
X152732304Y-52635037D01*
X152746189Y-52423207D01*
X152746189Y-52423192D01*
X152726655Y-52125174D01*
X152726654Y-52125158D01*
X152668384Y-51832215D01*
X152572376Y-51549385D01*
X152440273Y-51281506D01*
X152274334Y-51033161D01*
X152228124Y-50980468D01*
X152077400Y-50808599D01*
X151852840Y-50611667D01*
X151604500Y-50445730D01*
X151604497Y-50445728D01*
X151604495Y-50445727D01*
X151604487Y-50445723D01*
X151336617Y-50313624D01*
X151336607Y-50313620D01*
X151053797Y-50217619D01*
X151053777Y-50217614D01*
X150760852Y-50159348D01*
X150760842Y-50159346D01*
X150760835Y-50159345D01*
X150760825Y-50159344D01*
X150462807Y-50139811D01*
X150462793Y-50139811D01*
X150164774Y-50159344D01*
X150164762Y-50159345D01*
X150164758Y-50159346D01*
X150164750Y-50159347D01*
X150164747Y-50159348D01*
X149871822Y-50217614D01*
X149871807Y-50217618D01*
X149588989Y-50313622D01*
X149588968Y-50313631D01*
X149321113Y-50445723D01*
X149321100Y-50445730D01*
X149072759Y-50611667D01*
X148848199Y-50808599D01*
X148651267Y-51033159D01*
X148485330Y-51281500D01*
X148485323Y-51281513D01*
X148353231Y-51549368D01*
X148353222Y-51549389D01*
X148257218Y-51832207D01*
X148257214Y-51832222D01*
X148198948Y-52125147D01*
X148198944Y-52125174D01*
X148179411Y-52423192D01*
X84019913Y-52423192D01*
X84038825Y-52074402D01*
X84038825Y-52074397D01*
X84018741Y-51703984D01*
X84018739Y-51703967D01*
X83958728Y-51337918D01*
X83958722Y-51337892D01*
X83859486Y-50980475D01*
X83859484Y-50980468D01*
X83722180Y-50635858D01*
X83722171Y-50635840D01*
X83548411Y-50308094D01*
X83548408Y-50308090D01*
X83340235Y-50001059D01*
X83340228Y-50001049D01*
X83202201Y-49838552D01*
X83202200Y-49838551D01*
X81807179Y-51233571D01*
X81726807Y-51122948D01*
X81564252Y-50960393D01*
X81453626Y-50880019D01*
X82851133Y-49482512D01*
X82851133Y-49482510D01*
X82830762Y-49463214D01*
X82830761Y-49463213D01*
X82535436Y-49238714D01*
X82535420Y-49238703D01*
X82217583Y-49047468D01*
X82217570Y-49047461D01*
X81880913Y-48891707D01*
X81529358Y-48773253D01*
X81167067Y-48693507D01*
X80798282Y-48653400D01*
X80427317Y-48653400D01*
X80058532Y-48693507D01*
X79696241Y-48773253D01*
X79344686Y-48891707D01*
X79008029Y-49047461D01*
X79008016Y-49047468D01*
X78690179Y-49238703D01*
X78690163Y-49238714D01*
X78394832Y-49463218D01*
X78374465Y-49482509D01*
X78374465Y-49482511D01*
X79771973Y-50880019D01*
X79661348Y-50960393D01*
X79498793Y-51122948D01*
X79418419Y-51233572D01*
X78023398Y-49838551D01*
X77885364Y-50001059D01*
X77677191Y-50308090D01*
X77677188Y-50308094D01*
X77503428Y-50635840D01*
X77503419Y-50635858D01*
X77420586Y-50843756D01*
X77377486Y-50898748D01*
X77311497Y-50921709D01*
X77243569Y-50905348D01*
X77195271Y-50854860D01*
X77190832Y-50845312D01*
X77128335Y-50694431D01*
X76955810Y-50382270D01*
X76955808Y-50382268D01*
X76955807Y-50382265D01*
X76955804Y-50382260D01*
X76749421Y-50091392D01*
X76749420Y-50091391D01*
X76749418Y-50091388D01*
X76511756Y-49825444D01*
X76245812Y-49587782D01*
X76245809Y-49587780D01*
X76245807Y-49587778D01*
X75954939Y-49381395D01*
X75954934Y-49381392D01*
X75642767Y-49208864D01*
X75556697Y-49173212D01*
X75313254Y-49072375D01*
X75313250Y-49072373D01*
X75313248Y-49072373D01*
X74970534Y-48973639D01*
X74970525Y-48973637D01*
X74618910Y-48913895D01*
X74618898Y-48913893D01*
X74262800Y-48893896D01*
X73906701Y-48913893D01*
X73906689Y-48913895D01*
X73555074Y-48973637D01*
X73555065Y-48973639D01*
X73212351Y-49072373D01*
X72882832Y-49208864D01*
X72570665Y-49381392D01*
X72570660Y-49381395D01*
X72279792Y-49587778D01*
X72013844Y-49825444D01*
X71776178Y-50091392D01*
X71569795Y-50382260D01*
X71569792Y-50382265D01*
X71397264Y-50694432D01*
X71260773Y-51023951D01*
X71206954Y-51210763D01*
X71169480Y-51269733D01*
X71106073Y-51299082D01*
X71036865Y-51289492D01*
X70983828Y-51244007D01*
X70968646Y-51210763D01*
X70943347Y-51122948D01*
X70914825Y-51023946D01*
X70821899Y-50799604D01*
X70812473Y-50750508D01*
X70840435Y-48653400D01*
X70851600Y-47816047D01*
X70872177Y-47749276D01*
X70925586Y-47704229D01*
X70975589Y-47693700D01*
X154298300Y-47693700D01*
X154365339Y-47713385D01*
G37*
%TD.AperFunction*%
%TD*%
%TA.AperFunction,Conductor*%
%TO.N,K2 com*%
G36*
X84607979Y-56273845D02*
G01*
X104102090Y-65913000D01*
X118929962Y-73244863D01*
X118981331Y-73292223D01*
X118999000Y-73356017D01*
X118999000Y-103632000D01*
X125588771Y-110221771D01*
X125611999Y-110253998D01*
X128616436Y-116262872D01*
X128628811Y-116331637D01*
X128604161Y-116393475D01*
X124599028Y-121650212D01*
X124570644Y-121677244D01*
X121027499Y-124113156D01*
X120961103Y-124134915D01*
X120893484Y-124117324D01*
X120846110Y-124065968D01*
X120843445Y-124060216D01*
X120843064Y-124059335D01*
X120556763Y-123497438D01*
X120235746Y-122954628D01*
X120143970Y-122819584D01*
X119895192Y-122453518D01*
X119881279Y-122433045D01*
X119881275Y-122433040D01*
X119881271Y-122433034D01*
X119494770Y-121934760D01*
X119494760Y-121934748D01*
X119408144Y-121836502D01*
X119077717Y-121461706D01*
X119077716Y-121461705D01*
X119077709Y-121461697D01*
X118631802Y-121015790D01*
X118158751Y-120598739D01*
X118158739Y-120598729D01*
X117660465Y-120212228D01*
X117660452Y-120212219D01*
X117138876Y-119857756D01*
X116596078Y-119536746D01*
X116596074Y-119536744D01*
X116596072Y-119536743D01*
X116596062Y-119536737D01*
X116034165Y-119250436D01*
X116034164Y-119250435D01*
X116034161Y-119250434D01*
X115741497Y-119123787D01*
X115455401Y-118999982D01*
X114862053Y-118786364D01*
X114862054Y-118786364D01*
X114862045Y-118786361D01*
X114256469Y-118610424D01*
X113641012Y-118472854D01*
X113641005Y-118472853D01*
X113018167Y-118374205D01*
X113018161Y-118374204D01*
X113018152Y-118374203D01*
X112949865Y-118367748D01*
X112840551Y-118357414D01*
X112775661Y-118331507D01*
X112775291Y-118331215D01*
X112014000Y-117729000D01*
X98171000Y-117729000D01*
X93980000Y-120903998D01*
X93980000Y-120904000D01*
X93875642Y-133844459D01*
X93853992Y-136529000D01*
X93833767Y-136595879D01*
X93780596Y-136641206D01*
X93729996Y-136652000D01*
X85258891Y-136652000D01*
X85191852Y-136632315D01*
X85183691Y-136626595D01*
X77772800Y-130974220D01*
X77731433Y-130917912D01*
X77724000Y-130875625D01*
X77724000Y-130809997D01*
X86481463Y-130809997D01*
X86481463Y-130810002D01*
X86501596Y-131181336D01*
X86501597Y-131181353D01*
X86561758Y-131548311D01*
X86561764Y-131548337D01*
X86661246Y-131906642D01*
X86661248Y-131906649D01*
X86798894Y-132252115D01*
X86798896Y-132252118D01*
X86798899Y-132252125D01*
X86973092Y-132580689D01*
X86973096Y-132580696D01*
X86991382Y-132607665D01*
X87181789Y-132888493D01*
X87422542Y-133171929D01*
X87692528Y-133427674D01*
X87988582Y-133652728D01*
X88307234Y-133844455D01*
X88307238Y-133844456D01*
X88307242Y-133844459D01*
X88644736Y-134000600D01*
X88644747Y-134000605D01*
X88997164Y-134119348D01*
X89360354Y-134199292D01*
X89730058Y-134239500D01*
X89730064Y-134239500D01*
X90101936Y-134239500D01*
X90101942Y-134239500D01*
X90471646Y-134199292D01*
X90834836Y-134119348D01*
X91187253Y-134000605D01*
X91524766Y-133844455D01*
X91843418Y-133652728D01*
X92139472Y-133427674D01*
X92409458Y-133171929D01*
X92650211Y-132888493D01*
X92858908Y-132580689D01*
X93033101Y-132252125D01*
X93170750Y-131906653D01*
X93270239Y-131548324D01*
X93330404Y-131181339D01*
X93350537Y-130810000D01*
X93330404Y-130438661D01*
X93328313Y-130425907D01*
X93270241Y-130071688D01*
X93270240Y-130071687D01*
X93270239Y-130071676D01*
X93170750Y-129713347D01*
X93033101Y-129367875D01*
X92858908Y-129039311D01*
X92858684Y-129038981D01*
X92650211Y-128731507D01*
X92409458Y-128448071D01*
X92246820Y-128294012D01*
X92139472Y-128192326D01*
X92139465Y-128192320D01*
X92139462Y-128192318D01*
X92069237Y-128138935D01*
X91843418Y-127967272D01*
X91631721Y-127839898D01*
X91524770Y-127775547D01*
X91524757Y-127775540D01*
X91187263Y-127619399D01*
X91187258Y-127619397D01*
X91187253Y-127619395D01*
X91015469Y-127561514D01*
X90834835Y-127500651D01*
X90471644Y-127420707D01*
X90101943Y-127380500D01*
X90101942Y-127380500D01*
X89730058Y-127380500D01*
X89730056Y-127380500D01*
X89360355Y-127420707D01*
X88997164Y-127500651D01*
X88780356Y-127573703D01*
X88644747Y-127619395D01*
X88644744Y-127619396D01*
X88644736Y-127619399D01*
X88307242Y-127775540D01*
X88307229Y-127775547D01*
X88042059Y-127935095D01*
X87988582Y-127967272D01*
X87896818Y-128037028D01*
X87692537Y-128192318D01*
X87692528Y-128192326D01*
X87422541Y-128448071D01*
X87181788Y-128731507D01*
X86973096Y-129039303D01*
X86973092Y-129039311D01*
X86823276Y-129321896D01*
X86798896Y-129367881D01*
X86798894Y-129367884D01*
X86661248Y-129713350D01*
X86661246Y-129713357D01*
X86561764Y-130071662D01*
X86561758Y-130071688D01*
X86501597Y-130438646D01*
X86501596Y-130438663D01*
X86481463Y-130809997D01*
X77724000Y-130809997D01*
X77724000Y-128447800D01*
X79199809Y-128447800D01*
X79219350Y-128745935D01*
X79219352Y-128745947D01*
X79277637Y-129038967D01*
X79277640Y-129038981D01*
X79373678Y-129321896D01*
X79505817Y-129589848D01*
X79505826Y-129589863D01*
X79671815Y-129838283D01*
X79868810Y-130062914D01*
X80041683Y-130214519D01*
X80093443Y-130259911D01*
X80341867Y-130425902D01*
X80341870Y-130425903D01*
X80341876Y-130425907D01*
X80597358Y-130551896D01*
X80609832Y-130558048D01*
X80892752Y-130654087D01*
X81185788Y-130712375D01*
X81483925Y-130731916D01*
X81782062Y-130712375D01*
X82075098Y-130654087D01*
X82358018Y-130558048D01*
X82625983Y-130425902D01*
X82874407Y-130259911D01*
X83099039Y-130062914D01*
X83296036Y-129838282D01*
X83462027Y-129589858D01*
X83594173Y-129321893D01*
X83690212Y-129038973D01*
X83748500Y-128745937D01*
X83768041Y-128447800D01*
X83748500Y-128149663D01*
X83690212Y-127856627D01*
X83594173Y-127573707D01*
X83479328Y-127340824D01*
X83462032Y-127305751D01*
X83462023Y-127305736D01*
X83422550Y-127246660D01*
X83296036Y-127057318D01*
X83151779Y-126892824D01*
X83099039Y-126832685D01*
X82874408Y-126635690D01*
X82837455Y-126610999D01*
X82670358Y-126499348D01*
X82625988Y-126469701D01*
X82625973Y-126469692D01*
X82358021Y-126337553D01*
X82075106Y-126241515D01*
X82075100Y-126241513D01*
X82075098Y-126241513D01*
X81782062Y-126183225D01*
X81483925Y-126163684D01*
X81185788Y-126183225D01*
X81185782Y-126183226D01*
X81185777Y-126183227D01*
X80892757Y-126241512D01*
X80892743Y-126241515D01*
X80609828Y-126337553D01*
X80341876Y-126469692D01*
X80341861Y-126469701D01*
X80093441Y-126635690D01*
X79868810Y-126832685D01*
X79671815Y-127057316D01*
X79505826Y-127305736D01*
X79505817Y-127305751D01*
X79373678Y-127573703D01*
X79277640Y-127856618D01*
X79277637Y-127856632D01*
X79219352Y-128149652D01*
X79219350Y-128149664D01*
X79199809Y-128447800D01*
X77724000Y-128447800D01*
X77724000Y-123189997D01*
X86489975Y-123189997D01*
X86489975Y-123190002D01*
X86510058Y-123560415D01*
X86510060Y-123560432D01*
X86570071Y-123926481D01*
X86570077Y-123926507D01*
X86669313Y-124283924D01*
X86669315Y-124283931D01*
X86806619Y-124628541D01*
X86806628Y-124628559D01*
X86980388Y-124956305D01*
X86980391Y-124956309D01*
X87188564Y-125263340D01*
X87188571Y-125263350D01*
X87326597Y-125425846D01*
X87326598Y-125425847D01*
X88721619Y-124030826D01*
X88801993Y-124141452D01*
X88964548Y-124304007D01*
X89075172Y-124384379D01*
X87677664Y-125781887D01*
X87698037Y-125801185D01*
X87698038Y-125801186D01*
X87993363Y-126025685D01*
X87993379Y-126025696D01*
X88311216Y-126216931D01*
X88311229Y-126216938D01*
X88647886Y-126372692D01*
X88999441Y-126491146D01*
X89361732Y-126570892D01*
X89730517Y-126610999D01*
X89730525Y-126611000D01*
X90101475Y-126611000D01*
X90101482Y-126610999D01*
X90470267Y-126570892D01*
X90832558Y-126491146D01*
X91184113Y-126372692D01*
X91520770Y-126216938D01*
X91520783Y-126216931D01*
X91838620Y-126025696D01*
X91838627Y-126025691D01*
X92133971Y-125801177D01*
X92133972Y-125801176D01*
X92154333Y-125781889D01*
X92154333Y-125781887D01*
X90756827Y-124384380D01*
X90867452Y-124304007D01*
X91030007Y-124141452D01*
X91110380Y-124030827D01*
X92505400Y-125425846D01*
X92505401Y-125425846D01*
X92643428Y-125263350D01*
X92643435Y-125263340D01*
X92851608Y-124956309D01*
X92851611Y-124956305D01*
X93025371Y-124628559D01*
X93025380Y-124628541D01*
X93162684Y-124283931D01*
X93162686Y-124283924D01*
X93261922Y-123926507D01*
X93261928Y-123926481D01*
X93321939Y-123560432D01*
X93321941Y-123560415D01*
X93342025Y-123190002D01*
X93342025Y-123189997D01*
X93321941Y-122819584D01*
X93321939Y-122819567D01*
X93261928Y-122453518D01*
X93261922Y-122453492D01*
X93162686Y-122096075D01*
X93162684Y-122096068D01*
X93025380Y-121751458D01*
X93025371Y-121751440D01*
X92851611Y-121423694D01*
X92851608Y-121423690D01*
X92643435Y-121116659D01*
X92643428Y-121116649D01*
X92505401Y-120954152D01*
X92505400Y-120954151D01*
X91110379Y-122349171D01*
X91030007Y-122238548D01*
X90867452Y-122075993D01*
X90756826Y-121995619D01*
X92154333Y-120598112D01*
X92154333Y-120598110D01*
X92133962Y-120578814D01*
X92133961Y-120578813D01*
X91838636Y-120354314D01*
X91838620Y-120354303D01*
X91520783Y-120163068D01*
X91520770Y-120163061D01*
X91184113Y-120007307D01*
X90832558Y-119888853D01*
X90470267Y-119809107D01*
X90101482Y-119769000D01*
X89730517Y-119769000D01*
X89361732Y-119809107D01*
X88999441Y-119888853D01*
X88647886Y-120007307D01*
X88311229Y-120163061D01*
X88311216Y-120163068D01*
X87993379Y-120354303D01*
X87993363Y-120354314D01*
X87698032Y-120578818D01*
X87677665Y-120598109D01*
X87677665Y-120598111D01*
X89075173Y-121995619D01*
X88964548Y-122075993D01*
X88801993Y-122238548D01*
X88721619Y-122349172D01*
X87326598Y-120954151D01*
X87188564Y-121116659D01*
X86980391Y-121423690D01*
X86980388Y-121423694D01*
X86806628Y-121751440D01*
X86806619Y-121751458D01*
X86669315Y-122096068D01*
X86669313Y-122096075D01*
X86570077Y-122453492D01*
X86570071Y-122453518D01*
X86510060Y-122819567D01*
X86510058Y-122819584D01*
X86489975Y-123189997D01*
X77724000Y-123189997D01*
X77724000Y-117726000D01*
X77743685Y-117658961D01*
X77796489Y-117613206D01*
X77848000Y-117602000D01*
X81848401Y-117602000D01*
X81859208Y-117602472D01*
X81914998Y-117607353D01*
X81915000Y-117607353D01*
X81915002Y-117607353D01*
X81970792Y-117602472D01*
X81981599Y-117602000D01*
X89468401Y-117602000D01*
X89479208Y-117602472D01*
X89534998Y-117607353D01*
X89535000Y-117607353D01*
X89535002Y-117607353D01*
X89590792Y-117602472D01*
X89601599Y-117602000D01*
X90678000Y-117602000D01*
X90678000Y-117157500D01*
X119891210Y-117157500D01*
X119910354Y-117498403D01*
X119910356Y-117498415D01*
X119967548Y-117835026D01*
X119967550Y-117835035D01*
X120062071Y-118163124D01*
X120192738Y-118478583D01*
X120357903Y-118777426D01*
X120555488Y-119055897D01*
X120616159Y-119123786D01*
X121968924Y-117771021D01*
X122064169Y-117902114D01*
X122191386Y-118029331D01*
X122322477Y-118124574D01*
X120969712Y-119477339D01*
X121037605Y-119538013D01*
X121037610Y-119538017D01*
X121316073Y-119735596D01*
X121614916Y-119900761D01*
X121930375Y-120031428D01*
X122258464Y-120125949D01*
X122258473Y-120125951D01*
X122595084Y-120183143D01*
X122595096Y-120183145D01*
X122936000Y-120202289D01*
X123276903Y-120183145D01*
X123276915Y-120183143D01*
X123613526Y-120125951D01*
X123613535Y-120125949D01*
X123941624Y-120031428D01*
X124257083Y-119900761D01*
X124555926Y-119735596D01*
X124834396Y-119538012D01*
X124834407Y-119538003D01*
X124902287Y-119477340D01*
X124902287Y-119477339D01*
X123549522Y-118124574D01*
X123680614Y-118029331D01*
X123807831Y-117902114D01*
X123903074Y-117771022D01*
X125255839Y-119123787D01*
X125255840Y-119123787D01*
X125316503Y-119055907D01*
X125316512Y-119055896D01*
X125514096Y-118777426D01*
X125679261Y-118478583D01*
X125809928Y-118163124D01*
X125904449Y-117835035D01*
X125904451Y-117835026D01*
X125961643Y-117498415D01*
X125961645Y-117498403D01*
X125980789Y-117157500D01*
X125961645Y-116816596D01*
X125961643Y-116816584D01*
X125904451Y-116479973D01*
X125904449Y-116479964D01*
X125809928Y-116151875D01*
X125679261Y-115836416D01*
X125514096Y-115537573D01*
X125316517Y-115259110D01*
X125316513Y-115259105D01*
X125255839Y-115191212D01*
X123903074Y-116543977D01*
X123807831Y-116412886D01*
X123680614Y-116285669D01*
X123549522Y-116190424D01*
X124902286Y-114837659D01*
X124834397Y-114776988D01*
X124555926Y-114579403D01*
X124257083Y-114414238D01*
X123941624Y-114283571D01*
X123613535Y-114189050D01*
X123613526Y-114189048D01*
X123276915Y-114131856D01*
X123276903Y-114131854D01*
X122936000Y-114112710D01*
X122595096Y-114131854D01*
X122595084Y-114131856D01*
X122258473Y-114189048D01*
X122258464Y-114189050D01*
X121930375Y-114283571D01*
X121614916Y-114414238D01*
X121316073Y-114579403D01*
X121037599Y-114776991D01*
X120969712Y-114837659D01*
X122322477Y-116190424D01*
X122191386Y-116285669D01*
X122064169Y-116412886D01*
X121968925Y-116543977D01*
X120616159Y-115191212D01*
X120555491Y-115259099D01*
X120357903Y-115537573D01*
X120192738Y-115836416D01*
X120062071Y-116151875D01*
X119967550Y-116479964D01*
X119967548Y-116479973D01*
X119910356Y-116816584D01*
X119910354Y-116816596D01*
X119891210Y-117157500D01*
X90678000Y-117157500D01*
X90678000Y-116914577D01*
X90689618Y-116862172D01*
X90733440Y-116768196D01*
X90790978Y-116553463D01*
X90810353Y-116332000D01*
X90810321Y-116331637D01*
X90797048Y-116179919D01*
X90790978Y-116110537D01*
X90733440Y-115895804D01*
X90705747Y-115836416D01*
X90689618Y-115801826D01*
X90678000Y-115749422D01*
X90678000Y-114374577D01*
X90689618Y-114322172D01*
X90707618Y-114283571D01*
X90733440Y-114228196D01*
X90790978Y-114013463D01*
X90810353Y-113792000D01*
X90809818Y-113785888D01*
X90793232Y-113596300D01*
X90790978Y-113570537D01*
X90733440Y-113355804D01*
X90704671Y-113294108D01*
X90689618Y-113261826D01*
X90678000Y-113209422D01*
X90678000Y-112013994D01*
X100230792Y-112013994D01*
X100230792Y-112014005D01*
X100251200Y-112338406D01*
X100270190Y-112437953D01*
X100312112Y-112657711D01*
X100312114Y-112657716D01*
X100412559Y-112966858D01*
X100412561Y-112966863D01*
X100550958Y-113260971D01*
X100550962Y-113260977D01*
X100725130Y-113535423D01*
X100932333Y-113785888D01*
X101169285Y-114008401D01*
X101169295Y-114008409D01*
X101432250Y-114199457D01*
X101432255Y-114199459D01*
X101432262Y-114199465D01*
X101717109Y-114356062D01*
X101717114Y-114356064D01*
X101717116Y-114356065D01*
X101717117Y-114356066D01*
X102019334Y-114475721D01*
X102019337Y-114475722D01*
X102334177Y-114556559D01*
X102334181Y-114556560D01*
X102401834Y-114565106D01*
X102656661Y-114597299D01*
X102656670Y-114597299D01*
X102656673Y-114597300D01*
X102656675Y-114597300D01*
X102981725Y-114597300D01*
X102981727Y-114597300D01*
X102981730Y-114597299D01*
X102981738Y-114597299D01*
X103174170Y-114572988D01*
X103304219Y-114556560D01*
X103619062Y-114475722D01*
X103619065Y-114475721D01*
X103921282Y-114356066D01*
X103921283Y-114356065D01*
X103921281Y-114356065D01*
X103921291Y-114356062D01*
X104206138Y-114199465D01*
X104469113Y-114008403D01*
X104706068Y-113785887D01*
X104913266Y-113535428D01*
X105087439Y-113260975D01*
X105225841Y-112966857D01*
X105326288Y-112657711D01*
X105387198Y-112338414D01*
X105392036Y-112261526D01*
X105407608Y-112014005D01*
X105407608Y-112013994D01*
X105387199Y-111689593D01*
X105386933Y-111688199D01*
X105326288Y-111370289D01*
X105225841Y-111061143D01*
X105225838Y-111061136D01*
X105087441Y-110767028D01*
X105087437Y-110767022D01*
X104913269Y-110492576D01*
X104879024Y-110451181D01*
X104706068Y-110242113D01*
X104469113Y-110019597D01*
X104469110Y-110019595D01*
X104469104Y-110019590D01*
X104206149Y-109828542D01*
X104206142Y-109828537D01*
X104206138Y-109828535D01*
X103921291Y-109671938D01*
X103921288Y-109671936D01*
X103921283Y-109671934D01*
X103921282Y-109671933D01*
X103619065Y-109552278D01*
X103619062Y-109552277D01*
X103304222Y-109471440D01*
X103304209Y-109471438D01*
X102981738Y-109430700D01*
X102981727Y-109430700D01*
X102656673Y-109430700D01*
X102656661Y-109430700D01*
X102334190Y-109471438D01*
X102334177Y-109471440D01*
X102019337Y-109552277D01*
X102019334Y-109552278D01*
X101717117Y-109671933D01*
X101717116Y-109671934D01*
X101432262Y-109828535D01*
X101432250Y-109828542D01*
X101169295Y-110019590D01*
X101169285Y-110019598D01*
X100932333Y-110242111D01*
X100725130Y-110492576D01*
X100550962Y-110767022D01*
X100550958Y-110767028D01*
X100412561Y-111061136D01*
X100412559Y-111061141D01*
X100336363Y-111295651D01*
X100312112Y-111370289D01*
X100292430Y-111473464D01*
X100251200Y-111689593D01*
X100230792Y-112013994D01*
X90678000Y-112013994D01*
X90678000Y-111834577D01*
X90689618Y-111782172D01*
X90696938Y-111766474D01*
X90733440Y-111688196D01*
X90790978Y-111473463D01*
X90810353Y-111252000D01*
X90790978Y-111030537D01*
X90733440Y-110815804D01*
X90733437Y-110815797D01*
X90689618Y-110721826D01*
X90678000Y-110669422D01*
X90678000Y-109294577D01*
X90689618Y-109242172D01*
X90733440Y-109148196D01*
X90790978Y-108933463D01*
X90810353Y-108712000D01*
X90790978Y-108490537D01*
X90733440Y-108275804D01*
X90733437Y-108275797D01*
X90689618Y-108181826D01*
X90678000Y-108129422D01*
X90678000Y-100838000D01*
X89531309Y-100838000D01*
X89464270Y-100818315D01*
X89418515Y-100765511D01*
X89407311Y-100714693D01*
X89281000Y-78105000D01*
X87119000Y-78105000D01*
X87051961Y-78085315D01*
X87006206Y-78032511D01*
X86995000Y-77981000D01*
X86995000Y-67818000D01*
X85979000Y-65913000D01*
X85120143Y-65908034D01*
X85053218Y-65887962D01*
X85008478Y-65836441D01*
X85006315Y-65831802D01*
X84924488Y-65656324D01*
X84924486Y-65656321D01*
X84924485Y-65656319D01*
X84796978Y-65474220D01*
X84728258Y-65405500D01*
X84639781Y-65317023D01*
X84465258Y-65194820D01*
X84457676Y-65189511D01*
X84356936Y-65142536D01*
X84256196Y-65095560D01*
X84256193Y-65095559D01*
X84256191Y-65095558D01*
X84041465Y-65038022D01*
X84041457Y-65038021D01*
X83820002Y-65018647D01*
X83819998Y-65018647D01*
X83598542Y-65038021D01*
X83598535Y-65038022D01*
X83383800Y-65095561D01*
X83182323Y-65189512D01*
X83182319Y-65189514D01*
X83000217Y-65317023D01*
X82843023Y-65474217D01*
X82715514Y-65656319D01*
X82715512Y-65656323D01*
X82662382Y-65770261D01*
X82616209Y-65822700D01*
X82549016Y-65841852D01*
X82482135Y-65821636D01*
X82437618Y-65770261D01*
X82396349Y-65681760D01*
X82384488Y-65656324D01*
X82384486Y-65656321D01*
X82384485Y-65656319D01*
X82256978Y-65474220D01*
X82188258Y-65405500D01*
X82099781Y-65317023D01*
X81925258Y-65194820D01*
X81917676Y-65189511D01*
X81816936Y-65142536D01*
X81716196Y-65095560D01*
X81716193Y-65095559D01*
X81716191Y-65095558D01*
X81501465Y-65038022D01*
X81501457Y-65038021D01*
X81280002Y-65018647D01*
X81279998Y-65018647D01*
X81058542Y-65038021D01*
X81058535Y-65038022D01*
X80843800Y-65095561D01*
X80642323Y-65189512D01*
X80642319Y-65189514D01*
X80460217Y-65317023D01*
X80303023Y-65474217D01*
X80175514Y-65656319D01*
X80175512Y-65656323D01*
X80105343Y-65806801D01*
X80059170Y-65859240D01*
X79992244Y-65878394D01*
X77276548Y-65862696D01*
X77209624Y-65842624D01*
X77164175Y-65789557D01*
X77157492Y-65770799D01*
X77105940Y-65578404D01*
X77011988Y-65376924D01*
X77011986Y-65376921D01*
X77011985Y-65376919D01*
X76884478Y-65194820D01*
X76879169Y-65189511D01*
X76727281Y-65037623D01*
X76545177Y-64910112D01*
X76545178Y-64910112D01*
X76545176Y-64910111D01*
X76444436Y-64863136D01*
X76343696Y-64816160D01*
X76343693Y-64816159D01*
X76343691Y-64816158D01*
X76128965Y-64758622D01*
X76128957Y-64758621D01*
X75907502Y-64739247D01*
X75907498Y-64739247D01*
X75686042Y-64758621D01*
X75686035Y-64758622D01*
X75471300Y-64816161D01*
X75269823Y-64910112D01*
X75269819Y-64910114D01*
X75087717Y-65037623D01*
X74930523Y-65194817D01*
X74803014Y-65376919D01*
X74803012Y-65376923D01*
X74749882Y-65490861D01*
X74703709Y-65543300D01*
X74636516Y-65562452D01*
X74569635Y-65542236D01*
X74525118Y-65490861D01*
X74502249Y-65441819D01*
X74471988Y-65376924D01*
X74471986Y-65376921D01*
X74471985Y-65376919D01*
X74344478Y-65194820D01*
X74339169Y-65189511D01*
X74187281Y-65037623D01*
X74005177Y-64910112D01*
X74005178Y-64910112D01*
X74005176Y-64910111D01*
X73904436Y-64863136D01*
X73803696Y-64816160D01*
X73803693Y-64816159D01*
X73803691Y-64816158D01*
X73588965Y-64758622D01*
X73588957Y-64758621D01*
X73367502Y-64739247D01*
X73367498Y-64739247D01*
X73219858Y-64752163D01*
X73146037Y-64758622D01*
X73146034Y-64758622D01*
X73108100Y-64768787D01*
X73038250Y-64767124D01*
X72988326Y-64736693D01*
X72528011Y-64276377D01*
X72528007Y-64276374D01*
X72423928Y-64206830D01*
X72423915Y-64206823D01*
X72308273Y-64158923D01*
X72308261Y-64158920D01*
X72185495Y-64134500D01*
X72185491Y-64134500D01*
X69735416Y-64134500D01*
X69668377Y-64114815D01*
X69622622Y-64062011D01*
X69612678Y-63992853D01*
X69641703Y-63929297D01*
X69671485Y-63904251D01*
X69840218Y-63802728D01*
X70136272Y-63577674D01*
X70406258Y-63321929D01*
X70647011Y-63038493D01*
X70855708Y-62730689D01*
X70983055Y-62490485D01*
X71031848Y-62440477D01*
X71099933Y-62424785D01*
X71165693Y-62448395D01*
X71202165Y-62490486D01*
X71327189Y-62726305D01*
X71327191Y-62726309D01*
X71535364Y-63033340D01*
X71535371Y-63033350D01*
X71673397Y-63195846D01*
X71673398Y-63195847D01*
X73068419Y-61800826D01*
X73148793Y-61911452D01*
X73311348Y-62074007D01*
X73421972Y-62154379D01*
X72024464Y-63551887D01*
X72044837Y-63571185D01*
X72044838Y-63571186D01*
X72340163Y-63795685D01*
X72340179Y-63795696D01*
X72658016Y-63986931D01*
X72658029Y-63986938D01*
X72994686Y-64142692D01*
X73346241Y-64261146D01*
X73708532Y-64340892D01*
X74077317Y-64380999D01*
X74077325Y-64381000D01*
X74448275Y-64381000D01*
X74448282Y-64380999D01*
X74817067Y-64340892D01*
X75179358Y-64261146D01*
X75530913Y-64142692D01*
X75867570Y-63986938D01*
X75867583Y-63986931D01*
X76185420Y-63795696D01*
X76185427Y-63795691D01*
X76480771Y-63571177D01*
X76480772Y-63571176D01*
X76501133Y-63551889D01*
X76501133Y-63551887D01*
X75103627Y-62154380D01*
X75214252Y-62074007D01*
X75376807Y-61911452D01*
X75457180Y-61800827D01*
X76852200Y-63195846D01*
X76852201Y-63195846D01*
X76990228Y-63033350D01*
X76990235Y-63033340D01*
X77198407Y-62726310D01*
X77323433Y-62490487D01*
X77372227Y-62440477D01*
X77440312Y-62424785D01*
X77506072Y-62448394D01*
X77542544Y-62490486D01*
X77542545Y-62490487D01*
X77669892Y-62730689D01*
X77878589Y-63038493D01*
X78119342Y-63321929D01*
X78389328Y-63577674D01*
X78685382Y-63802728D01*
X79004034Y-63994455D01*
X79004038Y-63994456D01*
X79004042Y-63994459D01*
X79324443Y-64142692D01*
X79341547Y-64150605D01*
X79693964Y-64269348D01*
X80057154Y-64349292D01*
X80426858Y-64389500D01*
X80426864Y-64389500D01*
X80798736Y-64389500D01*
X80798742Y-64389500D01*
X81168446Y-64349292D01*
X81531636Y-64269348D01*
X81884053Y-64150605D01*
X82221566Y-63994455D01*
X82540218Y-63802728D01*
X82836272Y-63577674D01*
X83106258Y-63321929D01*
X83347011Y-63038493D01*
X83555708Y-62730689D01*
X83729901Y-62402125D01*
X83867550Y-62056653D01*
X83967039Y-61698324D01*
X84027204Y-61331339D01*
X84047337Y-60960000D01*
X84027204Y-60588661D01*
X83967039Y-60221676D01*
X83867550Y-59863347D01*
X83806797Y-59710869D01*
X83729905Y-59517884D01*
X83729903Y-59517881D01*
X83729901Y-59517875D01*
X83555708Y-59189311D01*
X83347011Y-58881507D01*
X83106258Y-58598071D01*
X82836272Y-58342326D01*
X82836265Y-58342320D01*
X82836262Y-58342318D01*
X82766037Y-58288935D01*
X82540218Y-58117272D01*
X82328521Y-57989898D01*
X82221570Y-57925547D01*
X82221557Y-57925540D01*
X81884063Y-57769399D01*
X81884058Y-57769397D01*
X81884053Y-57769395D01*
X81712269Y-57711514D01*
X81531635Y-57650651D01*
X81168444Y-57570707D01*
X80798743Y-57530500D01*
X80798742Y-57530500D01*
X80426858Y-57530500D01*
X80426856Y-57530500D01*
X80057155Y-57570707D01*
X79693964Y-57650651D01*
X79421539Y-57742442D01*
X79341547Y-57769395D01*
X79341544Y-57769396D01*
X79341536Y-57769399D01*
X79004042Y-57925540D01*
X79004029Y-57925547D01*
X78738859Y-58085095D01*
X78685382Y-58117272D01*
X78593618Y-58187028D01*
X78389337Y-58342318D01*
X78389328Y-58342326D01*
X78119341Y-58598071D01*
X77878588Y-58881507D01*
X77669892Y-59189310D01*
X77542544Y-59429513D01*
X77493751Y-59479523D01*
X77425666Y-59495214D01*
X77359906Y-59471604D01*
X77323433Y-59429513D01*
X77198405Y-59193685D01*
X76990235Y-58886659D01*
X76990228Y-58886649D01*
X76852201Y-58724152D01*
X76852200Y-58724151D01*
X75457179Y-60119171D01*
X75376807Y-60008548D01*
X75214252Y-59845993D01*
X75103626Y-59765619D01*
X76501133Y-58368112D01*
X76501133Y-58368110D01*
X76480762Y-58348814D01*
X76480761Y-58348813D01*
X76185436Y-58124314D01*
X76185420Y-58124303D01*
X75867583Y-57933068D01*
X75867570Y-57933061D01*
X75530913Y-57777307D01*
X75179358Y-57658853D01*
X74817067Y-57579107D01*
X74448282Y-57539000D01*
X74077317Y-57539000D01*
X73708532Y-57579107D01*
X73346241Y-57658853D01*
X72994686Y-57777307D01*
X72658029Y-57933061D01*
X72658016Y-57933068D01*
X72340179Y-58124303D01*
X72340163Y-58124314D01*
X72044832Y-58348818D01*
X72024465Y-58368109D01*
X72024465Y-58368111D01*
X73421973Y-59765619D01*
X73311348Y-59845993D01*
X73148793Y-60008548D01*
X73068419Y-60119172D01*
X71673398Y-58724151D01*
X71535364Y-58886659D01*
X71327191Y-59193690D01*
X71327188Y-59193694D01*
X71202165Y-59429513D01*
X71153372Y-59479523D01*
X71085287Y-59495214D01*
X71019527Y-59471604D01*
X70983055Y-59429514D01*
X70855708Y-59189311D01*
X70647011Y-58881507D01*
X70406258Y-58598071D01*
X70136272Y-58342326D01*
X70136265Y-58342320D01*
X70136262Y-58342318D01*
X70066037Y-58288935D01*
X69840218Y-58117272D01*
X69628521Y-57989898D01*
X69521570Y-57925547D01*
X69521557Y-57925540D01*
X69184063Y-57769399D01*
X69184058Y-57769397D01*
X69184053Y-57769395D01*
X69012269Y-57711514D01*
X68831635Y-57650651D01*
X68468444Y-57570707D01*
X68098743Y-57530500D01*
X68098742Y-57530500D01*
X67726858Y-57530500D01*
X67726856Y-57530500D01*
X67357155Y-57570707D01*
X66993964Y-57650651D01*
X66721539Y-57742442D01*
X66641547Y-57769395D01*
X66641544Y-57769396D01*
X66641536Y-57769399D01*
X66304042Y-57925540D01*
X66304029Y-57925547D01*
X66038859Y-58085095D01*
X65985382Y-58117272D01*
X65893618Y-58187028D01*
X65689337Y-58342318D01*
X65689328Y-58342326D01*
X65419341Y-58598071D01*
X65178588Y-58881507D01*
X64969896Y-59189303D01*
X64795696Y-59517881D01*
X64795694Y-59517884D01*
X64658048Y-59863350D01*
X64658046Y-59863357D01*
X64558564Y-60221662D01*
X64558558Y-60221688D01*
X64498397Y-60588646D01*
X64498396Y-60588659D01*
X64498396Y-60588661D01*
X64478263Y-60960000D01*
X64496805Y-61302001D01*
X64498396Y-61331336D01*
X64498397Y-61331353D01*
X64558558Y-61698311D01*
X64558564Y-61698337D01*
X64658046Y-62056642D01*
X64658048Y-62056649D01*
X64795694Y-62402115D01*
X64795696Y-62402118D01*
X64795699Y-62402125D01*
X64969892Y-62730689D01*
X64969896Y-62730696D01*
X65175095Y-63033340D01*
X65178589Y-63038493D01*
X65419342Y-63321929D01*
X65689328Y-63577674D01*
X65985382Y-63802728D01*
X66195741Y-63929297D01*
X66304028Y-63994452D01*
X66304032Y-63994454D01*
X66304034Y-63994455D01*
X66407571Y-64042356D01*
X66460148Y-64088370D01*
X66479502Y-64155505D01*
X66459488Y-64222447D01*
X66424396Y-64257996D01*
X66396894Y-64276372D01*
X66396888Y-64276377D01*
X65657173Y-65016092D01*
X65595850Y-65049577D01*
X65537401Y-65048187D01*
X65519075Y-65043277D01*
X65499463Y-65038022D01*
X65388731Y-65028334D01*
X65278002Y-65018647D01*
X65277998Y-65018647D01*
X65056542Y-65038021D01*
X65056535Y-65038022D01*
X64841800Y-65095561D01*
X64640323Y-65189512D01*
X64640319Y-65189514D01*
X64458217Y-65317023D01*
X64301026Y-65474214D01*
X64233575Y-65570545D01*
X64178998Y-65614169D01*
X64109499Y-65621362D01*
X64047145Y-65589840D01*
X64011731Y-65529610D01*
X64008000Y-65499421D01*
X64008000Y-56385000D01*
X64027685Y-56317961D01*
X64080489Y-56272206D01*
X64132000Y-56261000D01*
X84553018Y-56261000D01*
X84607979Y-56273845D01*
G37*
%TD.AperFunction*%
%TD*%
%TA.AperFunction,Conductor*%
%TO.N,Net-(J2-Neg)*%
G36*
X65625389Y-146161822D02*
G01*
X65589333Y-146120211D01*
X65578128Y-146069204D01*
X65574524Y-145182692D01*
X65532506Y-134846103D01*
X65533002Y-134844386D01*
X65625389Y-146161822D01*
G37*
%TD.AperFunction*%
%TD*%
%TA.AperFunction,Conductor*%
%TO.N,Net-(J2-Neg)*%
G36*
X78006925Y-134741285D02*
G01*
X78009530Y-134743006D01*
X80053280Y-136130506D01*
X83460849Y-138443901D01*
X83505258Y-138497842D01*
X83515200Y-138546492D01*
X83515200Y-146068700D01*
X83495515Y-146135739D01*
X83442711Y-146181494D01*
X83391200Y-146192700D01*
X65702127Y-146192700D01*
X65635088Y-146173015D01*
X65625389Y-146161822D01*
X65545087Y-136324755D01*
X67597400Y-136324755D01*
X67597400Y-139297600D01*
X70286223Y-139297600D01*
X70256400Y-139447533D01*
X70256400Y-139647667D01*
X70286223Y-139797600D01*
X67597400Y-139797600D01*
X67597400Y-142770444D01*
X67603801Y-142829972D01*
X67603803Y-142829979D01*
X67654045Y-142964686D01*
X67654049Y-142964693D01*
X67740209Y-143079787D01*
X67740212Y-143079790D01*
X67855306Y-143165950D01*
X67855313Y-143165954D01*
X67990020Y-143216196D01*
X67990027Y-143216198D01*
X68049555Y-143222599D01*
X68049572Y-143222600D01*
X71022400Y-143222600D01*
X71022400Y-140533776D01*
X71172333Y-140563600D01*
X71372467Y-140563600D01*
X71522400Y-140533776D01*
X71522400Y-143222600D01*
X74495228Y-143222600D01*
X74495244Y-143222599D01*
X74554772Y-143216198D01*
X74554779Y-143216196D01*
X74689486Y-143165954D01*
X74689493Y-143165950D01*
X74804587Y-143079790D01*
X74804590Y-143079787D01*
X74890750Y-142964693D01*
X74890754Y-142964686D01*
X74940996Y-142829979D01*
X74940998Y-142829972D01*
X74947399Y-142770444D01*
X74947400Y-142770427D01*
X74947400Y-141999997D01*
X76323975Y-141999997D01*
X76323975Y-142000002D01*
X76344058Y-142370415D01*
X76344060Y-142370432D01*
X76404071Y-142736481D01*
X76404077Y-142736507D01*
X76503313Y-143093924D01*
X76503315Y-143093931D01*
X76640619Y-143438541D01*
X76640628Y-143438559D01*
X76814388Y-143766305D01*
X76814391Y-143766309D01*
X77022564Y-144073340D01*
X77022571Y-144073350D01*
X77160597Y-144235846D01*
X77160598Y-144235847D01*
X78555619Y-142840826D01*
X78635993Y-142951452D01*
X78798548Y-143114007D01*
X78909172Y-143194379D01*
X77511664Y-144591887D01*
X77532037Y-144611185D01*
X77532038Y-144611186D01*
X77827363Y-144835685D01*
X77827379Y-144835696D01*
X78145216Y-145026931D01*
X78145229Y-145026938D01*
X78481886Y-145182692D01*
X78833441Y-145301146D01*
X79195732Y-145380892D01*
X79564517Y-145420999D01*
X79564525Y-145421000D01*
X79935475Y-145421000D01*
X79935482Y-145420999D01*
X80304267Y-145380892D01*
X80666558Y-145301146D01*
X81018113Y-145182692D01*
X81354770Y-145026938D01*
X81354783Y-145026931D01*
X81672620Y-144835696D01*
X81672627Y-144835691D01*
X81967971Y-144611177D01*
X81967972Y-144611176D01*
X81988333Y-144591889D01*
X81988333Y-144591887D01*
X80590827Y-143194380D01*
X80701452Y-143114007D01*
X80864007Y-142951452D01*
X80944380Y-142840827D01*
X82339400Y-144235846D01*
X82339401Y-144235846D01*
X82477428Y-144073350D01*
X82477435Y-144073340D01*
X82685608Y-143766309D01*
X82685611Y-143766305D01*
X82859371Y-143438559D01*
X82859380Y-143438541D01*
X82996684Y-143093931D01*
X82996686Y-143093924D01*
X83095922Y-142736507D01*
X83095928Y-142736481D01*
X83155939Y-142370432D01*
X83155941Y-142370415D01*
X83176025Y-142000002D01*
X83176025Y-141999997D01*
X83155941Y-141629584D01*
X83155939Y-141629567D01*
X83095928Y-141263518D01*
X83095922Y-141263492D01*
X82996686Y-140906075D01*
X82996684Y-140906068D01*
X82859380Y-140561458D01*
X82859371Y-140561440D01*
X82685611Y-140233694D01*
X82685608Y-140233690D01*
X82477435Y-139926659D01*
X82477428Y-139926649D01*
X82339401Y-139764152D01*
X82339400Y-139764151D01*
X80944379Y-141159171D01*
X80864007Y-141048548D01*
X80701452Y-140885993D01*
X80590826Y-140805619D01*
X81988333Y-139408112D01*
X81988333Y-139408110D01*
X81967962Y-139388814D01*
X81967961Y-139388813D01*
X81672636Y-139164314D01*
X81672620Y-139164303D01*
X81354783Y-138973068D01*
X81354770Y-138973061D01*
X81018113Y-138817307D01*
X80666558Y-138698853D01*
X80304267Y-138619107D01*
X79935482Y-138579000D01*
X79564517Y-138579000D01*
X79195732Y-138619107D01*
X78833441Y-138698853D01*
X78481886Y-138817307D01*
X78145229Y-138973061D01*
X78145216Y-138973068D01*
X77827379Y-139164303D01*
X77827363Y-139164314D01*
X77532032Y-139388818D01*
X77511665Y-139408109D01*
X77511665Y-139408111D01*
X78909173Y-140805619D01*
X78798548Y-140885993D01*
X78635993Y-141048548D01*
X78555619Y-141159172D01*
X77160598Y-139764151D01*
X77022564Y-139926659D01*
X76814391Y-140233690D01*
X76814388Y-140233694D01*
X76640628Y-140561440D01*
X76640619Y-140561458D01*
X76503315Y-140906068D01*
X76503313Y-140906075D01*
X76404077Y-141263492D01*
X76404071Y-141263518D01*
X76344060Y-141629567D01*
X76344058Y-141629584D01*
X76323975Y-141999997D01*
X74947400Y-141999997D01*
X74947400Y-139797600D01*
X72258577Y-139797600D01*
X72288400Y-139647667D01*
X72288400Y-139447533D01*
X72258577Y-139297600D01*
X74947400Y-139297600D01*
X74947400Y-136324772D01*
X74947399Y-136324755D01*
X74940998Y-136265227D01*
X74940996Y-136265220D01*
X74890754Y-136130513D01*
X74890750Y-136130506D01*
X74804590Y-136015412D01*
X74804587Y-136015409D01*
X74689493Y-135929249D01*
X74689486Y-135929245D01*
X74554779Y-135879003D01*
X74554772Y-135879001D01*
X74495244Y-135872600D01*
X71522400Y-135872600D01*
X71522400Y-138561423D01*
X71372467Y-138531600D01*
X71172333Y-138531600D01*
X71022400Y-138561423D01*
X71022400Y-135872600D01*
X68049555Y-135872600D01*
X67990027Y-135879001D01*
X67990020Y-135879003D01*
X67855313Y-135929245D01*
X67855306Y-135929249D01*
X67740212Y-136015409D01*
X67740209Y-136015412D01*
X67654049Y-136130506D01*
X67654045Y-136130513D01*
X67603803Y-136265220D01*
X67603801Y-136265227D01*
X67597400Y-136324755D01*
X65545087Y-136324755D01*
X65533002Y-134844387D01*
X65551918Y-134778985D01*
X65604535Y-134733016D01*
X65656505Y-134721600D01*
X77939886Y-134721600D01*
X78006925Y-134741285D01*
G37*
%TD.AperFunction*%
%TD*%
M02*
